<svg xmlns="http://www.w3.org/2000/svg" xmlns:xlink="http://www.w3.org/1999/xlink" width="20" height="17"><defs><path id="a" d="M1646.67 1125.91c0 .5-.4.82-.81.82a.82.82 0 0 1 0-1.64c.4-.08.81.33.81.82zm8.27-.9a.82.82 0 0 1 0 1.64.82.82 0 0 1 0-1.64zm.65-2.45l2.38-7.04c.08-.33 0-.57-.09-.66-.24-.4-.81-.4-.9-.4h-13.33l-.33-1.64a.98.98 0 0 0-.98-.82h-3.77c-.32 0-.57.16-.57.57v.98c0 .33.25.41.65.41h3.2l2.45 10.31c-.4.41-.57.99-.57 1.56 0 1.23.98 2.37 2.2 2.37 1.15 0 2.05-1.06 2.22-1.72h4.58c.16.66.82 1.8 2.2 1.8 1.24 0 2.22-1.06 2.22-2.29 0-1.22-.74-2.29-2.21-2.29-.57 0-1.31.33-1.64.82h-5.8c-.42-.65-.99-.82-1.56-.9l-.08-.41h8.83c.66-.08.74-.33.9-.65z"/></defs><use fill="#ce0404" xlink:href="#a" transform="translate(-1638 -1112)"/></svg>