<svg xmlns="http://www.w3.org/2000/svg" xmlns:xlink="http://www.w3.org/1999/xlink" width="17" height="16"><defs><path id="a" d="M197.27 533.48c0 2.2-1.78 3.98-3.98 3.98h-4.95a3.98 3.98 0 0 1-3.98-3.98v-4.96c0-2.2 1.78-3.98 3.98-3.98h4.95c2.2 0 3.98 1.79 3.98 3.98zM193.88 523h-6.14a4.93 4.93 0 0 0-4.93 4.93v6.14c0 2.72 2.2 4.93 4.93 4.93h6.14c2.73 0 4.93-2.2 4.93-4.93v-6.14a4.94 4.94 0 0 0-4.93-4.93z"/><path id="b" d="M191.02 533.56a2.53 2.53 0 1 1 0-5.06 2.53 2.53 0 0 1 0 5.06zm0-6.75a4.21 4.21 0 1 0 0 8.43 4.21 4.21 0 0 0 0-8.43z"/><path id="c" d="M196.02 526.75a1.08 1.08 0 0 1-2.15 0 1.08 1.08 0 0 1 2.15 0z"/></defs><use fill="#fff" xlink:href="#a" transform="translate(-182 -523)"/><use fill="#fff" xlink:href="#b" transform="translate(-182 -523)"/><use fill="#fff" xlink:href="#c" transform="translate(-182 -523)"/></svg>