<svg xmlns="http://www.w3.org/2000/svg" xmlns:xlink="http://www.w3.org/1999/xlink" width="22" height="12"><defs><path id="a" d="M148.12 525.93c-.26-.22-1.23-.2-2.2-.2-1 0-2 .02-2.22.1-.21.08-.7 1.23-1.3 2.4-.7 1.34-1.58 2.63-2.12 2.61-.71-.02-.53-2.2-.5-3.81.03-1.08-.13-1.42-.3-1.52a6.03 6.03 0 0 0-1.4-.5s-3.09-.23-3.52 1.12c.57.08 1.59-.12 1.2 4.02-.01.2-.47 1.9-1.9-.4-.36-.58-1.73-4-2.2-4.02-1.6-.04-3.17-.1-3.73.2-.51.28.7 2.65 2.7 5.83 1.66 2.58 3.4 4.61 6.43 5.13.56.06 2.05.12 2.5-.1.33-.16-.05-2.4 1-2.6.48-.1 2.3 2.32 3.03 2.6.41.16 1.35.24 2.3.2 1.04-.04 2.19.1 2.31-.6.26-1.55-3.12-3.56-3.22-4.51-.08-.68 1.23-1.95 1.9-2.9.86-1.22 1.76-2.63 1.24-3.05z"/></defs><use fill="#fff" xlink:href="#a" transform="translate(-127 -525)"/></svg>