<?xml version="1.0" standalone="no"?>
<!DOCTYPE svg PUBLIC "-//W3C//DTD SVG 1.1//EN" "http://www.w3.org/Graphics/SVG/1.1/DTD/svg11.dtd" >
<svg xmlns="http://www.w3.org/2000/svg" xmlns:xlink="http://www.w3.org/1999/xlink" version="1.1">
<metadata></metadata>
<defs>
<font id="rubikbold_italic" horiz-adv-x="1218" >
<font-face units-per-em="2048" ascent="1638" descent="-410" />
<missing-glyph horiz-adv-x="436" />
<glyph horiz-adv-x="0" />
<glyph unicode="&#xd;" horiz-adv-x="436" />
<glyph horiz-adv-x="0" />
<glyph horiz-adv-x="0" />
<glyph unicode=" "  horiz-adv-x="436" />
<glyph unicode="&#x09;" horiz-adv-x="436" />
<glyph unicode="&#xa0;" horiz-adv-x="436" />
<glyph unicode="!" horiz-adv-x="604" d="M0 51l55 264q4 23 23.5 38.5t40.5 15.5h264q20 0 32.5 -15.5t8.5 -38.5l-55 -264q-4 -23 -22.5 -37t-41.5 -14h-262q-23 0 -35 14.5t-8 36.5zM106 516l185 866q4 23 22.5 37.5t38.5 14.5h250q20 0 33.5 -14.5t9.5 -37.5l-186 -866q-4 -23 -22.5 -38t-41.5 -15h-248 q-22 0 -33.5 15.5t-7.5 37.5z" />
<glyph unicode="&#x22;" horiz-adv-x="937" d="M199 961l45 430q2 29 18.5 46t42.5 17h238q20 0 31.5 -10t11.5 -29q0 -8 -4 -24l-140 -430q-16 -57 -71 -58h-125q-55 1 -47 58zM637 961l45 430q2 29 19.5 46t41.5 17h240q18 0 29.5 -10t11.5 -29q0 -8 -4 -24l-139 -430q-16 -57 -72 -58h-125q-55 1 -47 58z" />
<glyph unicode="#" horiz-adv-x="1402" d="M68 365l36 172q4 20 21.5 34.5t38.5 14.5h180l90 250h-164q-20 0 -31.5 14t-7.5 35l37 172q4 20 21.5 34.5t38.5 14.5h204l70 192q6 18 22.5 30.5t34.5 12.5h170q18 0 28.5 -13t6.5 -32l-69 -190h202l70 192q6 18 22.5 30.5t34.5 12.5h170q18 0 28.5 -13t6.5 -32 l-69 -190h139q20 0 31.5 -14.5t7.5 -34.5l-37 -172q-4 -20 -21.5 -34.5t-38.5 -14.5h-178l-90 -250h162q20 0 31.5 -14.5t7.5 -34.5l-37 -172q-4 -20 -21.5 -35t-37.5 -15h-203l-70 -192q-8 -18 -23.5 -30.5t-33.5 -12.5h-170q-18 0 -29.5 13t-7.5 32l70 190h-201l-70 -192 q-8 -18 -23.5 -30.5t-33.5 -12.5h-170q-18 0 -30.5 13t-6.5 32l70 190h-140q-20 0 -31.5 14.5t-6.5 35.5zM608 586h201l90 250h-201z" />
<glyph unicode="$" horiz-adv-x="1382" d="M14 342q0 18 4 51q2 18 18.5 30.5t35.5 12.5h272q25 0 39 -9t29 -28q16 -49 65 -80.5t137 -31.5q123 0 194 41t71 108q0 51 -62.5 80t-228.5 66q-408 84 -408 360q0 49 13 100q35 168 168 274.5t344 129.5l32 141q4 23 22.5 37t41.5 14h178q20 0 31.5 -14t7.5 -37 l-33 -151q115 -27 200 -82.5t131 -126t46 -140.5q0 -10 -4 -34q-4 -18 -18.5 -31.5t-32.5 -13.5h-287q-43 0 -64 36q-4 43 -48 73t-115 30q-86 0 -141.5 -31t-67.5 -90q-4 -16 -4 -25q0 -47 57 -76.5t203 -60.5q231 -43 337.5 -128t106.5 -226q0 -47 -12 -102 q-39 -190 -183.5 -297t-386.5 -125l-26 -140q-4 -20 -22.5 -35.5t-41.5 -15.5h-178q-22 0 -33.5 15.5t-7.5 35.5l31 146q-197 29 -303.5 125t-106.5 225z" />
<glyph unicode="%" horiz-adv-x="1726" d="M88 33q0 16 14 30l1295 1332q20 20 36.5 29.5t43.5 9.5h163q18 0 29.5 -9.5t11.5 -23.5q0 -16 -14 -31l-1294 -1331q-20 -20 -37 -29.5t-43 -9.5h-164q-18 0 -29.5 9t-11.5 24zM152 946q0 25 2 37q10 74 43 193q33 131 118.5 199.5t235.5 68.5q123 0 201.5 -65.5 t78.5 -172.5q0 -12 -4 -41q-16 -102 -43 -192q-74 -266 -356 -266q-119 0 -197.5 66.5t-78.5 172.5zM379 967q0 -74 67 -74q46 0 74.5 27.5t40.5 68.5q29 104 35 170q4 20 4 33q0 66 -68 65q-47 0 -75.5 -27.5t-40.5 -70.5q-27 -104 -35 -170zM944 229q0 25 2 37 q10 74 43 193q33 131 119 199.5t235 68.5q123 0 202 -65.5t79 -172.5q0 -12 -4 -40q-18 -109 -43 -195q-72 -264 -356 -264q-119 0 -198 66.5t-79 172.5zM1171 250q0 -76 68 -76q45 0 73.5 28.5t41.5 69.5q29 106 35 170q4 20 4 31q0 66 -68 66q-47 0 -75.5 -28t-41.5 -69 q-27 -113 -34 -170z" />
<glyph unicode="&#x26;" horiz-adv-x="1529" d="M63 305q0 39 11 94q27 125 118 219.5t240 172.5q-88 121 -88 231q0 25 8 70q20 98 89 181t181.5 132t258.5 49q174 0 268 -80t94 -205q0 -39 -8 -71q-25 -117 -115 -204t-246 -165l183 -235q4 6 50 61t103 166q4 12 17.5 20.5t32.5 8.5h219q16 0 25 -11.5t5 -27.5 q-16 -70 -108 -193t-191 -217l181 -235q8 -12 8 -23q0 -18 -14.5 -30.5t-32.5 -12.5h-293q-33 0 -49 20l-70 84q-96 -66 -200.5 -95t-227.5 -29q-211 0 -330 86t-119 239zM412 383q0 -61 46 -98t111 -37q119 -1 217 71l-208 263q-137 -68 -162 -166q-4 -20 -4 -33zM674 1059 q0 -59 61 -137q94 43 144.5 87t50.5 105q0 41 -28 65.5t-75 24.5q-59 0 -106 -42t-47 -103z" />
<glyph unicode="'" horiz-adv-x="499" d="M199 961l45 430q2 29 18.5 46t42.5 17h238q20 0 31.5 -10t11.5 -29q0 -8 -4 -24l-140 -433q-8 -27 -24.5 -41t-46.5 -14h-125q-55 1 -47 58z" />
<glyph unicode="(" horiz-adv-x="794" d="M45 270q0 158 43 363q74 348 177.5 556t257 304t380.5 96q23 0 35 -15t8 -36l-39 -184q-4 -20 -22.5 -34.5t-38.5 -16.5q-162 -10 -260.5 -174t-169.5 -496q-49 -242 -49 -383q0 -137 46 -210t148 -79q20 -2 31.5 -16.5t5.5 -34.5l-39 -184q-2 -20 -20.5 -36t-40.5 -16 q-127 0 -229.5 63.5t-163 198t-60.5 334.5z" />
<glyph unicode=")" horiz-adv-x="792" d="M-143 -274l39 184q6 20 23.5 34.5t37.5 16.5q162 10 261 176t169 496q51 238 51 385q0 135 -46 206.5t-148 78.5q-20 2 -31.5 16t-7.5 35l39 184q4 23 22.5 37t38.5 14q127 0 229.5 -63.5t163 -196.5t60.5 -334q0 -156 -43 -362q-76 -356 -173.5 -561t-250 -301.5 t-391.5 -96.5q-21 0 -34 14.5t-9 37.5z" />
<glyph unicode="*" horiz-adv-x="911" d="M225 1034l66 174q0 18 19.5 30.5t37.5 8.5l131 -6l-76 102q-4 6 -4 19q0 31 31 43l180 29q4 2 13 2q14 0 21 -11.5t5 -25.5l10 -129l97 125q16 20 37 20q18 0 26 -14l45 -156q6 -8 6 -18q0 -14 -10 -26.5t-24 -16.5l-129 -74l139 -25q8 -2 14 -10t6 -18q0 -12 -10 -29 l-147 -125q-12 -18 -33 -18q-20 0 -31 16l-88 84l-12 -143q-2 -18 -18.5 -32.5t-37.5 -8.5l-137 82q-20 6 -20 26q0 16 10 31l74 125l-148 -66l-10 -2q-16 0 -25.5 10.5t-7.5 26.5z" />
<glyph unicode="+" horiz-adv-x="1230" d="M51 541l33 157q6 23 24.5 38.5t38.5 15.5h361l76 358q4 23 22.5 37t40.5 14h176q23 0 34 -15.5t7 -35.5l-76 -358h357q23 0 35 -15.5t6 -38.5l-33 -157q-4 -20 -22.5 -36t-40.5 -16h-359l-78 -370q-4 -23 -22.5 -37t-38.5 -14h-176q-23 0 -35 14t-8 37l78 370h-359 q-23 0 -34 14.5t-7 37.5z" />
<glyph unicode="," horiz-adv-x="591" d="M-82 -106l152 409q12 31 34.5 51.5t55.5 20.5h262q16 0 24.5 -9.5t8.5 -23.5t-4 -20l-252 -418q-35 -57 -86 -58h-164q-16 0 -26.5 14.5t-4.5 33.5z" />
<glyph unicode="-" horiz-adv-x="972" d="M90 512l43 205q6 23 24.5 37t39.5 14h645q23 0 35 -15.5t6 -35.5l-43 -205q-4 -20 -22.5 -35.5t-41.5 -15.5h-645q-22 0 -33.5 15.5t-7.5 35.5z" />
<glyph unicode="." horiz-adv-x="583" d="M-8 51l57 271q4 23 22.5 38t41.5 15h270q23 0 34 -15.5t7 -37.5l-57 -271q-4 -23 -22.5 -37t-41.5 -14h-270q-23 0 -34 15.5t-7 35.5z" />
<glyph unicode="/" horiz-adv-x="1114" d="M-106 -137q0 16 8 26l1048 1670q33 51 86 51h199q18 0 27.5 -9.5t9.5 -23.5q0 -12 -10 -29l-1053 -1669q-31 -51 -84 -51h-195q-16 0 -26 10t-10 25z" />
<glyph unicode="0" horiz-adv-x="1398" d="M80 418q0 53 8 100q12 84 37 198.5t49 205.5q139 530 672 532q238 -2 379 -119.5t141 -318.5q0 -29 -8 -94q-31 -197 -86 -404q-70 -260 -231.5 -398t-444.5 -140q-242 2 -379 118.5t-137 319.5zM479 440q0 -76 35 -113.5t113 -37.5q189 -1 250 239q45 174 81 381 q8 61 9 86q0 76 -35 115t-115 39q-98 0 -157.5 -60.5t-90.5 -179.5q-45 -170 -82 -381q-8 -43 -8 -88z" />
<glyph unicode="1" horiz-adv-x="1026" d="M109 995q0 16 9 32.5t25 25.5l553 366q27 14 49 15h273q23 0 34 -15.5t7 -36.5l-283 -1331q-4 -23 -22.5 -37t-38.5 -14h-281q-22 0 -34.5 14.5t-8.5 36.5l201 934l-307 -201q-18 -12 -33 -12q-25 0 -39 25l-100 180q-4 12 -4 18z" />
<glyph unicode="2" horiz-adv-x="1343" d="M-6 51l33 154q14 63 73 102l232 187q229 150 344 230.5t181.5 147t78.5 125.5q6 25 6 47q0 104 -125 105q-82 0 -135 -48t-82 -120q-23 -47 -80 -47h-270q-20 0 -29.5 13.5t-5.5 29.5q31 135 125 244.5t235.5 174t305.5 64.5q225 0 347 -92t122 -254q0 -55 -11 -98 q-31 -145 -147.5 -265t-333.5 -259l-205 -170h516q23 0 34 -14.5t7 -37.5l-45 -219q-4 -20 -22.5 -35.5t-40.5 -15.5h-1067q-23 0 -34 15.5t-7 35.5z" />
<glyph unicode="3" horiz-adv-x="1361" d="M39 336q0 16 4 45q4 18 20.5 30.5t34.5 12.5h283q25 0 37 -9t22 -30q16 -100 193 -100q98 0 163.5 47t84.5 127q4 29 4 41q0 113 -176 112h-230q-23 0 -35 15.5t-6 38.5l25 120q12 47 49 70l387 270h-565q-23 0 -34 15.5t-7 36.5l43 202q4 23 22.5 38.5t40.5 15.5h955 q23 0 34 -15.5t7 -38.5l-39 -182q-10 -43 -47 -68l-363 -276l12 -4q152 -23 239 -98.5t87 -210.5q0 -47 -12 -107q-29 -137 -129.5 -240.5t-251 -158.5t-326.5 -55q-184 0 -303 52t-171 134t-52 170z" />
<glyph unicode="4" horiz-adv-x="1433" d="M-2 328l45 207q6 33 33 59l768 805q35 35 82 35h340q23 0 34 -15.5t7 -36.5l-168 -788h180q25 0 36 -15.5t7 -35.5l-45 -215q-4 -20 -22.5 -36t-41.5 -16h-182l-47 -225q-4 -23 -22.5 -37t-38.5 -14h-269q-22 0 -33.5 15.5t-7.5 35.5l47 225h-661q-20 0 -32.5 14.5 t-8.5 37.5zM451 580h323l96 452z" />
<glyph unicode="5" horiz-adv-x="1331" d="M14 352q0 39 4 58q2 18 17.5 30.5t34.5 12.5h288q27 0 42.5 -11.5t17.5 -27.5q18 -129 166 -129q88 0 159.5 53t92.5 149q4 16 4 48q0 70 -42 108.5t-120 38.5q-51 0 -86 -13.5t-70 -35.5q-39 -25 -61 -25h-285q-20 0 -29.5 16.5t-3.5 37.5l226 710q10 31 32.5 46.5 t49.5 15.5h831q23 0 35 -14.5t8 -37.5l-43 -204q-6 -23 -24.5 -37.5t-38.5 -14.5h-594l-80 -252q57 35 120.5 52.5t161.5 17.5q113 0 207 -49t148.5 -136t54.5 -200q0 -41 -10 -98q-47 -225 -216 -354.5t-458 -129.5q-168 0 -290 50.5t-185.5 135.5t-63.5 189z" />
<glyph unicode="6" horiz-adv-x="1341" d="M57 385q0 51 13 109q39 180 264 419l461 480q35 41 82 41h286q18 0 28.5 -13.5t6.5 -31.5q-2 -10 -7 -17.5t-7 -9.5l-355 -373q25 6 58 6q109 -6 204 -56t153.5 -138t58.5 -203q0 -41 -11 -96q-31 -143 -132 -263t-252.5 -189.5t-329.5 -69.5q-160 0 -277 50t-180.5 141 t-63.5 214zM459 446q0 -76 50 -117.5t130 -41.5q92 0 166 55t94 154q6 29 6 51q0 74 -50 116t-128 42q-92 0 -167 -55.5t-95 -153.5q-6 -27 -6 -50z" />
<glyph unicode="7" horiz-adv-x="1185" d="M154 45q6 16 8 18l692 1049h-608q-23 0 -34 15.5t-7 37.5l47 215q4 23 22.5 38.5t40.5 15.5h969q23 0 34 -15.5t7 -38.5l-41 -190q-8 -45 -43 -94l-692 -1047q-33 -49 -84 -49h-279q-18 0 -27 13.5t-5 31.5z" />
<glyph unicode="8" horiz-adv-x="1388" d="M45 369q0 23 8 71q20 106 93 190.5t173 129.5q-43 41 -68.5 97t-25.5 122q0 39 8 72q23 117 101 208t208 143t300 52q154 0 266.5 -47t171.5 -128t59 -181q0 -31 -6 -66q-18 -92 -66 -157.5t-132 -114.5q66 -43 100.5 -110.5t34.5 -149.5q0 -47 -8 -82 q-43 -197 -212 -317.5t-458 -120.5q-170 0 -294 52t-188.5 140t-64.5 197zM430 391q0 -66 49 -103.5t133 -37.5q109 0 189 62.5t80 156.5q0 66 -50.5 103.5t-132.5 37.5q-111 0 -189.5 -60.5t-78.5 -158.5zM582 987q0 -57 42 -89t121 -32q99 2 168.5 56.5t69.5 136.5 q0 55 -43 89t-121 34q-100 0 -168.5 -54.5t-68.5 -140.5z" />
<glyph unicode="9" horiz-adv-x="1323" d="M145 840q0 49 13 100q29 135 122 253t242.5 189.5t337.5 71.5q248 0 380 -108.5t132 -284.5q0 -51 -12 -107q-25 -113 -90.5 -205t-184.5 -221l-47 -49l-415 -438q-35 -41 -82 -41h-289q-19 0 -28 13.5t-5 31.5q2 14 14 27l371 391q-31 -6 -57 -4q-109 6 -200 54 t-146.5 132t-55.5 195zM543 891q0 -72 46 -113t122 -41q92 0 161.5 55.5t90.5 149.5q6 29 6 51q0 72 -46 113t-124 41q-90 0 -160 -55.5t-90 -149.5q-6 -27 -6 -51z" />
<glyph unicode=":" horiz-adv-x="604" d="M-2 51l53 258q4 20 22.5 35.5t41.5 15.5h270q23 0 34 -14t7 -37l-53 -258q-4 -23 -22.5 -37t-41.5 -14h-270q-23 0 -34 15.5t-7 35.5zM152 768l53 258q4 23 22.5 37t40.5 14h271q23 0 34 -15t7 -36l-54 -258q-6 -23 -24.5 -37t-40.5 -14h-271q-22 0 -33.5 15.5t-4.5 35.5 z" />
<glyph unicode=";" horiz-adv-x="620" d="M-47 -109l151 412q10 29 34 50.5t59 21.5h247q16 0 26.5 -12.5t6.5 -28.5l-8 -23l-248 -407q-35 -57 -88 -58h-149q-19 0 -27 13.5t-4 31.5zM205 768l55 258q4 23 22.5 37t41.5 14h270q23 0 34 -15t7 -36l-55 -258q-4 -23 -22.5 -37t-39.5 -14h-270q-23 0 -35 14t-8 37z " />
<glyph unicode="&#x3c;" horiz-adv-x="1062" d="M102 666q0 14 2 20l15 66q8 29 25.5 48t52.5 40l856 508q25 12 37 12q18 0 27 -12.5t5 -30.5l-49 -232q-6 -31 -25.5 -48t-50.5 -33l-495 -285l375 -287q4 -4 16 -14t19.5 -22.5t7.5 -26.5q0 -10 -2 -17l-50 -233q-4 -18 -19 -30.5t-34 -12.5q-13 0 -29 12l-641 508 q-23 18 -33 33.5t-10 36.5z" />
<glyph unicode="=" horiz-adv-x="1161" d="M53 274l37 168q4 23 22.5 37.5t41.5 14.5h809q20 0 31.5 -14.5t6.5 -37.5l-34 -168q-4 -23 -22.5 -37t-39.5 -14h-809q-22 0 -34.5 14.5t-8.5 36.5zM164 786l35 168q4 23 22.5 37.5t40.5 14.5h809q20 0 31.5 -14.5t7.5 -37.5l-35 -168q-4 -23 -22.5 -37t-38.5 -14h-809 q-23 0 -35 15.5t-6 35.5z" />
<glyph unicode="&#x3e;" horiz-adv-x="1062" d="M47 119l49 233q6 29 23.5 45.5t50.5 34.5l498 287l-375 285q-20 14 -31.5 27t-11.5 36q0 12 2 18l49 232q4 20 18.5 31.5t32.5 11.5q10 0 31 -12l639 -508q23 -18 33 -32.5t10 -35.5q0 -12 -2 -20l-14 -66q-6 -29 -23.5 -49.5t-54.5 -40.5l-854 -508q-29 -12 -37 -12 q-19 0 -28 12t-5 31z" />
<glyph unicode="?" horiz-adv-x="1234" d="M170 993q0 10 2 17q27 111 117 213t236.5 166.5t330.5 64.5q240 0 347.5 -91t107.5 -216q0 -39 -11 -76q-23 -100 -85 -175t-171 -169q-70 -63 -105.5 -100t-61.5 -78q-4 -10 -11.5 -22.5t-15.5 -28.5q-20 -29 -35.5 -42.5t-38.5 -13.5h-305q-16 0 -26.5 12.5t-6.5 28.5 q2 6 4 17.5t9 25.5q33 84 97 151.5t167 151.5q78 59 120 102.5t52 84.5q6 18 6 35q0 45 -36 71.5t-89 26.5q-152 0 -219 -145q-14 -25 -31.5 -37.5t-44.5 -12.5h-266q-16 0 -26.5 10.5t-10.5 28.5zM342 51l51 244q4 23 22.5 38t41.5 15h274q23 0 35 -15.5t8 -37.5l-51 -244 q-4 -23 -23.5 -37t-42.5 -14h-274q-23 0 -34 14.5t-7 36.5z" />
<glyph unicode="@" horiz-adv-x="1732" d="M76 270q0 53 6 111q6 57 31.5 177t42.5 173q55 178 176 326.5t304 237.5t413 89q352 0 505.5 -134t153.5 -376q0 -61 -10 -143q-14 -117 -53 -258q-41 -145 -150 -228t-233 -83q-92 0 -149.5 31.5t-80.5 70.5q-43 -53 -108.5 -88t-184.5 -35q-123 0 -189.5 74t-66.5 207 q0 59 17 137q41 195 150.5 307.5t260.5 112.5q74 0 117 -24.5t68 -69.5l4 26q6 23 24.5 37.5t38.5 14.5h111q23 0 34 -15.5t7 -36.5l-88 -413q-4 -33 -4 -43q0 -88 82 -88q55 0 88.5 38.5t44.5 92.5q37 152 47 223q10 72 10 121q0 176 -112.5 257t-376.5 81 q-252 0 -410 -122t-229 -337q-18 -51 -41 -160.5t-29 -169.5q-4 -49 -4 -74q0 -186 116.5 -284.5t358.5 -98.5q170 0 258 27t170 80q4 2 18.5 11t26.5 13.5t27 4.5h151q23 0 34 -14.5t5 -37.5q-2 -10 -18 -30q-123 -115 -300 -186.5t-417 -71.5q-328 0 -487.5 144 t-159.5 396zM702 477q0 -63 31 -97t90 -34q82 0 131.5 51.5t71.5 161.5q10 57 10 90q0 125 -123 125q-156 0 -200 -215q-10 -51 -11 -82z" />
<glyph unicode="A" horiz-adv-x="1484" d="M-104 39q0 10 6 22l755 1313q35 59 95 60h331q61 0 70 -60l199 -1313q2 -29 -12.5 -45t-36.5 -16h-261q-55 0 -63 49l-33 195h-534l-119 -199q-29 -45 -78 -45h-281q-18 0 -28 11.5t-10 27.5zM561 551h365l-72 522z" />
<glyph unicode="B" horiz-adv-x="1449" d="M20 51l283 1329q4 23 22.5 38.5t41.5 15.5h604q219 0 343 -85t124 -239q0 -35 -11 -86q-23 -102 -89 -172t-140 -102q63 -33 102 -96.5t39 -145.5q0 -23 -8 -72q-45 -213 -189.5 -324.5t-400.5 -111.5h-678q-22 0 -34.5 14.5t-8.5 36.5zM453 276h274q78 0 134.5 47.5 t68.5 112.5q6 25 6 45q0 53 -35 85t-104 32h-275zM578 866h253q86 0 141.5 55.5t55.5 133.5q0 49 -30.5 75.5t-94.5 26.5h-262z" />
<glyph unicode="C" horiz-adv-x="1441" d="M72 422q0 47 10 113q25 147 78 364q68 272 249 413.5t474 141.5q160 0 292 -49t208.5 -142.5t76.5 -222.5q0 -45 -8 -84q-4 -18 -17.5 -30.5t-31.5 -12.5h-295q-29 0 -42 11.5t-15 42.5v7q-1 92 -51 132q-52 41 -148 41q-236 0 -297 -258q-43 -170 -74 -344 q-8 -41 -8 -82q0 -92 47 -134t142 -42q96 0 166.5 41t115.5 139q14 31 30.5 42t45.5 11h295q18 0 28.5 -12t6.5 -31q-59 -236 -245.5 -366.5t-471.5 -130.5q-256 0 -408.5 113.5t-152.5 328.5z" />
<glyph unicode="D" horiz-adv-x="1470" d="M20 51l283 1329q4 23 22.5 38.5t41.5 15.5h503q162 0 291 -53.5t205 -156t76 -245.5q0 -43 -10 -105q-29 -166 -66 -313q-74 -293 -241 -427t-480 -134h-582q-22 0 -34.5 14.5t-8.5 36.5zM459 307h207q127 0 202.5 61.5t108.5 196.5q43 182 65 305q6 41 7 74 q0 92 -54.5 137t-165.5 45h-194z" />
<glyph unicode="E" horiz-adv-x="1312" d="M20 51l283 1329q4 23 22.5 38.5t41.5 15.5h966q23 0 34 -15.5t7 -38.5l-43 -202q-4 -23 -22.5 -37.5t-40.5 -14.5h-647l-58 -260h604q23 0 34 -15t7 -38l-39 -186q-4 -23 -22.5 -38.5t-40.5 -15.5h-604l-56 -266h664q23 0 34 -15.5t7 -37.5l-43 -203q-4 -23 -22.5 -37 t-38.5 -14h-984q-22 0 -34.5 14.5t-8.5 36.5z" />
<glyph unicode="F" horiz-adv-x="1273" d="M20 51l283 1329q4 23 22.5 38.5t41.5 15.5h950q23 0 35 -15.5t8 -38.5l-47 -217q-4 -23 -22.5 -37t-39.5 -14h-626l-62 -285h586q23 0 34 -15t7 -38l-47 -217q-2 -20 -21.5 -35.5t-42.5 -15.5h-583l-99 -455q-4 -23 -21.5 -37t-39.5 -14h-273q-22 0 -34.5 14.5t-8.5 36.5 z" />
<glyph unicode="G" horiz-adv-x="1480" d="M98 410q0 59 13 127q31 168 79 374q63 258 264 400.5t494 142.5q180 0 307 -53t189.5 -140t62.5 -184q0 -37 -4 -53q-2 -18 -18.5 -31.5t-34.5 -13.5h-317q-20 0 -30.5 7t-17.5 22q-12 57 -58 98t-144 41q-236 0 -297 -246q-37 -154 -76 -354q-8 -53 -8 -76 q0 -184 205 -184q117 0 199.5 59.5t107.5 179.5l8 37h-184q-23 0 -34 15.5t-5 37.5l32 160q4 23 22.5 38t41.5 15h522q23 0 34 -15t7 -38l-51 -237q-37 -174 -144.5 -300t-269.5 -192.5t-358 -66.5q-258 0 -397.5 110.5t-139.5 319.5z" />
<glyph unicode="H" horiz-adv-x="1531" d="M20 51l283 1329q4 23 22.5 38.5t41.5 15.5h278q23 0 35 -15.5t8 -38.5l-104 -485h485l105 485q4 23 21 38.5t40 15.5h281q23 0 34 -15.5t6 -38.5l-282 -1329q-4 -23 -22.5 -37t-39.5 -14h-280q-23 0 -35 15.5t-8 35.5l108 502h-485l-106 -502q-4 -23 -22.5 -37t-41.5 -14 h-279q-22 0 -34.5 14.5t-8.5 36.5z" />
<glyph unicode="I" horiz-adv-x="673" d="M20 51l285 1331q4 23 21.5 37.5t40.5 14.5h290q20 0 34 -14.5t9 -37.5l-284 -1331q-4 -23 -22.5 -37t-39.5 -14h-293q-22 0 -33.5 15.5t-7.5 35.5z" />
<glyph unicode="J" horiz-adv-x="1372" d="M-2 383q0 33 6 70q4 18 18.5 31.5t32.5 13.5h295q29 0 41 -13.5t17 -44.5q2 -80 41.5 -116.5t125.5 -36.5q205 0 259 252l122 577h-657q-23 0 -34 15.5t-7 35.5l47 215q4 23 22.5 37.5t39.5 14.5h1001q23 0 35 -15.5t8 -38.5l-182 -854q-57 -274 -223 -410t-459 -136 q-135 0 -261 47t-207 138t-81 218z" />
<glyph unicode="K" horiz-adv-x="1355" d="M20 51l283 1329q4 23 21.5 38.5t40.5 15.5h274q23 0 35 -15.5t8 -38.5l-94 -440l438 453q33 41 88 41h322q18 0 27.5 -11.5t9.5 -27.5t-13 -29l-616 -647l375 -651q6 -12 6 -21q0 -18 -16.5 -32.5t-34.5 -14.5h-304q-53 0 -73 41l-293 506l-107 -496q-4 -23 -21.5 -37 t-37.5 -14h-275q-22 0 -34.5 14.5t-8.5 36.5z" />
<glyph unicode="L" d="M20 51l285 1331q4 23 21.5 37.5t40.5 14.5h284q23 0 35 -14.5t8 -37.5l-227 -1060h614q23 0 35 -15.5t6 -38.5l-45 -217q-4 -23 -22.5 -37t-40.5 -14h-951q-22 0 -34.5 14.5t-8.5 36.5z" />
<glyph unicode="M" horiz-adv-x="1701" d="M20 51l283 1329q4 23 22.5 38.5t41.5 15.5h233q29 0 43 -13.5t23 -31.5l219 -631l487 631q10 16 30.5 30.5t49.5 14.5h234q23 0 35 -15.5t8 -38.5l-285 -1329q-4 -23 -21.5 -37t-40.5 -14h-260q-23 0 -35 15.5t-8 35.5l156 733l-299 -393q-39 -47 -82 -47h-111 q-43 0 -59 47l-139 412l-160 -752q-4 -23 -22.5 -37t-38.5 -14h-261q-22 0 -34.5 14.5t-8.5 36.5z" />
<glyph unicode="N" horiz-adv-x="1478" d="M20 51l283 1329q4 23 21.5 38.5t40.5 15.5h229q51 0 63 -39l322 -768l162 753q4 23 21.5 38.5t39.5 15.5h260q23 0 34 -15.5t7 -38.5l-282 -1327q-4 -23 -21.5 -38t-40.5 -15h-229q-29 0 -41 11.5t-23 27.5l-325 737l-156 -725q-4 -23 -22.5 -37t-38.5 -14h-261 q-22 0 -34.5 14.5t-8.5 36.5z" />
<glyph unicode="O" horiz-adv-x="1464" d="M72 428q0 43 10 109q35 199 76 354q70 279 247 421t476 142q158 0 284.5 -53t200.5 -156.5t74 -249.5q0 -43 -10 -104q-29 -166 -76 -354q-70 -281 -247 -419t-476 -138q-160 0 -286 51t-199.5 151.5t-73.5 245.5zM473 465q0 -178 189 -178q110 0 187 64.5t109 197.5 q45 186 72 336q8 41 8 84q0 178 -186 178q-111 0 -187.5 -64.5t-109.5 -197.5q-35 -129 -74 -336q-8 -41 -8 -84z" />
<glyph unicode="P" horiz-adv-x="1392" d="M20 51l283 1329q4 23 22.5 38.5t41.5 15.5h548q229 0 369.5 -94.5t140.5 -274.5q0 -51 -12 -107q-51 -238 -207.5 -351t-427.5 -113h-266l-94 -443q-4 -23 -21.5 -37t-40.5 -14h-293q-22 0 -34.5 14.5t-8.5 36.5zM567 786h226q82 0 143 44t80 131q8 45 8 61 q0 117 -147 117h-234z" />
<glyph unicode="Q" horiz-adv-x="1464" d="M96 406q0 61 13 131q29 156 75 354q66 270 267.5 416.5t488.5 146.5q250 0 389 -112.5t139 -323.5q0 -59 -12 -127q-35 -201 -76 -354q-63 -252 -229 -392l104 -215q4 -10 2 -20q-2 -16 -17 -29.5t-34 -13.5h-282q-29 0 -41.5 12t-26.5 35l-49 90q-79 -24 -172 -24h-8 q-254 0 -392.5 107.5t-138.5 318.5zM502 471q0 -94 50 -139t140 -45q109 0 185.5 64.5t109.5 197.5q47 195 70 336q8 57 8 78q0 94 -50 139t-141 45q-106 0 -183 -64.5t-111 -197.5q-45 -197 -70 -336q-8 -57 -8 -78z" />
<glyph unicode="R" horiz-adv-x="1423" d="M51 51l281 1329q4 23 22.5 38.5t40.5 15.5h563q233 0 360.5 -92.5t127.5 -264.5q0 -53 -12 -112q-29 -143 -117 -243.5t-217 -156.5l170 -499q4 -14 2 -23q-4 -18 -19.5 -30.5t-33.5 -12.5h-289q-57 0 -72 55l-131 445h-197l-96 -449q-4 -23 -22.5 -37t-40.5 -14h-281 q-20 0 -31.5 14.5t-7.5 36.5zM594 801h227q88 0 143.5 44t71.5 122q4 16 4 47q0 57 -36.5 91t-110.5 34h-227z" />
<glyph unicode="S" horiz-adv-x="1363" d="M6 344q0 16 4 49q2 18 17.5 30.5t33.5 12.5h275q27 0 40 -8t27 -29q16 -49 66.5 -80.5t138.5 -31.5q111 0 179.5 33.5t82.5 93.5q2 8 2 22q0 51 -63.5 80t-228.5 66q-408 84 -408 360q0 49 12 100q41 193 206 302.5t425 109.5q156 0 279 -55.5t191.5 -140t68.5 -171.5 q0 -10 -4 -34q-4 -18 -16.5 -31.5t-30.5 -13.5h-291q-45 0 -62 36q-4 43 -48 73t-116 30q-88 0 -142 -31t-69 -90q-2 -8 -2 -22q0 -49 56.5 -79t201.5 -61q231 -43 338 -129t107 -227q0 -57 -10 -100q-45 -211 -220.5 -319.5t-467.5 -108.5q-183 0 -312 49t-194.5 132 t-65.5 183z" />
<glyph unicode="T" horiz-adv-x="1294" d="M154 1151l49 229q4 23 22.5 38.5t40.5 15.5h1112q23 0 35 -15.5t8 -38.5l-51 -229q-4 -23 -21.5 -37t-39.5 -14h-361l-225 -1049q-4 -23 -21.5 -37t-39.5 -14h-285q-23 0 -35 14.5t-8 36.5l223 1049h-360q-23 0 -35 14t-8 37z" />
<glyph unicode="U" horiz-adv-x="1488" d="M96 406q0 61 17 139l178 835q4 23 21.5 38.5t39.5 15.5h281q23 0 34 -15.5t7 -38.5l-178 -831q-10 -55 -11 -90q0 -84 45 -124t142 -40q238 0 293 254l178 831q4 23 21.5 38.5t39.5 15.5h281q23 0 34 -15.5t7 -38.5l-176 -835q-63 -293 -234.5 -429t-474.5 -136 q-244 0 -394.5 107.5t-150.5 318.5z" />
<glyph unicode="V" horiz-adv-x="1427" d="M209 1378q-2 25 12.5 40.5t36.5 15.5h260q31 0 47.5 -16.5t18.5 -39.5l82 -925l475 925q10 23 32.5 39.5t53.5 16.5h289q16 0 25 -10.5t9 -26.5q0 -12 -6 -25l-692 -1311q-37 -61 -98 -61h-336q-35 0 -53.5 18.5t-18.5 42.5z" />
<glyph unicode="W" horiz-adv-x="1697" d="M174 68l45 1318q2 18 17.5 33t35.5 15h260q54 0 54 -44v-8l-35 -761l233 440q29 55 78 55h154q51 0 57 -55l49 -447l291 772q8 27 25.5 37.5t48.5 10.5h276q16 0 25.5 -9.5t9.5 -23.5q0 -6 -4 -19l-481 -1314q-12 -29 -38 -48.5t-58 -19.5h-211q-33 0 -48.5 16.5 t-17.5 36.5l-102 568l-301 -568q-29 -53 -88 -53h-207q-33 0 -51.5 19.5t-16.5 48.5z" />
<glyph unicode="X" horiz-adv-x="1423" d="M-98 39q0 16 12 29l612 671l-313 629q-4 6 -4 21q0 18 13.5 31.5t37.5 13.5h281q51 0 69 -45l185 -371l327 371q16 20 35 32.5t51 12.5h310q18 0 28 -11.5t10 -25.5q0 -18 -12 -31l-583 -678l313 -622q4 -12 4 -19q0 -18 -14.5 -32.5t-38.5 -14.5h-279q-31 0 -45 12.5 t-24 28.5l-183 362l-334 -362q-33 -41 -84 -41h-335q-17 0 -28 11.5t-11 27.5z" />
<glyph unicode="Y" horiz-adv-x="1396" d="M193 1384q0 20 15 35t38 15h254q29 0 44 -14.5t19 -30.5l174 -512l391 512q10 16 32 30.5t50 14.5h291q18 0 27.5 -9.5t9.5 -23.5q0 -16 -12 -33l-662 -881l-92 -436q-4 -23 -22.5 -37t-40.5 -14h-279q-22 0 -34.5 15.5t-8.5 35.5l92 436l-284 881q-2 6 -2 16z" />
<glyph unicode="Z" horiz-adv-x="1337" d="M-43 53l45 209q8 43 45 74l799 780h-592q-23 0 -34 15.5t-7 35.5l47 213q4 23 21.5 38.5t40.5 15.5h1042q23 0 35 -15.5t8 -38.5l-45 -206q-6 -33 -43 -70l-778 -782h612q23 0 34 -15.5t7 -38.5l-47 -217q-4 -23 -21.5 -37t-40.5 -14h-1087q-23 0 -34 15.5t-7 37.5z" />
<glyph unicode="[" horiz-adv-x="794" d="M-66 -274l388 1812q4 23 21 37t40 14h516q23 0 35 -14t8 -37l-41 -186q-4 -23 -22.5 -37.5t-38.5 -14.5h-240l-278 -1312h237q23 0 35 -14.5t8 -36.5l-47 -211q-4 -23 -21.5 -37.5t-39.5 -14.5h-517q-22 0 -34.5 14.5t-8.5 37.5z" />
<glyph unicode="\" horiz-adv-x="1083" d="M250 1552q-4 23 9 40.5t40 17.5h174q55 0 68 -56l340 -1669q4 -23 -10.5 -40t-39.5 -17h-169q-58 0 -70 55z" />
<glyph unicode="]" horiz-adv-x="792" d="M-137 -274l45 211q4 23 22.5 37t38.5 14h240l280 1312h-239q-23 0 -34 15.5t-7 36.5l39 186q4 23 22.5 37t38.5 14h518q23 0 34 -15t7 -36l-385 -1812q-4 -23 -22.5 -37.5t-38.5 -14.5h-518q-20 0 -32.5 14.5t-8.5 37.5z" />
<glyph unicode="^" horiz-adv-x="956" d="M256 1235q2 14 23 31l260 225q25 20 41 27.5t38 7.5h170q20 0 35 -7.5t31 -27.5l164 -225q8 -16 8 -25q0 -37 -37 -37h-102q-45 0 -70 15l-158 98l-202 -98q-29 -14 -74 -15h-102q-31 0 -25 31z" />
<glyph unicode="_" horiz-adv-x="1499" d="M-55 -100l43 202q4 23 22.5 37.5t40.5 14.5h1219q23 0 34 -15.5t7 -36.5l-45 -202q-4 -23 -21.5 -38.5t-40.5 -15.5h-1218q-23 0 -34 15.5t-7 38.5z" />
<glyph unicode="`" horiz-adv-x="616" d="M63 1491q0 20 13.5 34.5t32.5 14.5h297q27 0 40 -7t27 -32l135 -221q6 -8 6 -20q0 -18 -10 -29.5t-29 -11.5h-208q-25 0 -40.5 7t-31.5 23l-225 224q-6 10 -7 18z" />
<glyph unicode="a" horiz-adv-x="1290" d="M39 338q0 70 10 123l31 145q59 227 192.5 353t339.5 126q115 0 180.5 -31.5t108.5 -90.5l12 51q4 23 21.5 37t40.5 14h242q23 0 35 -15.5t8 -35.5l-205 -963q-4 -23 -22.5 -37t-39.5 -14h-243q-23 0 -35.5 15.5t-7.5 35.5l14 64q-72 -68 -143.5 -101.5t-180.5 -33.5 q-172 0 -265 93t-93 265zM422 399q0 -66 28.5 -100.5t98.5 -34.5q90 0 146.5 56.5t78.5 142.5q23 86 33 153q4 33 4 48q0 63 -33 100t-104 37q-88 0 -139.5 -54.5t-79.5 -150.5q-20 -70 -27 -127q-6 -37 -6 -70z" />
<glyph unicode="b" horiz-adv-x="1296" d="M0 51l287 1352q4 23 22.5 37t40.5 14h264q23 0 34 -15.5t7 -35.5l-92 -436q66 57 136.5 87.5t164.5 30.5q172 0 268.5 -97t96.5 -267q0 -45 -10 -111q-18 -96 -33 -153q-59 -231 -191.5 -354t-330.5 -123q-109 0 -187 36.5t-117 98.5l-12 -64q-4 -23 -22.5 -37t-40.5 -14 h-244q-23 0 -34 15.5t-7 35.5zM451 403q0 -139 139 -139q88 0 140 54.5t83 150.5q20 70 27 127q4 45 4 66q0 68 -30 103.5t-101 35.5q-88 0 -146.5 -52.5t-79.5 -132.5q-23 -86 -30 -153q-6 -31 -6 -60z" />
<glyph unicode="c" horiz-adv-x="1212" d="M37 367q0 39 6 82l35 165q59 225 219 348t397 123q164 0 272.5 -58t159 -141t50.5 -155l-2 -22q-2 -20 -19.5 -36t-40.5 -16h-278q-41 0 -48 41q-4 59 -34.5 87t-87.5 28q-160 0 -213 -209q-25 -111 -31 -145q-8 -57 -8 -76q0 -68 30.5 -99.5t94.5 -31.5q59 0 102 26.5 t76 83.5q12 23 26.5 33.5t36.5 10.5h279q23 0 34 -15.5t5 -38.5q-20 -70 -88 -155.5t-198 -151t-318 -65.5q-132 0 -235 46t-162.5 133t-59.5 208z" />
<glyph unicode="d" horiz-adv-x="1298" d="M37 344q0 49 10 117q14 74 33 145q57 225 190 352t330 127q100 0 174 -31.5t115 -86.5l92 436q4 23 22.5 37t38.5 14h265q23 0 35 -15.5t8 -35.5l-289 -1352q-4 -23 -22.5 -37t-39.5 -14h-243q-23 0 -35 15.5t-8 35.5l14 64q-70 -68 -144.5 -101.5t-181.5 -33.5 q-174 0 -269 94t-95 270zM422 403q0 -66 29.5 -102.5t101.5 -36.5q90 0 147.5 56.5t79.5 142.5q23 86 33 153q4 33 4 48q0 61 -34.5 99t-106.5 38q-88 0 -140.5 -54.5t-80.5 -150.5q-20 -70 -27 -127q-6 -33 -6 -66z" />
<glyph unicode="e" d="M68 365q0 70 14 139l14 63q59 244 232.5 381t416.5 137q219 0 330 -107.5t111 -291.5q0 -66 -17 -147l-10 -52q-6 -23 -24.5 -38t-40.5 -15h-650l-2 -12q-6 -33 -6 -66q0 -63 31 -101t92 -38q49 0 83 19.5t67 50.5q23 20 36 25t35 5h271q18 0 28.5 -12t5.5 -31 q-14 -55 -89.5 -124.5t-201.5 -119.5t-282 -50q-213 0 -328.5 97t-115.5 288zM489 643h326l2 4q8 33 8 70q0 66 -33.5 101.5t-95.5 35.5q-78 0 -132 -55.5t-75 -151.5v-4z" />
<glyph unicode="f" horiz-adv-x="913" d="M82 838l37 176q4 23 22.5 37t40.5 14h154l14 61q45 207 172 298.5t338 91.5h193q23 0 34 -14.5t7 -37.5l-37 -176q-4 -23 -22.5 -37t-41.5 -14h-141q-125 0 -150 -121l-12 -51h246q23 0 34 -14.5t7 -36.5l-37 -176q-4 -23 -22.5 -37.5t-38.5 -14.5h-246l-158 -735 q-4 -23 -22.5 -37t-38.5 -14h-250q-23 0 -35 14.5t-8 36.5l158 735h-156q-23 0 -34 15.5t-7 36.5z" />
<glyph unicode="g" horiz-adv-x="1302" d="M-53 -106q2 23 20.5 38t40.5 15h279q20 0 30.5 -9.5t14.5 -31.5q8 -43 35.5 -69.5t97.5 -26.5q176 0 217 190l29 137q-66 -55 -135.5 -83.5t-165.5 -28.5q-180 0 -272.5 89t-92.5 261q0 47 10 123q6 45 23 108q61 229 190 354t332 125q104 0 183 -40.5t116 -106.5l16 74 q4 23 22.5 38t41.5 15h250q23 0 34 -15.5t7 -37.5l-207 -981q-51 -242 -203.5 -362t-421.5 -120q-186 0 -298.5 62.5t-156.5 144.5q-37 69 -37 120q0 9 1 18zM428 436q0 -66 29.5 -100.5t101.5 -34.5q86 0 144.5 54.5t80.5 133.5q16 59 27 123q4 33 4 47q0 63 -33.5 102.5 t-107.5 39.5q-166 0 -221 -205q-16 -51 -19 -90q-6 -37 -6 -70z" />
<glyph unicode="h" horiz-adv-x="1339" d="M0 51l287 1352q4 23 22.5 37t38.5 14h279q23 0 35 -15.5t8 -35.5l-99 -457q70 68 150 103.5t180 35.5q160 0 255 -86t95 -247q0 -63 -14 -129l-123 -572q-4 -23 -22.5 -37t-38.5 -14h-279q-23 0 -35 14.5t-8 36.5l119 559q8 33 8 66q0 125 -133 125q-82 0 -143.5 -50.5 t-81.5 -140.5l-119 -559q-4 -23 -22.5 -37t-39.5 -14h-278q-23 0 -34 15.5t-7 35.5z" />
<glyph unicode="i" horiz-adv-x="593" d="M0 51l203 963q4 20 22.5 35.5t40.5 15.5h256q23 0 34 -14.5t7 -36.5l-205 -963q-4 -23 -21.5 -37t-39.5 -14h-256q-23 0 -34 15.5t-7 35.5zM256 1266l41 190q4 23 23.5 38t39.5 15h256q23 0 35.5 -15t7.5 -38l-43 -190q-2 -23 -20 -38.5t-41 -15.5h-256q-23 0 -35 15.5 t-8 38.5z" />
<glyph unicode="j" horiz-adv-x="630" d="M-311 -338l37 176q4 23 22.5 37t38.5 14h84q117 0 147 144l207 981q4 20 22.5 35.5t41.5 15.5h268q23 0 34 -14.5t7 -36.5l-209 -989q-88 -414 -522 -414h-139q-21 0 -32 14.5t-7 36.5zM279 1266l40 190q4 23 23.5 38t40.5 15h268q23 0 35 -15t8 -38l-43 -190 q-2 -23 -20.5 -38.5t-40.5 -15.5h-268q-23 0 -35.5 15.5t-7.5 38.5z" />
<glyph unicode="k" d="M0 51l287 1352q4 23 22.5 37t38.5 14h252q23 0 34 -15.5t7 -35.5l-143 -680l329 307q25 18 39.5 26.5t38.5 8.5h307q18 0 28.5 -9t10.5 -24q0 -25 -24 -47l-445 -422l291 -489q8 -10 8 -27q0 -18 -14 -32.5t-39 -14.5h-285q-41 0 -61 33l-246 413l-82 -395 q-4 -23 -22.5 -37t-38.5 -14h-252q-23 0 -34 15.5t-7 35.5z" />
<glyph unicode="l" horiz-adv-x="595" d="M0 51l287 1352q4 23 22.5 37t38.5 14h256q23 0 35 -14.5t8 -36.5l-289 -1352q-4 -23 -21.5 -37t-39.5 -14h-256q-23 0 -34 15.5t-7 35.5z" />
<glyph unicode="m" horiz-adv-x="1880" d="M0 51l203 963q4 20 22.5 35.5t40.5 15.5h238q23 0 34 -15.5t7 -35.5l-15 -70q66 66 135.5 103.5t174.5 37.5q119 0 192.5 -46t102.5 -130q70 84 152.5 130t189.5 46q145 0 232 -78.5t87 -234.5q0 -57 -16 -139l-123 -582q-4 -23 -22.5 -37t-39.5 -14h-252q-23 0 -35 14.5 t-8 36.5l121 567q8 35 9 70q0 113 -111 113q-63 0 -116.5 -45t-72.5 -138l-120 -567q-4 -23 -22.5 -37t-39.5 -14h-252q-23 0 -35 14.5t-8 36.5l121 567q8 33 8 68q0 115 -110 115q-63 0 -116.5 -44t-74.5 -136l-121 -570q-4 -23 -22.5 -37t-38.5 -14h-258q-23 0 -34 15.5 t-7 35.5z" />
<glyph unicode="n" horiz-adv-x="1323" d="M0 51l203 963q4 20 22.5 35.5t40.5 15.5h252q20 0 31.5 -14.5t7.5 -36.5l-16 -78q153 149 351 149h3q162 0 252 -82.5t90 -240.5q0 -57 -16 -139l-123 -572q-4 -23 -21.5 -37t-40.5 -14h-272q-23 0 -34 15.5t-7 35.5l117 559q10 47 10 76q0 57 -32 86t-99 29 q-86 0 -146.5 -50.5t-80.5 -140.5l-117 -559q-4 -23 -22.5 -37t-39.5 -14h-272q-23 0 -34 15.5t-7 35.5z" />
<glyph unicode="o" horiz-adv-x="1255" d="M39 354q0 43 6 86q10 92 39 185q59 223 215 341.5t412 118.5q219 0 347 -101t128 -282q0 -37 -6 -77q-23 -113 -41 -185q-61 -225 -213 -342.5t-416 -117.5q-223 0 -347 99t-124 275zM414 371q0 -68 30.5 -100.5t98.5 -32.5q86 0 140 52t83 161q27 102 35 163q6 43 6 78 q0 68 -31 101.5t-98 33.5q-86 0 -139.5 -53t-79.5 -160q-10 -37 -20.5 -82t-16.5 -81q-8 -61 -8 -80z" />
<glyph unicode="p" horiz-adv-x="1298" d="M-82 -338l287 1352q4 23 22.5 37t38.5 14h244q23 0 34 -14.5t7 -36.5l-14 -74q68 70 144.5 107.5t182.5 37.5q172 0 267.5 -93t95.5 -265q0 -70 -10 -123q-10 -66 -31 -145q-57 -225 -191.5 -352t-330.5 -127q-102 0 -176 34.5t-107 100.5l-96 -453q-4 -23 -22.5 -37 t-39.5 -14h-264q-22 0 -33.5 14.5t-7.5 36.5zM449 399q0 -61 33.5 -98t107.5 -37q88 0 140 54.5t81 150.5q18 63 29 127q4 45 4 61q0 70 -30 107t-101 37q-90 0 -147.5 -56.5t-80.5 -142.5q-18 -63 -32 -153q-4 -16 -4 -50z" />
<glyph unicode="q" horiz-adv-x="1298" d="M39 344q0 45 10 111q6 37 33 153q59 231 191.5 354t328.5 123q109 0 187.5 -39.5t115.5 -105.5l15 74q4 20 22.5 35.5t40.5 15.5h244q23 0 34 -15.5t7 -35.5l-287 -1352q-4 -20 -22.5 -35.5t-40.5 -15.5h-265q-22 0 -33.5 15.5t-7.5 35.5l97 453q-63 -68 -136 -101.5 t-170 -33.5q-172 0 -268 97t-96 267zM424 401q0 -66 28.5 -101.5t102.5 -35.5q88 0 145.5 52.5t79.5 132.5q14 51 33 153q4 37 4 55q0 143 -139 144q-162 0 -221 -205q-18 -63 -29 -127q-4 -49 -4 -68z" />
<glyph unicode="r" horiz-adv-x="948" d="M0 51l203 961q4 23 22.5 38t40.5 15h250q23 0 34 -15.5t7 -37.5l-16 -78q53 63 126.5 97t180.5 34h119q20 0 31.5 -14.5t7.5 -36.5l-48 -223q-2 -20 -20 -36t-41 -16h-207q-82 0 -135 -45t-70 -127l-110 -516q-4 -23 -22.5 -37t-41.5 -14h-270q-23 0 -34 15.5t-7 35.5z " />
<glyph unicode="s" horiz-adv-x="1140" d="M14 236l2 18q2 23 20.5 37t37.5 14h248q14 0 18 -8q14 -8 39 -29q33 -29 61.5 -43t75.5 -14q55 0 95 21.5t48 60.5q2 8 3 22q0 37 -48.5 60.5t-181.5 50.5q-293 61 -293 258q0 37 8 70q18 84 88 160.5t186 123.5t263 47q139 0 235.5 -39.5t144.5 -99t48 -115.5l-2 -16 q-2 -20 -19.5 -35.5t-35.5 -15.5h-226q-18 0 -26 8q-23 10 -45 31q-29 25 -55.5 38t-67.5 13q-57 0 -92 -29.5t-35 -72.5q0 -33 47 -56.5t180 -48.5q168 -31 244 -101.5t76 -168.5q0 -31 -6 -62q-33 -154 -188.5 -244.5t-401.5 -90.5q-156 0 -256.5 40.5t-144.5 100 t-44 115.5z" />
<glyph unicode="t" horiz-adv-x="962" d="M72 838l34 176q4 20 22.5 35.5t41.5 15.5h162l71 338q4 23 22.5 37t39.5 14h252q23 0 34 -15.5t7 -35.5l-72 -338h256q23 0 34 -14.5t7 -36.5l-37 -176q-4 -23 -22.5 -37.5t-38.5 -14.5h-258l-74 -348q-8 -35 -8 -69q0 -39 19.5 -57.5t66.5 -18.5h166q23 0 34 -15.5 t7 -37.5l-41 -189q-4 -23 -22.5 -37t-39.5 -14h-174q-383 0 -383 287q0 57 15 121l79 378h-159q-23 0 -35 15.5t-6 36.5z" />
<glyph unicode="u" horiz-adv-x="1318" d="M55 305q0 59 17 137l121 572q4 23 22 37t41 14h272q20 0 31.5 -14.5t7.5 -36.5l-116 -559q-10 -47 -11 -76q0 -57 32 -86t99 -29q84 0 143.5 50.5t80.5 140.5l118 559q4 20 22.5 35.5t41.5 15.5h270q23 0 34 -14.5t7 -36.5l-205 -963q-4 -23 -21.5 -37t-39.5 -14h-250 q-23 0 -35 15.5t-8 35.5l16 78q-72 -78 -149.5 -113.5t-200.5 -35.5q-157 0 -248.5 83.5t-91.5 241.5z" />
<glyph unicode="v" horiz-adv-x="1226" d="M125 1006q-4 27 9 43t44 16h230q27 0 38 -12.5t17 -34.5l92 -608l356 612q25 43 68 43h262q18 0 28.5 -9t10.5 -26q0 -12 -10 -29l-588 -950q-16 -25 -33.5 -38t-46.5 -13h-233q-29 0 -40.5 13.5t-17.5 37.5z" />
<glyph unicode="w" horiz-adv-x="1726" d="M131 1006q-2 23 15.5 41t41.5 18h215q25 0 38.5 -12.5t15.5 -30.5l49 -567l295 563q10 18 28.5 32.5t44.5 14.5h144q27 0 40 -14.5t15 -32.5l60 -563l286 567q8 16 26.5 29.5t43.5 13.5h240q37 0 36 -35q0 -14 -6 -26l-495 -953q-29 -51 -78 -51h-197q-53 0 -57 51 l-82 545l-299 -545q-25 -51 -78 -51h-190q-52 0 -56 51z" />
<glyph unicode="x" horiz-adv-x="1214" d="M-92 41q0 18 12 33l451 483l-217 436q-4 12 -4 17q0 20 15 37.5t38 17.5h254q39 0 55 -37l129 -248l236 248q31 37 71 37h273q18 0 29.5 -11.5t11.5 -29.5t-15 -33l-426 -461l226 -458q6 -12 6 -25q0 -20 -14.5 -33.5t-39.5 -13.5h-262q-35 0 -53 33l-135 266l-252 -266 q-14 -14 -28.5 -23.5t-39.5 -9.5h-282q-19 0 -29 11.5t-10 29.5z" />
<glyph unicode="y" horiz-adv-x="1247" d="M68 -354q0 14 10 30l250 394l-199 936q-4 25 10.5 42t44.5 17h230q43 0 51 -43l113 -582l362 582q27 43 72 43h258q16 0 26.5 -10.5t10.5 -24.5q0 -16 -9 -26l-868 -1350q-10 -18 -28.5 -30.5t-43.5 -12.5h-254q-16 0 -26 9t-10 26z" />
<glyph unicode="z" horiz-adv-x="1138" d="M-41 51l37 170q8 37 37 60l573 510h-422q-23 0 -34 15t-7 36l37 172q4 23 22.5 37t41.5 14h831q23 0 34 -14.5t7 -36.5l-37 -185q-8 -31 -37 -53l-557 -502h465q23 0 34 -15t7 -36l-37 -172q-4 -23 -22.5 -37t-38.5 -14h-891q-22 0 -34.5 14.5t-8.5 36.5z" />
<glyph unicode="{" horiz-adv-x="882" d="M41 569q0 16 2 25l16 78q8 31 24.5 50t49.5 34l31 12q125 55 160 229q41 193 141 325t241.5 198.5t305.5 68.5h12q20 0 29.5 -13t5.5 -32l-41 -196q-2 -18 -17.5 -30.5t-31.5 -14.5h-8q-131 -10 -205 -87t-111 -247q-25 -127 -86 -216t-135 -120q43 -23 67.5 -80 t24.5 -137q0 -57 -12 -119q-16 -72 -17 -139q0 -94 45.5 -140.5t141.5 -54.5h10q16 -2 25.5 -14t5.5 -31l-43 -197q-2 -20 -18.5 -32.5t-35.5 -12.5h-10q-211 2 -334.5 110t-123.5 314q0 76 18 168q10 55 10 88q0 102 -72 144l-24 10q-23 12 -32 25.5t-9 33.5z" />
<glyph unicode="|" horiz-adv-x="546" d="M-84 -375l459 2159q4 23 22.5 37t40.5 14h195q20 0 31.5 -14.5t7.5 -36.5l-457 -2159q-4 -20 -22.5 -35.5t-40.5 -15.5h-195q-23 0 -34 14.5t-7 36.5z" />
<glyph unicode="}" horiz-adv-x="882" d="M-111 -279l43 197q4 18 19.5 30.5t32.5 14.5h6q131 10 204.5 87t110.5 247q27 127 88.5 216t134.5 120q-43 23 -68.5 81t-25.5 138q0 53 12 115q18 84 19 141q0 94 -46 139t-143 53l-8 3q-16 2 -25.5 14t-6.5 31l40 196q4 18 20.5 31.5t35.5 13.5h10q211 -2 335 -108.5 t124 -313.5q0 -78 -19 -170q-10 -51 -10 -86q0 -104 74 -145l22 -12q41 -23 41 -62q0 -12 -2 -20l-16 -80q-6 -29 -23.5 -47.5t-50.5 -34.5l-29 -12q-123 -53 -161 -230q-61 -287 -249 -437t-439 -155h-13q-18 0 -28.5 12.5t-8.5 32.5z" />
<glyph unicode="~" horiz-adv-x="1134" d="M123 465q0 6 4 31l35 161q12 59 86 103.5t170 44.5q66 0 116 -11.5t107 -31.5q10 -2 49 -14.5t78 -18.5t78 -6q47 0 83 16.5t75 40.5q4 2 15 8.5t23 6.5q18 0 25.5 -8.5t7.5 -24.5q0 -4 -4 -29l-35 -164q-12 -59 -85.5 -102t-170.5 -43q-63 0 -111 10t-112 31 q-55 18 -101 28.5t-106 10.5q-70 0 -155 -55q-20 -14 -39 -17q-33 0 -33 33z" />
<glyph unicode="&#xa2;" horiz-adv-x="1234" d="M43 362q0 25 8 87l35 165q49 188 168 306t297 151l27 127q6 23 24.5 37t38.5 14h215q23 0 35 -15t6 -36l-29 -135q106 -27 177 -83t105 -122.5t34 -124.5q0 -16 -2 -24q-2 -20 -19.5 -36t-40.5 -16h-278q-41 0 -47 41q-4 59 -35 87t-88 28q-160 0 -213 -209 q-25 -111 -31 -145q-8 -57 -8 -76q0 -68 30.5 -99.5t94.5 -31.5q59 0 102 26.5t76 83.5q12 23 26.5 33.5t36.5 10.5h279q23 0 34 -15.5t5 -38.5q-16 -59 -70.5 -134t-155 -139.5t-243.5 -86.5l-27 -146q-4 -23 -22.5 -37t-40.5 -14h-215q-23 0 -34 15.5t-7 35.5l31 160 q-129 39 -204 130t-75 226z" />
<glyph unicode="&#xa3;" horiz-adv-x="1484" d="M-6 37q33 129 111.5 221t191.5 135q10 53 14 164h-153q-23 0 -34 14.5t-7 36.5l35 164q4 20 22.5 35.5t40.5 15.5h96q2 37 17 97q55 260 230 398t452 138q231 0 363 -102.5t132 -282.5q0 -41 -10 -98q-2 -18 -18.5 -31.5t-34.5 -13.5h-291q-27 0 -41 12t-18 41 q-4 86 -40 127t-108 41q-170 0 -219 -231q-12 -70 -16 -95h299q23 0 34 -15t7 -36l-35 -164q-4 -20 -22.5 -35.5t-41.5 -15.5h-286q-12 -111 -25 -170q59 -12 131 -53q47 -25 79 -36t75 -11q61 0 105 29.5t81 84.5q20 25 43 25h197q18 0 26 -11.5t4 -27.5 q-29 -125 -102.5 -216t-169.5 -139t-193 -48q-84 0 -145 21.5t-139 60.5q-61 31 -100 45t-85 14q-55 0 -92 -24.5t-63 -73.5q-12 -27 -41 -27h-225q-16 0 -25.5 10t-5.5 27z" />
<glyph unicode="&#xa5;" horiz-adv-x="1423" d="M133 365l35 170q4 23 22.5 37t40.5 14h215l-245 782q-6 8 -2 23q2 18 17 30.5t34 12.5h258q29 0 44 -14.5t19 -30.5l162 -496l375 496q10 16 31.5 30.5t50.5 14.5h287q16 0 27.5 -13.5t6.5 -29.5q-2 -12 -10 -23l-579 -782h217q23 0 34 -15.5t7 -35.5l-35 -170 q-6 -23 -24.5 -37.5t-39.5 -14.5h-262l-57 -262q-4 -23 -21.5 -37t-40.5 -14h-280q-20 0 -33.5 14.5t-9.5 36.5l55 262h-258q-23 0 -35 15.5t-6 36.5z" />
<glyph unicode="&#xa8;" horiz-adv-x="827" d="M63 1286l41 197q4 20 20.5 33.5t37.5 13.5h194q20 0 30.5 -13.5t6.5 -33.5l-41 -197q-4 -20 -20.5 -32.5t-36.5 -12.5h-195q-20 0 -30.5 12.5t-6.5 32.5zM494 1286l43 197q2 20 18 33.5t37 13.5h194q20 0 31.5 -13.5t7.5 -33.5l-43 -197q-4 -20 -19 -32.5t-36 -12.5h-197 q-20 0 -30.5 12.5t-5.5 32.5z" />
<glyph unicode="&#xa9;" horiz-adv-x="1652" d="M98 588q0 74 15 143q43 203 171 368t313 260t392 95q170 0 310.5 -81t221.5 -220t81 -307q0 -74 -15 -144q-43 -203 -171 -367.5t-313 -259.5t-392 -95q-172 0 -311.5 80.5t-220.5 220t-81 307.5zM276 592q0 -127 56.5 -228.5t158 -159t234.5 -57.5q154 0 300 77 t248.5 208t135.5 285q14 59 14 125q0 127 -56 228t-157.5 158.5t-234.5 57.5q-154 0 -300.5 -76.5t-248.5 -208t-135 -284.5q-14 -59 -15 -125zM477 590q0 16 4 53q6 31 15.5 76t17.5 76q39 150 137.5 234.5t261.5 84.5q102 0 175 -33.5t111 -86t38 -107.5q0 -14 -2 -23 q-2 -20 -18.5 -32.5t-36.5 -12.5h-142q-23 0 -31 11.5t-12 31.5q-4 37 -26.5 53.5t-71.5 16.5q-115 0 -156 -144q-23 -94 -28 -139q-4 -33 -4 -51q0 -92 88 -92q49 0 81.5 16.5t55.5 52.5q14 20 26.5 31.5t34.5 11.5h142q20 0 30.5 -12t6.5 -33q-27 -100 -122.5 -174.5 t-271.5 -74.5q-135 0 -219 73.5t-84 192.5z" />
<glyph unicode="&#xab;" horiz-adv-x="1273" d="M92 623l23 102q10 35 43 61l514 412q18 16 39 16q18 0 27.5 -13t4.5 -32l-43 -202q-8 -31 -19 -48.5t-36 -37.5l-254 -207l166 -207q25 -27 25 -55q0 -6 -4 -31l-46 -203q-4 -18 -19 -31.5t-34 -13.5q-17 1 -33 17l-335 411q-20 29 -19 62zM659 623l21 102q8 31 45 61 l512 412q23 16 39 16q18 0 27.5 -13t5.5 -32l-43 -202q-6 -31 -17.5 -48.5t-36.5 -37.5l-254 -207l164 -207q25 -27 25 -55q0 -6 -4 -31l-43 -203q-4 -18 -19.5 -31.5t-33.5 -13.5q-19 1 -33 17l-338 411q-23 29 -17 62z" />
<glyph unicode="&#xad;" horiz-adv-x="972" d="M90 512l43 205q6 23 24.5 37t39.5 14h645q23 0 35 -15.5t6 -35.5l-43 -205q-4 -20 -22.5 -35.5t-41.5 -15.5h-645q-22 0 -33.5 15.5t-7.5 35.5z" />
<glyph unicode="&#xae;" horiz-adv-x="1654" d="M98 588q0 74 15 143q43 203 170 368t312 260t394 95q172 0 311.5 -81t220.5 -220t81 -307q0 -74 -15 -144q-43 -203 -171 -367.5t-313 -259.5t-392 -95q-172 0 -311.5 80.5t-220.5 220t-81 307.5zM276 596q0 -127 56.5 -229.5t158 -161t234.5 -58.5q154 0 300 77 t249.5 208t136.5 285q14 76 14 125q0 127 -56 228t-158.5 158.5t-235.5 57.5q-152 0 -298.5 -76.5t-250.5 -208t-137 -284.5q-12 -61 -13 -121zM479 389l139 660q4 20 19.5 32.5t36.5 12.5h266q117 0 201 -49.5t84 -149.5q0 -23 -6 -51q-16 -78 -62.5 -131.5t-107.5 -79.5 l63 -215q2 -6 2 -19q0 -20 -15.5 -37.5t-39.5 -17.5h-123q-43 0 -51 39l-49 209h-93l-43 -203q-4 -20 -19 -32.5t-36 -12.5h-131q-20 0 -29.5 12.5t-5.5 32.5zM780 766h109q45 0 71.5 21.5t32.5 56.5q2 8 2 22q0 55 -71 56h-111z" />
<glyph unicode="&#xb4;" horiz-adv-x="710" d="M63 1243q0 18 17 35l231 223q27 25 42.5 32t41.5 7h283q16 0 24.5 -10t6.5 -29q-4 -16 -17 -26l-323 -226q-23 -16 -41.5 -23t-42.5 -7h-195q-27 -1 -27 24z" />
<glyph unicode="&#xb8;" horiz-adv-x="518" d="M61 -369q0 14 15 23l43 33q12 10 24 10q8 0 34 -13.5t63 -13.5q35 0 58.5 21.5t23.5 52.5q0 20 -15.5 32.5t-42.5 12.5q-16 0 -45 -7t-41 -7q-18 0 -28 12l-37 49q-6 8 -7 19q0 16 23 51l98 149h144l-113 -155q37 12 70 12q59 0 94 -39t35 -100q0 -25 -6 -49 q-18 -82 -72.5 -128.5t-142.5 -46.5q-68 0 -121.5 27t-53.5 55z" />
<glyph unicode="&#xbb;" horiz-adv-x="1273" d="M51 178l43 203q8 31 19.5 47t36.5 39l253 207l-165 207q-23 29 -23 53q0 8 4 33l43 202q4 18 19.5 31.5t33.5 13.5q16 0 33 -16l336 -412q25 -27 18 -61l-22 -102q-6 -33 -43 -62l-514 -411q-18 -16 -37 -17q-18 0 -28.5 13.5t-6.5 31.5zM616 178l46 203q6 31 17 47 t36 39l254 207l-166 207q-23 29 -23 53q0 8 4 33l43 202q4 18 19.5 31.5t34.5 13.5q16 0 32 -16l336 -412q25 -25 19 -61l-23 -102q-6 -33 -43 -62l-512 -411q-23 -16 -39 -17q-18 0 -28.5 13.5t-6.5 31.5z" />
<glyph unicode="&#x2c6;" horiz-adv-x="835" d="M63 1247q4 16 17 29l266 227q25 20 41 28.5t39 8.5h170q20 0 34.5 -8t31.5 -29l165 -227q10 -12 7 -29q-4 -12 -13.5 -20t-23.5 -8h-92q-41 0 -66 14l-158 98l-198 -98q-31 -14 -70 -14h-125q-29 -1 -25 28z" />
<glyph unicode="&#x2da;" horiz-adv-x="454" d="M61 1352q0 12 5 37q18 80 82.5 131t144.5 51q72 0 116 -40t44 -104q0 -61 -33 -111t-87 -79t-112 -29q-69 0 -114.5 40t-45.5 104zM195 1374q0 -20 13 -33.5t34 -13.5q30 0 55 22.5t25 53.5q0 20 -13.5 33.5t-36.5 13.5q-31 0 -54 -22.5t-23 -53.5z" />
<glyph unicode="&#x2dc;" horiz-adv-x="831" d="M63 1253q10 53 43 115t91.5 106t140.5 44q41 0 69.5 -10.5t67.5 -30.5q29 -16 46.5 -23.5t39.5 -7.5q20 0 32.5 8t31.5 27q25 29 47 28h127q16 0 24 -11t6 -25q-18 -92 -87.5 -178.5t-186.5 -86.5q-41 0 -69.5 10.5t-67.5 30.5q-25 16 -43.5 23.5t-40.5 7.5 q-20 0 -33.5 -8t-30.5 -25q-14 -14 -24 -21t-25 -7h-129q-14 0 -23.5 10t-5.5 24z" />
<glyph unicode="&#x400;" horiz-adv-x="1312" d="M20 51l283 1329q4 23 22.5 38.5t41.5 15.5h966q23 0 34 -15.5t7 -38.5l-43 -202q-4 -23 -22.5 -37.5t-40.5 -14.5h-647l-58 -260h604q23 0 34 -15t7 -38l-39 -186q-4 -23 -22.5 -38.5t-40.5 -15.5h-604l-56 -266h664q23 0 34 -15.5t7 -37.5l-43 -203q-4 -23 -22.5 -37 t-38.5 -14h-984q-22 0 -34.5 14.5t-8.5 36.5zM479 1808q0 20 13.5 35t33.5 15h285q27 0 40 -7.5t28 -31.5l137 -224q4 -8 4 -18q0 -18 -11.5 -29.5t-27.5 -11.5h-199q-24 0 -39.5 7t-31.5 24l-226 223q-6 10 -6 18z" />
<glyph unicode="&#x401;" horiz-adv-x="1312" d="M20 51l283 1329q4 23 22.5 38.5t41.5 15.5h966q23 0 34 -15.5t7 -38.5l-43 -202q-4 -23 -22.5 -37.5t-40.5 -14.5h-647l-58 -260h604q23 0 34 -15t7 -38l-39 -186q-4 -23 -22.5 -38.5t-40.5 -15.5h-604l-56 -266h664q23 0 34 -15.5t7 -37.5l-43 -203q-4 -23 -22.5 -37 t-38.5 -14h-984q-22 0 -34.5 14.5t-8.5 36.5zM539 1655l41 197q4 20 20.5 33.5t36.5 13.5h195q20 0 30.5 -13.5t6.5 -33.5l-41 -197q-4 -20 -20.5 -32.5t-36.5 -12.5h-195q-21 0 -31 12.5t-6 32.5zM969 1655l43 197q2 20 18.5 33.5t36.5 13.5h195q20 0 31.5 -13.5t7.5 -33.5 l-43 -197q-4 -20 -19.5 -32.5t-35.5 -12.5h-197q-20 0 -30.5 12.5t-6.5 32.5z" />
<glyph unicode="&#x402;" horiz-adv-x="1605" d="M162 1198l41 188q2 20 18.5 34t36.5 14h1075q20 0 31.5 -13.5t7.5 -34.5l-41 -188q-2 -20 -18.5 -33.5t-36.5 -13.5h-438l-56 -258q51 39 144.5 61.5t181.5 22.5q205 0 306.5 -80t101.5 -242q0 -66 -19 -149l-12 -60q-47 -219 -220 -332.5t-456 -113.5h-31 q-20 0 -33.5 14.5t-9.5 36.5l41 185q2 20 20.5 35.5t41.5 15.5h30q109 0 163 43t69 119l6 26q4 33 4 43q0 57 -38 83t-120 26q-227 0 -254 -125l-96 -451q-4 -23 -21.5 -37t-39.5 -14h-279q-22 0 -34.5 14.5t-8.5 36.5l234 1100h-254q-20 0 -30.5 13.5t-6.5 33.5z" />
<glyph unicode="&#x403;" horiz-adv-x="1167" d="M-2 51l283 1329q4 23 21 38.5t40 15.5h893q23 0 34 -15.5t9 -38.5l-47 -215q-4 -23 -22.5 -38t-41.5 -15h-559l-227 -1061q-4 -23 -21.5 -37t-40.5 -14h-280q-23 0 -34 15.5t-7 35.5zM667 1567q4 16 17 26l233 226q27 25 42.5 32t41.5 7h299q16 0 24.5 -10.5t6.5 -26.5 q-4 -18 -16 -29l-324 -225q-23 -16 -41 -23.5t-43 -7.5h-211q-14 0 -22.5 8t-6.5 23z" />
<glyph unicode="&#x404;" horiz-adv-x="1402" d="M70 414q0 53 14 145l68 315q74 289 273.5 434.5t483.5 145.5q238 0 378 -93t140 -267q0 -27 -2 -41q-2 -18 -18 -30.5t-35 -12.5h-285q-23 0 -33 7t-16 27q-6 43 -54 73t-134 30q-244 0 -297 -260l-6 -29h389q23 0 34 -16.5t7 -38.5l-39 -174q-4 -23 -22.5 -39.5 t-41.5 -16.5h-389l-6 -30q-8 -39 -8 -78q0 -88 50 -134t147 -46q166 0 237 100q18 23 31.5 30t36.5 7h282q18 0 28.5 -12.5t6.5 -30.5q-63 -193 -254.5 -296t-441.5 -103t-387 106.5t-137 327.5z" />
<glyph unicode="&#x405;" horiz-adv-x="1363" d="M6 344q0 16 4 49q2 18 17.5 30.5t33.5 12.5h275q27 0 40 -8t27 -29q16 -49 66.5 -80.5t138.5 -31.5q111 0 179.5 33.5t82.5 93.5q2 8 2 22q0 51 -63.5 80t-228.5 66q-408 84 -408 360q0 49 12 100q41 193 206 302.5t425 109.5q156 0 279 -55.5t191.5 -140t68.5 -171.5 q0 -10 -4 -34q-4 -18 -16.5 -31.5t-30.5 -13.5h-291q-45 0 -62 36q-4 43 -48 73t-116 30q-88 0 -142 -31t-69 -90q-2 -8 -2 -22q0 -49 56.5 -79t201.5 -61q231 -43 338 -129t107 -227q0 -57 -10 -100q-45 -211 -220.5 -319.5t-467.5 -108.5q-183 0 -312 49t-194.5 132 t-65.5 183z" />
<glyph unicode="&#x406;" horiz-adv-x="673" d="M20 51l285 1331q4 23 21.5 37.5t40.5 14.5h290q20 0 34 -14.5t9 -37.5l-284 -1331q-4 -23 -22.5 -37t-39.5 -14h-293q-22 0 -33.5 15.5t-7.5 35.5z" />
<glyph unicode="&#x407;" horiz-adv-x="673" d="M20 51l285 1331q4 23 21.5 37.5t40.5 14.5h290q20 0 34 -14.5t9 -37.5l-284 -1331q-4 -23 -22.5 -37t-39.5 -14h-293q-22 0 -33.5 15.5t-7.5 35.5zM154 1583l41 195q4 20 20.5 33.5t36.5 13.5h195q20 0 30.5 -13.5t5.5 -33.5l-41 -195q-4 -20 -20 -33.5t-37 -13.5h-194 q-21 0 -31 13.5t-6 33.5zM645 1583l41 195q4 20 20.5 33.5t37.5 13.5h194q20 0 30.5 -13.5t6.5 -33.5l-41 -195q-4 -20 -20.5 -33.5t-36.5 -13.5h-195q-20 0 -30.5 13.5t-6.5 33.5z" />
<glyph unicode="&#x408;" horiz-adv-x="1372" d="M-2 383q0 33 6 70q4 18 18.5 31.5t32.5 13.5h295q29 0 41 -13.5t17 -44.5q2 -80 41.5 -116.5t125.5 -36.5q205 0 259 252l122 577h-657q-23 0 -34 15.5t-7 35.5l47 215q4 23 22.5 37.5t39.5 14.5h1001q23 0 35 -15.5t8 -38.5l-182 -854q-57 -274 -223 -410t-459 -136 q-135 0 -261 47t-207 138t-81 218z" />
<glyph unicode="&#x409;" horiz-adv-x="2240" d="M-68 53l50 228q8 43 61 53q111 18 191.5 180t144.5 455l88 413q4 23 21.5 37.5t39.5 14.5h998q23 0 35 -14.5t8 -37.5l-94 -438h186q233 0 355 -86t122 -254q0 -63 -14 -123q-47 -221 -221 -351t-441 -130h-520q-23 0 -34 15.5t-7 35.5l221 1041h-346l-39 -172 q-74 -348 -159.5 -541t-226 -284t-376.5 -95q-22 0 -34.5 16.5t-8.5 36.5zM1337 295h179q82 0 137 51t73 133q6 29 7 53q0 61 -36 91t-104 30h-180z" />
<glyph unicode="&#x40a;" horiz-adv-x="2215" d="M20 51l283 1329q4 23 21.5 38.5t40.5 15.5h280q23 0 35 -15.5t8 -38.5l-104 -485h471l104 485q4 23 21.5 38.5t40.5 15.5h280q23 0 35 -15.5t8 -36.5l-94 -438h186q231 0 353 -89t122 -257q0 -55 -12 -117q-47 -221 -221 -351t-442 -130h-518q-20 0 -34 14.5t-10 36.5 l109 502h-471l-109 -502q-4 -23 -21 -37t-40 -14h-281q-22 0 -33.5 14.5t-7.5 36.5zM1311 295h180q96 0 155.5 67.5t59.5 169.5q0 121 -137 121h-180z" />
<glyph unicode="&#x40b;" horiz-adv-x="1609" d="M162 1198l41 188q2 20 18.5 34t36.5 14h1075q20 0 31.5 -13.5t7.5 -34.5l-41 -188q-2 -20 -18.5 -33.5t-36.5 -13.5h-438l-62 -287q55 39 147.5 62.5t180.5 23.5q406 0 405 -321q0 -66 -18 -150l-90 -428q-4 -23 -22.5 -37t-39.5 -14h-280q-23 0 -35 14.5t-8 36.5l86 395 q6 25 6 48q0 55 -41 80.5t-129 25.5q-86 0 -157.5 -28.5t-86.5 -98.5l-92 -422q-4 -23 -21.5 -37t-39.5 -14h-279q-22 0 -34.5 14.5t-8.5 36.5l234 1100h-254q-20 0 -30.5 13.5t-6.5 33.5z" />
<glyph unicode="&#x40c;" horiz-adv-x="1447" d="M20 51l283 1329q4 23 21.5 38.5t40.5 15.5h280q23 0 35 -15.5t8 -38.5l-104 -485h112l402 498q31 41 84 41h317q19 0 29 -12.5t6 -30.5q-4 -14 -14 -25l-510 -623l272 -673q4 -10 0 -23q-2 -20 -18.5 -33.5t-34.5 -13.5h-307q-45 0 -64 41l-203 512h-143l-109 -502 q-4 -23 -21 -37t-40 -14h-281q-23 0 -34 14.5t-7 36.5zM682 1567q4 16 17 26l233 226q27 25 42.5 32t41.5 7h299q16 0 24.5 -10.5t6.5 -26.5q-4 -18 -16 -29l-324 -225q-23 -16 -41 -23.5t-43 -7.5h-211q-14 0 -22.5 8t-6.5 23z" />
<glyph unicode="&#x40d;" horiz-adv-x="1601" d="M20 53l285 1327q2 23 20.5 38.5t41.5 15.5h280q23 0 34 -15.5t7 -38.5l-172 -809l741 824q33 39 78 39h250q23 0 34 -15.5t9 -38.5l-285 -1329q-4 -23 -22 -37t-39 -14h-281q-23 0 -35 15.5t-8 35.5l166 778l-733 -790q-31 -39 -78 -39h-250q-22 0 -34.5 15.5t-8.5 37.5z M614 1808q0 20 13.5 35t33.5 15h285q27 0 40 -7.5t28 -31.5l137 -224q4 -8 4 -18q0 -18 -11.5 -29.5t-27.5 -11.5h-199q-24 0 -39.5 7t-31.5 24l-226 223q-6 10 -6 18z" />
<glyph unicode="&#x40e;" horiz-adv-x="1341" d="M100 51l50 230q4 23 22 38t41 15h78q57 0 102 23.5t90 74.5l-303 938q-2 4 -2 16q2 20 18.5 34t41.5 14h278q39 0 51 -43l172 -580l375 580q29 43 72 43h284q19 0 30 -13.5t7 -29.5q-8 -23 -18 -39l-604 -934q-109 -166 -192 -253t-184 -126t-255 -39h-111 q-23 0 -35 14.5t-8 36.5zM555 1745q0 37 9 70q4 16 16 27t31 11h174q18 0 26.5 -11t3.5 -27q-4 -25 -4 -35q0 -72 99 -72q119 0 139 107q4 16 16.5 27t30.5 11h174q18 0 26.5 -11t4.5 -27q-31 -133 -138.5 -215t-293.5 -82q-160 0 -237 61t-77 166z" />
<glyph unicode="&#x40f;" horiz-adv-x="1529" d="M20 51l283 1331q4 23 21.5 37.5t40.5 14.5h280q23 0 35 -14.5t8 -37.5l-223 -1040h485l224 1040q4 23 21 37.5t40 14.5h278q23 0 35.5 -14.5t7.5 -37.5l-282 -1331q-4 -23 -23.5 -37t-42.5 -14h-381l-51 -236q-4 -23 -21.5 -37t-39.5 -14h-281q-22 0 -33.5 15.5 t-7.5 35.5l49 236h-383q-20 0 -31.5 14.5t-7.5 36.5z" />
<glyph unicode="&#x410;" horiz-adv-x="1484" d="M-104 39q0 10 6 22l755 1313q35 59 95 60h331q61 0 70 -60l199 -1313q2 -29 -12.5 -45t-36.5 -16h-261q-55 0 -63 49l-33 195h-534l-119 -199q-29 -45 -78 -45h-281q-18 0 -28 11.5t-10 27.5zM561 551h365l-72 522z" />
<glyph unicode="&#x411;" horiz-adv-x="1349" d="M-2 51l283 1329q4 23 21 38.5t40 15.5h991q23 0 35 -15.5t8 -38.5l-45 -215q-6 -23 -24.5 -38t-38.5 -15h-660l-49 -229h275q219 0 335.5 -89t116.5 -247q0 -55 -10 -98q-27 -129 -111 -230.5t-217 -160t-301 -58.5h-608q-23 0 -34 15.5t-7 35.5zM430 276h240 q92 0 152.5 65t60.5 148q0 57 -36 92t-104 35h-241z" />
<glyph unicode="&#x412;" horiz-adv-x="1449" d="M20 51l283 1329q4 23 22.5 38.5t41.5 15.5h604q219 0 343 -85t124 -239q0 -35 -11 -86q-23 -102 -89 -172t-140 -102q63 -33 102 -96.5t39 -145.5q0 -23 -8 -72q-45 -213 -189.5 -324.5t-400.5 -111.5h-678q-22 0 -34.5 14.5t-8.5 36.5zM453 276h274q78 0 134.5 47.5 t68.5 112.5q6 25 6 45q0 53 -35 85t-104 32h-275zM578 866h253q86 0 141.5 55.5t55.5 133.5q0 49 -30.5 75.5t-94.5 26.5h-262z" />
<glyph unicode="&#x413;" horiz-adv-x="1163" d="M-2 51l283 1329q4 23 21 38.5t40 15.5h893q23 0 34 -15.5t9 -38.5l-47 -215q-4 -23 -22.5 -38t-41.5 -15h-559l-227 -1061q-4 -23 -21.5 -37t-40.5 -14h-280q-23 0 -34 15.5t-7 35.5z" />
<glyph unicode="&#x414;" horiz-adv-x="1619" d="M-111 -233l113 522q4 23 21.5 38t39.5 15h37q92 0 167 166t139 461l86 413q4 23 22 37.5t41 14.5h977q23 0 35 -15.5t8 -38.5l-223 -1038h96q23 0 35 -15.5t8 -37.5l-113 -522q-4 -23 -22.5 -38.5t-40.5 -15.5h-279q-23 0 -35 15.5t-8 38.5l49 233h-718l-50 -233 q-4 -23 -22.5 -38.5t-40.5 -15.5h-281q-22 0 -33.5 15.5t-7.5 38.5zM551 342h418l159 750h-327l-37 -172q-88 -410 -213 -578z" />
<glyph unicode="&#x415;" horiz-adv-x="1312" d="M20 51l283 1329q4 23 22.5 38.5t41.5 15.5h966q23 0 34 -15.5t7 -38.5l-43 -202q-4 -23 -22.5 -37.5t-40.5 -14.5h-647l-58 -260h604q23 0 34 -15t7 -38l-39 -186q-4 -23 -22.5 -38.5t-40.5 -15.5h-604l-56 -266h664q23 0 34 -15.5t7 -37.5l-43 -203q-4 -23 -22.5 -37 t-38.5 -14h-984q-22 0 -34.5 14.5t-8.5 36.5z" />
<glyph unicode="&#x416;" horiz-adv-x="2295" d="M-20 47q6 18 10 23l559 673l-248 623q-2 12 0 25q4 18 18.5 30.5t32.5 12.5h295q55 0 70 -41l190 -498h125l105 487q4 23 22.5 37.5t38.5 14.5h266q23 0 35 -14.5t8 -37.5l-104 -487h113l401 498q31 41 84 41h317q19 0 29 -12.5t6 -30.5q-4 -14 -14 -25l-510 -623 l280 -673q4 -10 0 -23q-4 -20 -20 -33.5t-35 -13.5h-305q-47 0 -66 41l-206 512h-146l-108 -502q-2 -23 -20.5 -37t-41.5 -14h-266q-23 0 -34 14.5t-9 36.5l109 502h-105l-420 -512q-29 -41 -78 -41h-342q-18 0 -28.5 13.5t-7.5 33.5z" />
<glyph unicode="&#x417;" horiz-adv-x="1386" d="M14 342q0 25 2 37q2 18 18.5 30.5t35.5 12.5h278q25 0 37 -9.5t21 -27.5q27 -100 194 -100q106 0 176 38.5t86 110.5q4 25 4 33q0 57 -49 87t-141 30h-152q-20 0 -31.5 16t-7.5 39l37 174q4 23 22.5 39t41.5 16h147q86 0 141.5 34t69.5 106q4 20 4 28q0 51 -43 81 t-121 30q-86 0 -144 -26.5t-81 -76.5q-14 -18 -28.5 -26t-38.5 -8h-283q-18 0 -28.5 12t-6.5 31q53 168 219 284.5t459 116.5q154 0 267.5 -45t174 -123t60.5 -174q0 -23 -8 -68q-45 -203 -224 -290q76 -41 110 -104.5t34 -141.5q0 -43 -11 -90q-27 -131 -122 -230.5 t-245.5 -153.5t-338.5 -54q-191 0 -310.5 51t-172 133t-52.5 178z" />
<glyph unicode="&#x418;" horiz-adv-x="1601" d="M20 53l285 1327q2 23 20.5 38.5t41.5 15.5h280q23 0 34 -15.5t7 -38.5l-172 -809l741 824q33 39 78 39h250q23 0 34 -15.5t9 -38.5l-285 -1329q-4 -23 -22 -37t-39 -14h-281q-23 0 -35 15.5t-8 35.5l166 778l-733 -790q-31 -39 -78 -39h-250q-22 0 -34.5 15.5t-8.5 37.5z " />
<glyph unicode="&#x419;" horiz-adv-x="1601" d="M20 53l285 1327q2 23 20.5 38.5t41.5 15.5h280q23 0 34 -15.5t7 -38.5l-172 -809l741 824q33 39 78 39h250q23 0 34 -15.5t9 -38.5l-285 -1329q-4 -23 -22 -37t-39 -14h-281q-23 0 -35 15.5t-8 35.5l166 778l-733 -790q-31 -39 -78 -39h-250q-22 0 -34.5 15.5t-8.5 37.5z M690 1745q0 37 9 70q4 16 16 27t31 11h174q18 0 26.5 -11t3.5 -27q-4 -25 -4 -35q0 -72 99 -72q119 0 139 107q4 16 16.5 27t30.5 11h174q18 0 26.5 -11t4.5 -27q-31 -133 -138.5 -215t-293.5 -82q-160 0 -237 61t-77 166z" />
<glyph unicode="&#x41a;" horiz-adv-x="1470" d="M20 51l283 1329q4 23 21.5 38.5t40.5 15.5h280q23 0 35 -15.5t8 -38.5l-104 -485h112l402 498q31 41 84 41h317q19 0 29 -12.5t6 -30.5q-4 -14 -14 -25l-510 -623l272 -673q4 -10 0 -23q-2 -20 -18.5 -33.5t-34.5 -13.5h-307q-45 0 -64 41l-203 512h-143l-109 -502 q-4 -23 -21 -37t-40 -14h-281q-23 0 -34 14.5t-7 36.5z" />
<glyph unicode="&#x41b;" horiz-adv-x="1562" d="M-68 53l50 228q8 43 61 53q111 18 191.5 180t144.5 455l88 413q4 23 21.5 37.5t39.5 14.5h1018q23 0 35 -15.5t8 -38.5l-284 -1329q-4 -23 -21.5 -37t-40.5 -14h-280q-23 0 -34 15.5t-7 35.5l221 1041h-367l-39 -172q-74 -348 -159.5 -541t-226 -284t-376.5 -95 q-23 0 -35 16.5t-8 36.5z" />
<glyph unicode="&#x41c;" horiz-adv-x="1701" d="M20 51l283 1329q4 23 22.5 38.5t41.5 15.5h233q29 0 43 -13.5t23 -31.5l219 -631l487 631q10 16 30.5 30.5t49.5 14.5h234q23 0 35 -15.5t8 -38.5l-285 -1329q-4 -23 -21.5 -37t-40.5 -14h-260q-23 0 -35 15.5t-8 35.5l156 733l-299 -393q-39 -47 -82 -47h-111 q-43 0 -59 47l-139 412l-160 -752q-4 -23 -22.5 -37t-38.5 -14h-261q-22 0 -34.5 14.5t-8.5 36.5z" />
<glyph unicode="&#x41d;" horiz-adv-x="1531" d="M20 51l283 1329q4 23 22.5 38.5t41.5 15.5h278q23 0 35 -15.5t8 -38.5l-104 -485h485l105 485q4 23 21 38.5t40 15.5h281q23 0 34 -15.5t6 -38.5l-282 -1329q-4 -23 -22.5 -37t-39.5 -14h-280q-23 0 -35 15.5t-8 35.5l108 502h-485l-106 -502q-4 -23 -22.5 -37t-41.5 -14 h-279q-22 0 -34.5 14.5t-8.5 36.5z" />
<glyph unicode="&#x41e;" horiz-adv-x="1464" d="M72 428q0 43 10 109q35 199 76 354q70 279 247 421t476 142q158 0 284.5 -53t200.5 -156.5t74 -249.5q0 -43 -10 -104q-29 -166 -76 -354q-70 -281 -247 -419t-476 -138q-160 0 -286 51t-199.5 151.5t-73.5 245.5zM473 465q0 -178 189 -178q110 0 187 64.5t109 197.5 q45 186 72 336q8 41 8 84q0 178 -186 178q-111 0 -187.5 -64.5t-109.5 -197.5q-35 -129 -74 -336q-8 -41 -8 -84z" />
<glyph unicode="&#x41f;" horiz-adv-x="1531" d="M-2 51l283 1329q4 23 21 38.5t40 15.5h1149q23 0 35 -15.5t8 -38.5l-283 -1329q-4 -23 -22.5 -37t-40.5 -14h-279q-23 0 -35 14.5t-8 36.5l224 1041h-486l-223 -1041q-4 -23 -21.5 -37t-40.5 -14h-280q-23 0 -34 14.5t-7 36.5z" />
<glyph unicode="&#x420;" horiz-adv-x="1392" d="M20 51l283 1329q4 23 22.5 38.5t41.5 15.5h548q229 0 369.5 -94.5t140.5 -274.5q0 -51 -12 -107q-51 -238 -207.5 -351t-427.5 -113h-266l-94 -443q-4 -23 -21.5 -37t-40.5 -14h-293q-22 0 -34.5 14.5t-8.5 36.5zM567 786h226q82 0 143 44t80 131q8 45 8 61 q0 117 -147 117h-234z" />
<glyph unicode="&#x421;" horiz-adv-x="1441" d="M72 422q0 47 10 113q25 147 78 364q68 272 249 413.5t474 141.5q160 0 292 -49t208.5 -142.5t76.5 -222.5q0 -45 -8 -84q-4 -18 -17.5 -30.5t-31.5 -12.5h-295q-29 0 -42 11.5t-15 42.5q2 98 -50.5 139t-148.5 41q-236 0 -297 -258q-43 -170 -74 -344q-8 -41 -8 -82 q0 -92 47 -134t142 -42q96 0 166.5 41t115.5 139q14 31 30.5 42t45.5 11h295q18 0 28.5 -12t6.5 -31q-59 -236 -245.5 -366.5t-471.5 -130.5q-256 0 -408.5 113.5t-152.5 328.5z" />
<glyph unicode="&#x422;" horiz-adv-x="1294" d="M154 1151l49 229q4 23 22.5 38.5t40.5 15.5h1112q23 0 35 -15.5t8 -38.5l-51 -229q-4 -23 -21.5 -37t-39.5 -14h-361l-225 -1049q-4 -23 -21.5 -37t-39.5 -14h-285q-23 0 -35 14.5t-8 36.5l223 1049h-360q-23 0 -35 14t-8 37z" />
<glyph unicode="&#x423;" horiz-adv-x="1337" d="M100 51l50 230q4 23 22 38t41 15h78q57 0 102 23.5t90 74.5l-303 938q-2 4 -2 16q2 20 18.5 34t41.5 14h278q39 0 51 -43l172 -580l375 580q29 43 72 43h284q19 0 30 -13.5t7 -29.5q-8 -23 -18 -39l-604 -934q-109 -166 -192 -253t-184 -126t-255 -39h-111 q-23 0 -35 14.5t-8 36.5z" />
<glyph unicode="&#x424;" horiz-adv-x="1912" d="M102 573q0 45 7 97q4 33 13 77t17 74q70 262 279 405.5t508 143.5l24 115q4 23 22.5 38t41.5 15h280q23 0 34 -15.5t5 -37.5l-22 -115q258 0 408.5 -120t150.5 -332q0 -53 -8 -103q-10 -68 -31 -145q-76 -268 -276.5 -406.5t-510.5 -138.5l-26 -139q-6 -23 -24.5 -37.5 t-39.5 -14.5h-280q-23 0 -35 15.5t-6 36.5l29 139q-268 0 -414 116.5t-146 331.5zM502 616q0 -184 227 -184l135 631q-129 0 -211 -60.5t-116 -187.5q-14 -53 -29 -135q-6 -33 -6 -64zM1108 432q131 0 213 60.5t115 187.5q8 29 16 68.5t12 66.5q4 41 4 55q0 98 -56 145.5 t-169 47.5z" />
<glyph unicode="&#x425;" horiz-adv-x="1423" d="M-98 39q0 16 12 29l612 671l-313 629q-4 6 -4 21q0 18 13.5 31.5t37.5 13.5h281q51 0 69 -45l185 -371l327 371q16 20 35 32.5t51 12.5h310q18 0 28 -11.5t10 -25.5q0 -18 -12 -31l-583 -678l313 -622q4 -12 4 -19q0 -18 -14.5 -32.5t-38.5 -14.5h-279q-31 0 -45 12.5 t-24 28.5l-183 362l-334 -362q-33 -41 -84 -41h-335q-17 0 -28 11.5t-11 27.5z" />
<glyph unicode="&#x426;" horiz-adv-x="1601" d="M20 53l285 1329q2 23 20.5 37.5t41.5 14.5h278q23 0 35 -14.5t8 -37.5l-221 -1040h483l224 1040q4 23 22 37.5t39 14.5h281q20 0 33.5 -14.5t9.5 -37.5l-224 -1040h97q23 0 34 -15.5t9 -37.5l-115 -525q-4 -23 -21.5 -37t-40.5 -14h-280q-23 0 -34 15.5t-7 35.5l49 236 h-965q-23 0 -34 15.5t-7 37.5z" />
<glyph unicode="&#x427;" horiz-adv-x="1456" d="M170 762q0 82 20 170l97 450q4 23 22.5 37.5t38.5 14.5h281q20 0 33.5 -14.5t9.5 -37.5l-92 -432q-8 -33 -9 -67q0 -66 42 -95.5t135 -29.5q82 0 155.5 28.5t85.5 87.5l109 508q4 23 22.5 37.5t38.5 14.5h281q20 0 33.5 -14.5t9.5 -37.5l-285 -1331q-4 -23 -22.5 -37 t-38.5 -14h-281q-20 0 -33.5 14.5t-9.5 36.5l92 432q-55 -39 -138 -58t-173 -19q-211 0 -317.5 90t-106.5 266z" />
<glyph unicode="&#x428;" horiz-adv-x="2027" d="M20 51l283 1331q4 23 21.5 37.5t40.5 14.5h280q23 0 35 -14.5t8 -37.5l-223 -1040h299l223 1040q4 23 22.5 37.5t39.5 14.5h280q20 0 33.5 -14.5t9.5 -37.5l-223 -1040h297l223 1040q4 23 22.5 37.5t39.5 14.5h280q20 0 33.5 -14.5t9.5 -37.5l-285 -1331q-4 -23 -22 -37 t-39 -14h-1647q-22 0 -33.5 15.5t-7.5 35.5z" />
<glyph unicode="&#x429;" horiz-adv-x="2097" d="M20 51l283 1331q4 23 21.5 37.5t40.5 14.5h280q23 0 35 -14.5t8 -37.5l-223 -1040h299l223 1040q4 23 22.5 37.5t39.5 14.5h280q23 0 35 -15.5t8 -36.5l-223 -1040h297l223 1040q4 23 22.5 37.5t39.5 14.5h280q20 0 33.5 -14.5t9.5 -37.5l-223 -1040h96q23 0 34 -15.5 t9 -37.5l-115 -525q-4 -23 -21 -37t-40 -14h-281q-22 0 -33.5 15.5t-6.5 35.5l49 236h-1463q-20 0 -31.5 14.5t-7.5 36.5z" />
<glyph unicode="&#x42a;" horiz-adv-x="1593" d="M158 1178l45 202q2 23 20.5 38.5t40.5 15.5h600q23 0 35 -14.5t8 -37.5l-94 -438h201q231 0 353 -89t122 -257q0 -55 -12 -117q-49 -221 -222.5 -351t-441.5 -130h-532q-23 0 -34 15.5t-7 35.5l229 1075h-270q-23 0 -34 15.5t-7 36.5zM676 295h192q96 0 155.5 67.5 t59.5 169.5q0 121 -137 121h-194z" />
<glyph unicode="&#x42b;" horiz-adv-x="1955" d="M20 51l283 1331q4 23 22.5 37.5t39.5 14.5h280q23 0 35 -14.5t8 -37.5l-94 -438h186q233 0 355 -88t122 -256q0 -43 -14 -119q-47 -221 -221 -351t-440 -130h-521q-22 0 -33.5 15.5t-7.5 35.5zM457 295h178q82 0 137 51t74 133q6 29 6 53q0 61 -36 91t-103 30h-181z M1303 51l284 1331q4 23 22.5 37.5t39.5 14.5h290q23 0 35.5 -14.5t7.5 -37.5l-284 -1331q-4 -23 -21.5 -37t-40.5 -14h-290q-21 0 -34.5 14.5t-8.5 36.5z" />
<glyph unicode="&#x42c;" horiz-adv-x="1380" d="M20 51l283 1331q4 23 22.5 37.5t39.5 14.5h280q23 0 35 -14.5t8 -37.5l-94 -438h207q233 0 355 -88t122 -256q0 -43 -14 -119q-47 -221 -221.5 -351t-440.5 -130h-541q-22 0 -33.5 15.5t-7.5 35.5zM457 295h198q82 0 137.5 51t73.5 133q6 29 6 53q0 61 -35.5 91 t-103.5 30h-201z" />
<glyph unicode="&#x42d;" horiz-adv-x="1423" d="M10 340q0 27 2 39q2 18 18.5 30.5t35.5 12.5h280q23 0 34 -8t21 -29q12 -45 59.5 -72.5t135.5 -27.5q115 0 192.5 66.5t104.5 191.5l6 30h-389q-20 0 -31.5 16.5t-7.5 39.5l37 174q4 23 22.5 39t40.5 16h390l6 29q10 51 10 86q0 174 -199 174q-86 0 -145.5 -30t-83.5 -73 q-16 -20 -30.5 -27t-37.5 -7h-284q-18 0 -28.5 12t-6.5 31q66 197 253 299t437 102q246 0 384 -109.5t138 -328.5q0 -63 -12 -142q-33 -170 -68 -315q-74 -295 -270.5 -437t-486.5 -142q-238 0 -382.5 94t-144.5 266z" />
<glyph unicode="&#x42e;" horiz-adv-x="2140" d="M-2 51l283 1331q4 23 22.5 37.5t38.5 14.5h281q23 0 35 -14.5t8 -37.5l-105 -487h248q10 35 14 45q76 238 268.5 376t473.5 138q258 0 392 -117.5t134 -324.5q0 -68 -10 -121q-41 -213 -76 -354q-68 -262 -263.5 -409.5t-492.5 -147.5q-260 0 -393 112.5t-133 319.5 q0 45 6 94l6 47h-246l-108 -502q-4 -23 -21.5 -37t-40.5 -14h-280q-23 0 -34 14.5t-7 36.5zM1124 469q0 -92 50.5 -137t140.5 -45q108 0 184 62.5t109 195.5q41 160 73 344q8 53 9 76q0 92 -50.5 137t-140.5 45q-109 0 -184.5 -63.5t-108.5 -194.5q-41 -160 -73 -344 q-8 -57 -9 -76z" />
<glyph unicode="&#x42f;" horiz-adv-x="1445" d="M-8 43q2 8 12 23l381 483q-86 47 -131 126t-45 179q0 59 10 102q45 219 221 348.5t447 129.5h545q22 0 33.5 -15.5t7.5 -36.5l-283 -1331q-4 -23 -22.5 -37t-39.5 -14h-280q-23 0 -35 14.5t-8 36.5l92 436h-160l-321 -432q-39 -55 -97 -55h-292q-16 0 -27.5 13.5 t-7.5 29.5zM610 909q0 -59 39 -91t109 -32h203l75 353h-211q-80 0 -136 -51.5t-73 -131.5q-6 -25 -6 -47z" />
<glyph unicode="&#x430;" horiz-adv-x="1290" d="M39 338q0 70 10 123l31 145q59 227 192.5 353t339.5 126q115 0 180.5 -31.5t108.5 -90.5l12 51q4 23 21.5 37t40.5 14h242q23 0 35 -15.5t8 -35.5l-205 -963q-4 -23 -22.5 -37t-39.5 -14h-243q-23 0 -35.5 15.5t-7.5 35.5l14 64q-72 -68 -143.5 -101.5t-180.5 -33.5 q-172 0 -265 93t-93 265zM422 399q0 -66 28.5 -100.5t98.5 -34.5q90 0 146.5 56.5t78.5 142.5q23 86 33 153q4 33 4 48q0 63 -33 100t-104 37q-88 0 -139.5 -54.5t-79.5 -150.5q-20 -70 -27 -127q-6 -37 -6 -70z" />
<glyph unicode="&#x431;" horiz-adv-x="1288" d="M70 358q0 74 16 179q20 117 51 247q68 274 187.5 422t316.5 223.5t563 147.5l13 2q18 0 29 -12.5t9 -30.5l-4 -199q-2 -23 -15 -40t-36 -21q-250 -43 -376 -82t-199.5 -107.5t-114.5 -197.5q55 45 130 70.5t155 25.5q195 0 297 -87t102 -249q0 -49 -8 -92 q-14 -84 -33 -149q-55 -205 -218 -316.5t-421 -111.5q-231 0 -337.5 91t-106.5 287zM428 344q0 -131 135 -131q86 0 137.5 50t77.5 153q16 49 29 133q8 57 8 76q0 63 -27.5 94t-89.5 31q-182 0 -233 -201q-23 -88 -29 -133q-8 -53 -8 -72z" />
<glyph unicode="&#x432;" horiz-adv-x="1249" d="M14 51l205 963q4 23 22.5 37t39.5 14h485q207 0 308.5 -62.5t101.5 -177.5q0 -31 -7 -65q-27 -133 -155 -213q53 -27 80.5 -71t27.5 -103q0 -27 -6 -58q-31 -150 -168 -232.5t-377 -82.5h-516q-22 0 -33.5 15.5t-7.5 35.5zM399 227h230q154 0 153 119q0 70 -114 70h-228z M489 651h197q125 0 145 99q2 8 3 24q0 63 -109 64h-197z" />
<glyph unicode="&#x433;" horiz-adv-x="946" d="M14 51l205 963q4 23 22.5 37t39.5 14h692q20 0 33.5 -14.5t9.5 -36.5l-39 -176q-4 -23 -22.5 -37.5t-41.5 -14.5h-383l-157 -735q-4 -23 -21.5 -37t-40.5 -14h-256q-22 0 -33.5 15.5t-7.5 35.5z" />
<glyph unicode="&#x434;" horiz-adv-x="1271" d="M37 356q0 41 6 84q10 63 27 119q55 219 201.5 337t385.5 118q166 0 277 -99q6 43 6 80q0 139 -92 208t-295 75q-23 0 -37 14.5t-14 36.5v154q0 23 15 38t38 17q340 -2 502 -150.5t162 -443.5q0 -88 -17 -207q-10 -117 -63 -297q-61 -225 -213 -342.5t-416 -117.5 q-223 0 -348 99t-125 277zM414 371q0 -68 30.5 -100.5t98.5 -32.5q86 0 139 52t82 161q20 74 24 98q6 37 7 65q0 68 -32 105t-97 37q-88 0 -140.5 -51.5t-83.5 -155.5q-10 -37 -20 -98q-8 -61 -8 -80z" />
<glyph unicode="&#x435;" d="M68 365q0 70 14 139l14 63q59 244 232.5 381t416.5 137q219 0 330 -107.5t111 -291.5q0 -66 -17 -147l-10 -52q-6 -23 -24.5 -38t-40.5 -15h-650l-2 -12q-6 -33 -6 -66q0 -63 31 -101t92 -38q49 0 83 19.5t67 50.5q23 20 36 25t35 5h271q18 0 28.5 -12t5.5 -31 q-14 -55 -89.5 -124.5t-201.5 -119.5t-282 -50q-213 0 -328.5 97t-115.5 288zM489 643h326l2 4q8 33 8 70q0 66 -33.5 101.5t-95.5 35.5q-78 0 -132 -55.5t-75 -151.5v-4z" />
<glyph unicode="&#x436;" horiz-adv-x="1894" d="M-66 43q2 16 15 27l440 497l-174 426q-4 12 -4 21q0 20 16.5 35.5t38.5 15.5h252q35 0 51 -33l138 -352h94l73 334q4 23 21.5 37t40.5 14h250q20 0 33.5 -14.5t9.5 -36.5l-74 -334h90l287 352q14 14 28.5 23.5t34.5 9.5h283q18 0 29.5 -12.5t7.5 -30.5q-2 -14 -17 -29 l-391 -465l215 -458q4 -12 4 -21q0 -20 -16 -34.5t-39 -14.5h-272q-33 0 -53 33l-158 368h-90l-76 -350q-4 -23 -22.5 -37t-38.5 -14h-250q-23 0 -35 14.5t-8 36.5l75 350h-86l-313 -368q-27 -33 -65 -33h-308q-20 0 -30.5 12.5t-6.5 30.5z" />
<glyph unicode="&#x437;" horiz-adv-x="1185" d="M35 266l2 27q0 14 14.5 25.5t28.5 11.5h252q20 0 30.5 -7.5t16.5 -23.5q8 -39 43 -55.5t102 -16.5q70 0 114 26t56 79q2 10 2 26q0 37 -25.5 55.5t-84.5 18.5h-115q-18 0 -28.5 13.5t-6.5 31.5l27 123q2 18 18.5 31.5t34.5 13.5h111q61 0 92 21.5t41 66.5q4 20 4 29 q0 74 -109 74q-70 0 -109.5 -19.5t-66.5 -60.5q-14 -16 -27.5 -23.5t-35.5 -7.5h-242q-16 0 -24.5 11.5t-4.5 25.5q41 127 176.5 225t380.5 98q219 0 320.5 -67.5t101.5 -177.5q0 -27 -6 -58q-16 -74 -63 -132t-125 -93q63 -23 93 -72t30 -114q0 -41 -9 -76 q-18 -92 -92.5 -164t-197.5 -111.5t-279 -39.5q-242 0 -341 87t-99 199z" />
<glyph unicode="&#x438;" horiz-adv-x="1318" d="M55 305q0 59 17 137l121 572q4 23 22 37t41 14h272q20 0 31.5 -14.5t7.5 -36.5l-116 -559q-10 -47 -11 -76q0 -57 32 -86t99 -29q84 0 143.5 50.5t80.5 140.5l118 559q4 20 22.5 35.5t41.5 15.5h270q23 0 34 -14.5t7 -36.5l-205 -963q-4 -23 -21.5 -37t-39.5 -14h-250 q-23 0 -35 15.5t-8 35.5l16 78q-72 -78 -149.5 -113.5t-200.5 -35.5q-157 0 -248.5 83.5t-91.5 241.5z" />
<glyph unicode="&#x439;" horiz-adv-x="1318" d="M55 305q0 59 17 137l121 572q4 23 22 37t41 14h272q20 0 31.5 -14.5t7.5 -36.5l-116 -559q-10 -47 -11 -76q0 -57 32 -86t99 -29q84 0 143.5 50.5t80.5 140.5l118 559q4 20 22.5 35.5t41.5 15.5h270q23 0 34 -14.5t7 -36.5l-205 -963q-4 -23 -21.5 -37t-39.5 -14h-250 q-23 0 -35 15.5t-8 35.5l16 78q-72 -78 -149.5 -113.5t-200.5 -35.5q-157 0 -248.5 83.5t-91.5 241.5zM463 1434q0 18 8 67q4 16 16.5 27.5t30.5 11.5h172q18 0 26.5 -11t4.5 -28q-4 -29 -4 -39q0 -33 19.5 -50t68.5 -17q66 0 100.5 29.5t42.5 76.5q4 16 16.5 27.5 t31.5 11.5h174q18 0 26 -11t4 -28q-31 -133 -137 -216t-291 -83q-155 0 -232 63.5t-77 168.5z" />
<glyph unicode="&#x43a;" horiz-adv-x="1247" d="M14 51l205 963q4 23 22.5 37t39.5 14h251q23 0 34.5 -15.5t6.5 -35.5l-71 -334h96l287 352q14 14 28.5 23.5t34.5 9.5h283q20 0 30.5 -12.5t6.5 -30.5q0 -10 -15 -29l-391 -467l213 -456q4 -12 4 -19q0 -20 -16 -35.5t-39 -15.5h-270q-37 0 -56 33l-155 366h-101 l-73 -348q-4 -23 -22.5 -37t-39.5 -14h-252q-23 0 -34 15.5t-7 35.5z" />
<glyph unicode="&#x43b;" horiz-adv-x="1296" d="M-45 53l41 189q12 45 61 51q86 8 135.5 106.5t96.5 321.5l63 293q4 23 21.5 37t40.5 14h817q20 0 33.5 -14.5t9.5 -36.5l-207 -963q-4 -23 -22.5 -37t-38.5 -14h-256q-20 0 -34 14.5t-9 36.5l157 735h-219l-22 -104q-57 -268 -129 -412.5t-186.5 -207t-309.5 -62.5 q-23 0 -35 15.5t-8 37.5z" />
<glyph unicode="&#x43c;" horiz-adv-x="1490" d="M12 43l209 981q2 16 17.5 28.5t31.5 12.5h236q37 0 51 -37l186 -493l367 493q31 37 68 37h258q16 0 26.5 -12.5t5.5 -28.5l-208 -981q-2 -18 -17.5 -30.5t-34.5 -12.5h-268q-18 0 -28.5 12.5t-6.5 30.5l103 477l-236 -317q-33 -45 -70 -45h-65q-37 0 -51 45l-115 336 l-106 -496q-2 -18 -17.5 -30.5t-32.5 -12.5h-268q-18 0 -28.5 12.5t-6.5 30.5z" />
<glyph unicode="&#x43d;" horiz-adv-x="1312" d="M14 51l205 963q4 23 22.5 37t39.5 14h256q23 0 35 -14.5t8 -36.5l-72 -334h348l74 334q4 23 21.5 37t39.5 14h256q23 0 34 -15.5t7 -35.5l-205 -963q-4 -23 -22.5 -37t-38.5 -14h-256q-23 0 -35 14.5t-8 36.5l76 350h-350l-76 -350q-4 -23 -21.5 -37t-40.5 -14h-256 q-22 0 -33.5 15.5t-7.5 35.5z" />
<glyph unicode="&#x43e;" horiz-adv-x="1255" d="M39 354q0 43 6 86q10 92 39 185q59 223 215 341.5t412 118.5q219 0 347 -101t128 -282q0 -37 -6 -77q-23 -113 -41 -185q-61 -225 -213 -342.5t-416 -117.5q-223 0 -347 99t-124 275zM414 371q0 -68 30.5 -100.5t98.5 -32.5q86 0 140 52t83 161q27 102 35 163q6 43 6 78 q0 68 -31 101.5t-98 33.5q-86 0 -139.5 -53t-79.5 -160q-10 -37 -20.5 -82t-16.5 -81q-8 -61 -8 -80z" />
<glyph unicode="&#x43f;" horiz-adv-x="1298" d="M14 51l205 963q4 23 22.5 37t39.5 14h952q20 0 33.5 -14.5t9.5 -36.5l-207 -963q-4 -23 -22.5 -37t-38.5 -14h-256q-20 0 -33.5 14.5t-9.5 36.5l157 735h-336l-157 -735q-4 -23 -21.5 -37t-40.5 -14h-256q-22 0 -33.5 15.5t-7.5 35.5z" />
<glyph unicode="&#x440;" horiz-adv-x="1298" d="M-29 -338l289 1352q4 23 21.5 37t40.5 14h243q23 0 34 -15.5t7 -35.5l-16 -74q141 145 350 145q168 0 256 -88t88 -256q0 -61 -12 -133q-6 -45 -31 -153q-57 -221 -198.5 -348t-337.5 -127q-100 0 -168 34.5t-101 100.5l-96 -453q-4 -20 -22.5 -35.5t-41.5 -15.5h-264 q-22 0 -33.5 14.5t-7.5 36.5zM502 406q0 -63 35.5 -102.5t109.5 -39.5q90 0 141.5 54.5t77.5 150.5q20 70 27 127q4 23 4 63q0 68 -30.5 105t-106.5 37q-90 0 -143.5 -55.5t-77.5 -143.5q-23 -86 -33 -153q-4 -29 -4 -43z" />
<glyph unicode="&#x441;" horiz-adv-x="1212" d="M37 367q0 39 6 82l35 165q59 225 219 348t397 123q164 0 272.5 -58t159 -141t50.5 -155l-2 -22q-2 -20 -19.5 -36t-40.5 -16h-278q-41 0 -48 41q-4 59 -34.5 87t-87.5 28q-160 0 -213 -209q-25 -111 -31 -145q-8 -57 -8 -76q0 -68 30.5 -99.5t94.5 -31.5q59 0 102 26.5 t76 83.5q12 23 26.5 33.5t36.5 10.5h279q23 0 34 -15.5t5 -38.5q-20 -70 -88 -155.5t-198 -151t-318 -65.5q-132 0 -235 46t-162.5 133t-59.5 208z" />
<glyph unicode="&#x442;" horiz-adv-x="1130" d="M94 838l39 176q4 23 21.5 37t40.5 14h966q20 0 33.5 -14.5t9.5 -36.5l-39 -176q-4 -23 -22.5 -37.5t-40.5 -14.5h-305l-158 -735q-4 -23 -22.5 -37t-38.5 -14h-250q-23 0 -35 14.5t-8 36.5l157 735h-307q-23 0 -34 15.5t-7 36.5z" />
<glyph unicode="&#x443;" horiz-adv-x="1226" d="M-31 -338l37 174q4 20 22.5 35.5t41.5 15.5h73q53 0 87 30t87 114l13 18l-205 946q-2 6 -2 17q0 18 8 26q6 12 19.5 19.5t29.5 7.5h232q25 0 35 -11.5t14 -31.5l112 -582l361 582q27 43 72 43h237q19 0 28 -10.5t9 -28.5q-4 -20 -12 -31l-594 -940q-100 -156 -179 -249 t-171.5 -145t-208.5 -52h-105q-23 0 -34 15.5t-7 37.5z" />
<glyph unicode="&#x444;" horiz-adv-x="1640" d="M39 369q0 39 6 77q18 104 37 172q57 211 226 329t429 118l72 338q4 20 22.5 35.5t40.5 15.5h256q23 0 34.5 -15.5t6.5 -35.5l-73 -338q229 0 351 -99.5t122 -273.5q0 -37 -6 -74q-18 -104 -37 -172q-57 -215 -222 -330.5t-434 -115.5l-71 -338q-4 -20 -22.5 -35.5 t-41.5 -15.5h-256q-22 0 -33.5 15.5t-7.5 35.5l74 338q-236 0 -354.5 97.5t-118.5 271.5zM389 410q0 -80 43 -116t137 -36l115 549q-111 0 -172 -51t-90 -162q-12 -39 -29 -123q-4 -45 -4 -61zM924 258q110 0 170.5 50t91.5 163q4 14 28 123q6 35 7 63q0 78 -44 114t-139 36 z" />
<glyph unicode="&#x445;" horiz-adv-x="1214" d="M-92 41q0 18 12 33l451 483l-217 436q-4 12 -4 17q0 20 15 37.5t38 17.5h254q39 0 55 -37l129 -248l236 248q31 37 71 37h273q18 0 29.5 -11.5t11.5 -29.5t-15 -33l-426 -461l226 -458q6 -12 6 -25q0 -20 -14.5 -33.5t-39.5 -13.5h-262q-35 0 -53 33l-135 266l-252 -266 q-14 -14 -28.5 -23.5t-39.5 -9.5h-282q-19 0 -29 11.5t-10 29.5z" />
<glyph unicode="&#x446;" horiz-adv-x="1400" d="M39 51l205 963q4 20 22.5 35.5t40.5 15.5h256q23 0 34 -15.5t7 -35.5l-155 -735h335l156 735q4 23 22.5 37t41.5 14h256q20 0 31.5 -14.5t6.5 -36.5l-155 -735h88q23 0 34 -15.5t7 -36.5l-88 -413q-4 -23 -22.5 -38.5t-41.5 -15.5h-256q-22 0 -33.5 15.5t-7.5 38.5 l39 186h-782q-23 0 -34 15.5t-7 35.5z" />
<glyph unicode="&#x447;" horiz-adv-x="1257" d="M92 565q0 55 17 137l65 312q4 23 22.5 37t39.5 14h266q20 0 33.5 -14.5t9.5 -36.5l-62 -287q-6 -31 -6 -53q0 -43 27.5 -61.5t87.5 -18.5q78 0 129 23.5t59 68.5l72 328q4 23 22.5 37t38.5 14h279q23 0 34 -15.5t7 -35.5l-205 -963q-4 -23 -22.5 -37t-38.5 -14h-279 q-20 0 -33.5 14.5t-9.5 36.5l66 305q-106 -74 -291 -73q-158 0 -243 70.5t-85 211.5z" />
<glyph unicode="&#x448;" horiz-adv-x="1708" d="M14 51l205 963q4 23 22.5 37t39.5 14h243q23 0 34 -15.5t7 -35.5l-155 -735h223l158 735q4 23 21 37t40 14h221q20 0 33.5 -14.5t9.5 -36.5l-158 -735h224l157 735q4 23 22.5 37t39.5 14h241q23 0 35.5 -14.5t8.5 -36.5l-207 -963q-4 -23 -21.5 -37t-40.5 -14h-1362 q-22 0 -33.5 15.5t-7.5 35.5z" />
<glyph unicode="&#x449;" horiz-adv-x="1787" d="M16 51l203 963q4 20 22.5 35.5t41.5 15.5h243q20 0 31.5 -14.5t7.5 -36.5l-153 -735h223l156 735q4 23 22 37t41 14h221q23 0 34 -15.5t7 -35.5l-155 -735h223l155 735q4 20 22.5 35.5t41.5 15.5h242q23 0 34 -14.5t7 -36.5l-156 -735h86q23 0 34 -14.5t7 -37.5l-88 -413 q-4 -23 -22.5 -38.5t-41.5 -15.5h-254q-22 0 -33.5 15.5t-7.5 38.5l39 186h-1192q-23 0 -34 14.5t-7 36.5z" />
<glyph unicode="&#x44a;" horiz-adv-x="1343" d="M94 838l39 176q4 23 21.5 37t40.5 14h546q23 0 35 -15.5t8 -35.5l-59 -277h176q172 0 269.5 -75.5t97.5 -208.5q0 -35 -11 -86q-39 -178 -176 -272.5t-346 -94.5h-477q-22 0 -33.5 15.5t-7.5 35.5l156 735h-238q-23 0 -34 15.5t-7 36.5zM612 244h152q76 0 118 28.5 t56 94.5q4 14 4 41q0 90 -123 90h-153z" />
<glyph unicode="&#x44b;" horiz-adv-x="1708" d="M14 51l205 963q4 23 22.5 37t39.5 14h258q20 0 33.5 -14.5t9.5 -36.5l-62 -277h187q172 0 268 -76.5t96 -209.5q0 -45 -8 -84q-39 -178 -176 -272.5t-348 -94.5h-484q-22 0 -33.5 15.5t-7.5 35.5zM410 244h159q76 0 117 28.5t55 94.5q4 14 4 41q0 90 -122 90h-160z M1118 51l207 963q4 23 21.5 37t39.5 14h256q23 0 34.5 -15.5t6.5 -35.5l-204 -963q-4 -23 -22.5 -37t-39.5 -14h-256q-22 0 -34.5 14.5t-8.5 36.5z" />
<glyph unicode="&#x44c;" horiz-adv-x="1155" d="M14 51l205 963q4 23 22.5 37t39.5 14h258q20 0 33.5 -14.5t9.5 -36.5l-60 -277h191q172 0 269 -75.5t97 -208.5q0 -35 -10 -86q-39 -178 -176 -272.5t-346 -94.5h-492q-22 0 -33.5 15.5t-7.5 35.5zM410 244h165q76 0 118 28.5t57 94.5q4 29 4 39q0 92 -125 92h-166z" />
<glyph unicode="&#x44d;" horiz-adv-x="1228" d="M37 305q0 14 15.5 26.5t31.5 12.5h248q23 0 31 -7t16 -24q14 -45 48 -65.5t97 -20.5q82 0 134.5 46t76.5 143l2 10h-288q-18 0 -28.5 13.5t-6.5 31.5l26 123q2 18 18.5 31.5t35.5 13.5h288l2 12q6 31 7 56q0 61 -35 95t-101 34q-63 0 -106 -19.5t-80 -68.5 q-16 -16 -27.5 -23.5t-33.5 -7.5h-240q-16 0 -25.5 12t-3.5 27q25 76 90.5 150.5t185.5 126.5t292 52q221 0 339.5 -95t118.5 -273q0 -27 -8 -92q-14 -92 -41 -185q-59 -225 -222 -342.5t-421 -117.5q-176 0 -275.5 51t-133 123.5t-27.5 150.5z" />
<glyph unicode="&#x44e;" horiz-adv-x="1816" d="M14 51l205 963q4 23 22.5 37t39.5 14h256q23 0 35 -14.5t8 -36.5l-72 -334h151q70 193 234 299t395 106q221 0 340 -97t119 -273q0 -29 -8 -90q-14 -92 -39 -185q-59 -221 -223 -340.5t-422 -119.5q-227 0 -342 94t-115 268q0 39 2 59h-151l-76 -350q-4 -23 -21.5 -37 t-40.5 -14h-256q-23 0 -34 15.5t-7 35.5zM975 373q0 -68 32.5 -101.5t102.5 -33.5q84 0 135 52t80 161q27 102 35 163q6 41 6 74q0 70 -31.5 104.5t-101.5 34.5q-84 0 -136.5 -53t-78.5 -160q-27 -102 -35 -163q-8 -57 -8 -78z" />
<glyph unicode="&#x44f;" horiz-adv-x="1234" d="M-8 41q4 16 16 29l281 344q-66 43 -101.5 105.5t-35.5 133.5q0 20 8 66q39 172 176 259t350 87h483q21 0 34.5 -14.5t8.5 -36.5l-206 -963q-4 -23 -22.5 -37t-39.5 -14h-250q-23 0 -35 14.5t-8 36.5l62 287h-125l-232 -307q-25 -31 -55 -31h-272q-20 0 -30.5 12.5 t-6.5 28.5zM487 670q0 -41 28 -64.5t83 -23.5h174l51 239h-166q-74 0 -112.5 -27.5t-52.5 -88.5q-4 -25 -5 -35z" />
<glyph unicode="&#x450;" d="M68 365q0 70 14 139l14 63q59 244 232.5 381t416.5 137q219 0 330 -107.5t111 -291.5q0 -66 -17 -147l-10 -52q-6 -23 -24.5 -38t-40.5 -15h-650l-2 -12q-6 -33 -6 -66q0 -63 31 -101t92 -38q49 0 83 19.5t67 50.5q23 20 36 25t35 5h271q18 0 28.5 -12t5.5 -31 q-14 -55 -89.5 -124.5t-201.5 -119.5t-282 -50q-213 0 -328.5 97t-115.5 288zM385 1491q0 20 13.5 34.5t31.5 14.5h297q27 0 40 -7t28 -32l135 -221q6 -8 6 -20q0 -18 -11.5 -29.5t-27.5 -11.5h-209q-24 0 -39.5 7t-32.5 23l-225 224q-6 10 -6 18zM489 643h326l2 4 q8 33 8 70q0 66 -33.5 101.5t-95.5 35.5q-78 0 -132 -55.5t-75 -151.5v-4z" />
<glyph unicode="&#x451;" d="M68 365q0 70 14 139l14 63q59 244 232.5 381t416.5 137q219 0 330 -107.5t111 -291.5q0 -66 -17 -147l-10 -52q-6 -23 -24.5 -38t-40.5 -15h-650l-2 -12q-6 -33 -6 -66q0 -63 31 -101t92 -38q49 0 83 19.5t67 50.5q23 20 36 25t35 5h271q18 0 28.5 -12t5.5 -31 q-14 -55 -89.5 -124.5t-201.5 -119.5t-282 -50q-213 0 -328.5 97t-115.5 288zM418 1286l41 197q4 20 20.5 33.5t36.5 13.5h195q20 0 30.5 -13.5t6.5 -33.5l-41 -197q-4 -20 -20.5 -32.5t-36.5 -12.5h-195q-21 0 -31 12.5t-6 32.5zM489 643h326l2 4q8 33 8 70 q0 66 -33.5 101.5t-95.5 35.5q-78 0 -132 -55.5t-75 -151.5v-4zM848 1286l43 197q2 20 18.5 33.5t36.5 13.5h195q20 0 31.5 -13.5t7.5 -33.5l-43 -197q-4 -20 -19.5 -32.5t-35.5 -12.5h-197q-20 0 -30.5 12.5t-6.5 32.5z" />
<glyph unicode="&#x452;" horiz-adv-x="1337" d="M37 51l225 1053h-76q-20 0 -32.5 14.5t-8.5 36.5l19 80q4 23 22.5 37t38.5 14h76l25 117q4 20 22.5 35.5t40.5 15.5h279q20 0 31.5 -14.5t7.5 -36.5l-25 -117h256q23 0 35 -14.5t8 -36.5l-18 -80q-2 -20 -20.5 -35.5t-41.5 -15.5h-258l-49 -240q145 139 350 140 q156 0 242 -90.5t86 -243.5q0 -66 -15 -129l-86 -408q-51 -244 -218 -383t-418 -139h-70q-23 0 -34 14.5t-7 36.5l37 176q4 20 22.5 35.5t40.5 15.5h31q104 0 155.5 64.5t77.5 187.5l82 387q8 33 9 66q0 125 -134 125q-86 0 -145 -50.5t-80 -140.5l-100 -477 q-4 -23 -22.5 -37t-39.5 -14h-278q-20 0 -33.5 14.5t-9.5 36.5z" />
<glyph unicode="&#x453;" horiz-adv-x="946" d="M14 51l205 963q4 23 22.5 37t39.5 14h692q20 0 33.5 -14.5t9.5 -36.5l-39 -176q-4 -23 -22.5 -37.5t-41.5 -14.5h-383l-157 -735q-4 -23 -21.5 -37t-40.5 -14h-256q-22 0 -33.5 15.5t-7.5 35.5zM524 1243q0 18 16 35l232 223q27 25 42 32t42 7h282q16 0 24.5 -10t6.5 -29 q-4 -16 -16 -26l-324 -226q-23 -16 -41 -23t-43 -7h-195q-26 -1 -26 24z" />
<glyph unicode="&#x454;" horiz-adv-x="1228" d="M63 340q0 53 9 100q6 37 18 92.5t23 92.5q59 221 225 340.5t418 119.5q236 0 337 -95t91 -234q0 -18 -13.5 -28.5t-31.5 -10.5h-240q-16 0 -25.5 5t-15.5 17q-20 53 -56 75t-97 22q-78 0 -133.5 -47.5t-77.5 -139.5v-10h286q20 0 29.5 -12.5t5.5 -32.5l-27 -123 q-4 -18 -18 -31.5t-35 -13.5h-286l-5 -12q-6 -33 -6 -62q0 -125 135 -125q66 0 108 20.5t87 74.5q20 23 49 22h248q16 0 24.5 -12.5t4.5 -26.5q-49 -139 -189.5 -232t-382.5 -93q-227 0 -343 91t-116 269z" />
<glyph unicode="&#x455;" horiz-adv-x="1140" d="M14 236l2 18q2 23 20.5 37t37.5 14h248q14 0 18 -8q14 -8 39 -29q33 -29 61.5 -43t75.5 -14q55 0 95 21.5t48 60.5q2 8 3 22q0 37 -48.5 60.5t-181.5 50.5q-293 61 -293 258q0 37 8 70q18 84 88 160.5t186 123.5t263 47q139 0 235.5 -39.5t144.5 -99t48 -115.5l-2 -16 q-2 -20 -19.5 -35.5t-35.5 -15.5h-226q-18 0 -26 8q-23 10 -45 31q-29 25 -55.5 38t-67.5 13q-57 0 -92 -29.5t-35 -72.5q0 -33 47 -56.5t180 -48.5q168 -31 244 -101.5t76 -168.5q0 -31 -6 -62q-33 -154 -188.5 -244.5t-401.5 -90.5q-156 0 -256.5 40.5t-144.5 100 t-44 115.5z" />
<glyph unicode="&#x456;" horiz-adv-x="593" d="M0 51l203 963q4 20 22.5 35.5t40.5 15.5h256q23 0 34 -14.5t7 -36.5l-205 -963q-4 -23 -21.5 -37t-39.5 -14h-256q-23 0 -34 15.5t-7 35.5zM256 1266l41 190q4 23 23.5 38t39.5 15h256q23 0 35.5 -15t7.5 -38l-43 -190q-2 -23 -20 -38.5t-41 -15.5h-256q-23 0 -35 15.5 t-8 38.5z" />
<glyph unicode="&#x457;" horiz-adv-x="593" d="M0 51l203 963q4 20 22.5 35.5t40.5 15.5h256q23 0 34 -14.5t7 -36.5l-205 -963q-4 -23 -21.5 -37t-39.5 -14h-256q-23 0 -34 15.5t-7 35.5zM82 1286l41 197q4 20 20.5 33.5t36.5 13.5h195q20 0 30.5 -13.5t6.5 -33.5l-41 -197q-4 -20 -20.5 -32.5t-36.5 -12.5h-195 q-21 0 -31 12.5t-6 32.5zM512 1286l43 197q2 20 18.5 33.5t36.5 13.5h195q20 0 31.5 -13.5t7.5 -33.5l-43 -197q-4 -20 -19.5 -32.5t-35.5 -12.5h-197q-20 0 -30.5 12.5t-6.5 32.5z" />
<glyph unicode="&#x458;" horiz-adv-x="630" d="M-311 -338l37 176q4 23 22.5 37t38.5 14h84q117 0 147 144l207 981q4 20 22.5 35.5t41.5 15.5h268q23 0 34 -14.5t7 -36.5l-209 -989q-88 -414 -522 -414h-139q-21 0 -32 14.5t-7 36.5zM279 1266l40 190q4 23 23.5 38t40.5 15h268q23 0 35 -15t8 -38l-43 -190 q-2 -23 -20.5 -38.5t-40.5 -15.5h-268q-23 0 -35.5 15.5t-7.5 38.5z" />
<glyph unicode="&#x459;" horiz-adv-x="1802" d="M-45 53l41 191q12 41 61 51q59 10 99.5 51t73 129t65.5 246l63 293q4 23 22.5 37t39.5 14h801q23 0 34 -15.5t7 -35.5l-60 -277h158q172 0 269 -75.5t97 -208.5q0 -35 -10 -86q-39 -178 -176 -272.5t-346 -94.5h-457q-20 0 -33.5 14.5t-9.5 36.5l158 735h-201l-22 -104 q-57 -268 -129 -411.5t-187.5 -205t-314.5 -65.5q-23 0 -35 16.5t-8 36.5zM1090 244h133q76 0 117.5 28.5t56.5 94.5q4 29 4 39q0 92 -125 92h-131z" />
<glyph unicode="&#x45a;" horiz-adv-x="1802" d="M14 51l205 963q4 23 22.5 37t39.5 14h256q23 0 35 -14.5t8 -36.5l-72 -334h321l72 334q4 23 22.5 37t39.5 14h256q23 0 35 -14.5t8 -36.5l-60 -277h156q172 0 270 -75.5t98 -208.5q0 -35 -10 -86q-39 -178 -176 -272.5t-348 -94.5h-455q-23 0 -34 15.5t-7 35.5l74 350 h-321l-76 -350q-4 -23 -21.5 -37t-40.5 -14h-256q-22 0 -33.5 15.5t-7.5 35.5zM1090 244h133q76 0 116.5 28.5t55.5 94.5q4 14 4 41q0 90 -123 90h-133z" />
<glyph unicode="&#x45b;" horiz-adv-x="1339" d="M39 51l225 1053h-76q-23 0 -35 15.5t-6 35.5l17 80q4 23 22.5 37t40.5 14h74l27 117q4 23 21.5 37t39.5 14h277q23 0 35 -14.5t8 -36.5l-25 -117h256q23 0 34 -15.5t7 -35.5l-16 -80q-6 -23 -23.5 -37t-40.5 -14h-256l-51 -240q150 139 356 140q158 0 241 -89.5 t83 -240.5q0 -68 -14 -133l-107 -490q-4 -23 -21.5 -37t-39.5 -14h-279q-23 0 -35 15.5t-8 35.5l102 477q10 47 11 74q0 117 -129 117q-90 0 -150.5 -50.5t-81.5 -140.5l-102 -477q-4 -23 -21.5 -37t-40.5 -14h-276q-23 0 -35 14.5t-8 36.5z" />
<glyph unicode="&#x45c;" horiz-adv-x="1255" d="M14 51l205 963q4 23 22.5 37t39.5 14h251q23 0 34.5 -15.5t6.5 -35.5l-71 -334h96l287 352q14 14 28.5 23.5t34.5 9.5h283q20 0 30.5 -12.5t6.5 -30.5q0 -10 -15 -29l-391 -467l213 -456q4 -12 4 -19q0 -20 -16 -35.5t-39 -15.5h-270q-37 0 -56 33l-155 366h-101 l-73 -348q-4 -23 -22.5 -37t-39.5 -14h-252q-23 0 -34 15.5t-7 35.5zM582 1243q0 18 16 35l232 223q27 25 42 32t42 7h282q16 0 24.5 -10t6.5 -29q-4 -16 -16 -26l-324 -226q-23 -16 -41 -23t-43 -7h-195q-26 -1 -26 24z" />
<glyph unicode="&#x45d;" horiz-adv-x="1318" d="M55 305q0 59 17 137l121 572q4 23 22 37t41 14h272q20 0 31.5 -14.5t7.5 -36.5l-116 -559q-10 -47 -11 -76q0 -57 32 -86t99 -29q84 0 143.5 50.5t80.5 140.5l118 559q4 20 22.5 35.5t41.5 15.5h270q23 0 34 -14.5t7 -36.5l-205 -963q-4 -23 -21.5 -37t-39.5 -14h-250 q-23 0 -35 15.5t-8 35.5l16 78q-72 -78 -149.5 -113.5t-200.5 -35.5q-157 0 -248.5 83.5t-91.5 241.5zM397 1491q0 20 13.5 34.5t31.5 14.5h297q27 0 40 -7t28 -32l135 -221q6 -8 6 -20q0 -18 -11.5 -29.5t-27.5 -11.5h-209q-24 0 -39.5 7t-32.5 23l-225 224q-6 10 -6 18z " />
<glyph unicode="&#x45e;" horiz-adv-x="1222" d="M-31 -338l37 174q4 20 22.5 35.5t41.5 15.5h73q53 0 87 30t87 114l13 18l-205 946q-2 6 -2 17q0 18 8 26q6 12 19.5 19.5t29.5 7.5h232q25 0 35 -11.5t14 -31.5l112 -582l361 582q27 43 72 43h237q19 0 28 -10.5t9 -28.5q-4 -20 -12 -31l-594 -940q-100 -156 -179 -249 t-171.5 -145t-208.5 -52h-105q-23 0 -34 15.5t-7 37.5zM500 1434q0 18 8 67q4 16 16.5 27.5t30.5 11.5h172q18 0 26.5 -11t4.5 -28q-4 -29 -4 -39q0 -33 19.5 -50t68.5 -17q66 0 100.5 29.5t42.5 76.5q4 16 16.5 27.5t31.5 11.5h174q18 0 26 -11t4 -28q-31 -133 -137 -216 t-291 -83q-155 0 -232 63.5t-77 168.5z" />
<glyph unicode="&#x45f;" horiz-adv-x="1300" d="M16 51l203 963q4 20 22.5 35.5t41.5 15.5h256q23 0 34 -14.5t7 -36.5l-156 -735h336l155 735q4 20 22.5 35.5t41.5 15.5h256q23 0 34 -15.5t7 -35.5l-205 -963q-4 -23 -22.5 -37t-40.5 -14h-297l-39 -186q-4 -23 -22.5 -38.5t-41.5 -15.5h-254q-22 0 -33.5 15.5 t-7.5 38.5l39 186h-295q-23 0 -34 14.5t-7 36.5z" />
<glyph unicode="&#x462;" horiz-adv-x="1507" d="M147 51l218 1020h-172q-20 0 -30.5 13.5t-6.5 33.5l24 115q4 23 19.5 35t38.5 12h170l22 102q4 23 22.5 37.5t39.5 14.5h280q23 0 35 -14.5t8 -37.5l-22 -102h366q47 0 37 -47l-22 -115q-4 -20 -20.5 -33.5t-37.5 -13.5h-368l-27 -127h207q233 0 355 -88t122 -256 q0 -43 -14 -119q-47 -221 -221.5 -351t-440.5 -130h-541q-23 0 -34 15.5t-7 35.5zM584 295h198q82 0 137.5 51t73.5 133q6 28 6 53q0 61 -35.5 91t-103.5 30h-201z" />
<glyph unicode="&#x463;" horiz-adv-x="1163" d="M37 51l188 885h-92q-20 0 -32.5 15.5t-8.5 37.5l19 78q4 23 22.5 38t40.5 15h90l60 283q4 23 22.5 37t38.5 14h258q23 0 35 -15.5t8 -35.5l-59 -283h239q23 0 34 -15t7 -38l-18 -78q-2 -23 -20.5 -38t-41.5 -15h-241l-41 -197h176q176 0 271 -73.5t95 -208.5 q0 -35 -10 -90q-39 -178 -176 -272.5t-346 -94.5h-477q-23 0 -34 15.5t-7 35.5zM432 244h152q76 0 117.5 28.5t56.5 94.5q4 14 4 41q0 90 -123 90h-154z" />
<glyph unicode="&#x46a;" horiz-adv-x="2035" d="M-20 37q0 18 8 33l248 444q84 150 186 216.5t237 74.5h48l-375 559q-8 10 -2 25q2 18 17 31.5t32 13.5h1603q17 0 27 -10.5t10 -26.5q0 -18 -20 -39l-572 -551h48q141 -8 217.5 -74.5t97.5 -218.5l59 -444q4 -25 -13 -47.5t-42 -22.5h-289q-59 0 -61 41l-39 346 q-10 63 -37 91t-82 28h-82l-98 -455q-4 -23 -21.5 -37t-40.5 -14h-278q-23 0 -35 14.5t-8 36.5l96 455h-82q-57 0 -96 -27.5t-72 -91.5l-190 -346q-18 -41 -76 -41h-289q-35 0 -34 37zM827 1147l224 -354l368 354h-592z" />
<glyph unicode="&#x46b;" horiz-adv-x="1777" d="M-84 35q0 16 14 35l226 307q80 115 165 153.5t179 38.5h90l-225 418q-6 16 -7 27q2 23 19.5 37t38.5 14h1169q18 0 28.5 -12.5t8.5 -28.5q0 -18 -16 -35l-404 -420h76q102 0 173 -38.5t101 -143.5l97 -317q4 -9 4 -21q-2 -23 -17.5 -36t-38.5 -13h-301q-43 0 -53 33 l-82 313q-10 31 -30.5 43t-55.5 12h-37l-75 -350q-4 -23 -22.5 -37t-39.5 -14h-250q-23 0 -35 14.5t-8 36.5l76 350h-31q-66 0 -110 -55l-215 -313q-14 -16 -27.5 -24.5t-38.5 -8.5h-309q-16 0 -26.5 9t-10.5 26zM739 858l146 -305l272 305h-418z" />
<glyph unicode="&#x472;" horiz-adv-x="1464" d="M70 406q0 61 12 131q35 199 76 354q66 270 268.5 416.5t486.5 146.5q250 0 389.5 -112.5t139.5 -325.5q0 -57 -12 -125q-29 -166 -76 -354q-68 -274 -266.5 -415.5t-489.5 -141.5q-254 0 -391 107.5t-137 318.5zM473 471q0 -184 193 -184q106 0 183 64.5t109 197.5l17 67 h-481l-13 -67q-8 -57 -8 -78zM539 823h479l12 62q8 57 8 76q0 94 -50 140t-140 46q-107 0 -183.5 -64.5t-109.5 -197.5z" />
<glyph unicode="&#x473;" horiz-adv-x="1257" d="M53 344q0 49 8 96q14 92 39 185q59 217 227.5 338.5t417.5 121.5q222 0 340.5 -97t118.5 -273q0 -29 -8 -90q-14 -92 -39 -185q-59 -221 -223 -340.5t-422 -119.5q-229 0 -344 94t-115 270zM428 348q0 -70 32 -103.5t99 -33.5q86 0 137.5 51t79.5 160l8 35h-344l-6 -35 q-6 -39 -6 -74zM473 608h344l6 35q6 41 6 74q0 70 -31.5 103.5t-99.5 33.5q-86 0 -137 -52t-80 -159z" />
<glyph unicode="&#x474;" horiz-adv-x="1464" d="M207 1372q-2 27 12 44.5t41 17.5h266q31 0 47.5 -16.5t18.5 -41.5l82 -923l301 579q111 213 233.5 309.5t290.5 98.5h66q43 0 43 -41q0 -12 -2 -19l-56 -250q-2 -20 -19.5 -33.5t-37.5 -13.5h-41q-45 0 -84 -38.5t-86 -131.5l-453 -852q-37 -61 -98 -61h-315 q-33 0 -50.5 16.5t-21.5 44.5z" />
<glyph unicode="&#x475;" horiz-adv-x="1216" d="M123 1024q4 18 20.5 29.5t36.5 11.5h242q25 0 37 -13.5t14 -31.5l92 -617l246 414q55 92 101 143.5t105.5 78t147.5 26.5h82q23 0 35 -15.5t8 -37.5l-37 -172q-4 -23 -21.5 -38.5t-37.5 -15.5q-53 0 -93 -32.5t-89 -116.5l-346 -586q-16 -25 -35 -38t-47 -13h-215 q-29 0 -41.5 13.5t-18.5 37.5l-184 950q-2 8 -2 23z" />
<glyph unicode="&#x490;" horiz-adv-x="1185" d="M20 51l283 1329q4 23 22.5 38.5t41.5 15.5h561l49 235q4 23 22.5 37t38.5 14h281q20 0 33.5 -14t9.5 -37l-109 -504q-4 -23 -22.5 -38t-40.5 -15h-559l-228 -1061q-4 -23 -21 -37t-40 -14h-281q-23 0 -34 15.5t-7 35.5z" />
<glyph unicode="&#x491;" horiz-adv-x="946" d="M16 51l203 963q4 20 22.5 35.5t41.5 15.5h383l39 186q4 23 22 38.5t41 15.5h256q23 0 34 -15.5t7 -38.5l-88 -413q-4 -23 -22.5 -37.5t-41.5 -14.5h-383l-155 -735q-4 -23 -22.5 -37t-41.5 -14h-256q-20 0 -31.5 14.5t-7.5 36.5z" />
<glyph unicode="&#x492;" horiz-adv-x="1212" d="M20 639l21 102q4 20 22.5 36t40.5 16h101l125 587q4 23 21.5 38.5t39.5 15.5h893q23 0 34 -15.5t9 -38.5l-47 -215q-4 -23 -22.5 -38t-40.5 -15h-560l-67 -319h215q20 0 31.5 -14.5t7.5 -37.5l-21 -102q-4 -23 -22.5 -38t-40.5 -15h-215l-115 -535q-4 -23 -21.5 -37 t-39.5 -14h-281q-23 0 -34 15.5t-7 35.5l113 535h-99q-23 0 -35 15t-6 38z" />
<glyph unicode="&#x493;" horiz-adv-x="966" d="M-12 455l20 102q4 23 22.5 37t41.5 14h82l86 406q4 23 22.5 37t38.5 14h692q21 0 34 -14.5t9 -36.5l-39 -176q-4 -23 -22.5 -37.5t-40.5 -14.5h-383l-39 -178h184q20 0 31.5 -14t7.5 -37l-20 -102q-4 -23 -22.5 -38.5t-41.5 -15.5h-182l-76 -350q-4 -23 -21.5 -37 t-39.5 -14h-256q-23 0 -34 15.5t-7 35.5l74 350h-82q-23 0 -34 15.5t-5 38.5z" />
<glyph unicode="&#x494;" horiz-adv-x="1384" d="M23 51l280 1329q4 23 22.5 38.5t41.5 15.5h893q23 0 34 -15.5t6 -38.5l-47 -215q-2 -23 -21.5 -38t-41.5 -15h-559l-74 -346q63 41 146 63.5t178 22.5q203 0 304 -84t101 -248q0 -68 -18 -147l-23 -101q-45 -219 -218 -332.5t-458 -113.5h-16q-23 0 -34 15.5t-7 35.5 l39 184q4 23 22.5 37.5t38.5 14.5h17q111 0 164 42t69 119l17 74q6 31 6 58q0 63 -41 91.5t-125 28.5q-96 0 -161.5 -33.5t-82.5 -117.5l2 18l-71 -342q-4 -23 -22.5 -37t-41.5 -14h-279q-23 0 -34 14.5t-6 36.5z" />
<glyph unicode="&#x495;" horiz-adv-x="1200" d="M16 51l203 963q4 23 22.5 37t39.5 14h692q23 0 35 -15.5t8 -35.5l-39 -176q-4 -23 -22.5 -37.5t-41.5 -14.5h-409l-53 -247q74 41 145.5 58t165.5 17q153 0 236 -88t83 -241q0 -68 -14 -133l-12 -60q-45 -223 -214 -352t-411 -129h-45q-23 0 -35 15.5t-8 35.5l39 176 q4 23 22.5 37t40.5 14h31q92 0 148.5 56.5t76.5 154.5l9 39q8 33 8 68q0 123 -139 123q-72 0 -121 -18.5t-66 -57.5l-43 -203q-6 -23 -24.5 -37t-38.5 -14h-230q-23 0 -34 15.5t-5 35.5z" />
<glyph unicode="&#x496;" horiz-adv-x="2355" d="M-20 47q6 18 10 23l559 673l-248 623q-2 12 0 25q4 18 18.5 30.5t32.5 12.5h295q55 0 70 -41l190 -498h125l105 487q4 23 22.5 37.5t38.5 14.5h266q23 0 35 -14.5t8 -37.5l-104 -487h113l401 498q31 41 84 41h317q19 0 29 -12.5t6 -30.5q-4 -14 -14 -25l-510 -623 l168 -401h207q23 0 35 -15.5t8 -37.5l-113 -525q-4 -23 -22.5 -37t-38.5 -14h-281q-23 0 -35 15.5t-8 35.5l51 236h-53q-45 0 -64 41l-206 512h-146l-108 -502q-2 -23 -20.5 -37t-41.5 -14h-266q-23 0 -34 14.5t-9 36.5l109 502h-105l-420 -512q-29 -41 -78 -41h-342 q-18 0 -28.5 13.5t-7.5 33.5z" />
<glyph unicode="&#x497;" horiz-adv-x="1943" d="M-66 43q2 16 15 27l440 497l-174 426q-4 12 -4 21q0 20 16.5 35.5t38.5 15.5h252q35 0 51 -33l138 -352h94l73 334q4 23 21.5 37t40.5 14h250q20 0 33.5 -14.5t9.5 -36.5l-74 -334h90l287 352q14 14 28.5 23.5t34.5 9.5h283q18 0 29.5 -12.5t7.5 -30.5q-2 -14 -17 -29 l-391 -465l117 -249h182q20 0 31.5 -14.5t7.5 -37.5l-86 -413q-4 -23 -22.5 -38.5t-40.5 -15.5h-230q-23 0 -34 15.5t-7 38.5l39 186h-65q-33 0 -53 33l-158 368h-90l-76 -350q-4 -23 -22.5 -37t-38.5 -14h-250q-23 0 -35 14.5t-8 36.5l75 350h-86l-313 -368 q-27 -33 -65 -33h-308q-20 0 -30.5 12.5t-6.5 30.5z" />
<glyph unicode="&#x498;" horiz-adv-x="1386" d="M14 344q0 23 2 35q2 18 18.5 30.5t35.5 12.5h278q25 0 37 -9.5t21 -27.5q27 -100 194 -100q106 0 176 38.5t86 110.5q4 25 4 33q0 57 -49 87t-141 30h-152q-20 0 -31.5 16t-7.5 39l37 174q4 23 22.5 39t41.5 16h147q86 0 141.5 34t69.5 106q4 20 4 28q0 51 -43 81 t-121 30q-86 0 -144 -26.5t-81 -76.5q-14 -18 -28.5 -26t-38.5 -8h-283q-18 0 -28.5 12t-6.5 31q53 168 219 284.5t459 116.5q154 0 267.5 -45t174 -123t60.5 -174q0 -23 -8 -68q-46 -202 -224 -290q76 -41 110 -104.5t34 -141.5q0 -43 -11 -90q-35 -164 -174 -276.5 t-352 -147.5l-49 -230q-4 -23 -22.5 -37t-39.5 -14h-280q-20 0 -33.5 14.5t-9.5 36.5l49 234q-172 37 -251 131t-79 215z" />
<glyph unicode="&#x499;" horiz-adv-x="1185" d="M35 266l2 27q0 14 14.5 25.5t28.5 11.5h252q20 0 30.5 -7.5t16.5 -23.5q8 -39 43 -55.5t102 -16.5q70 0 114 26t56 79q2 10 2 26q0 37 -25.5 55.5t-84.5 18.5h-115q-18 0 -28.5 13.5t-6.5 31.5l27 123q2 18 18.5 31.5t34.5 13.5h111q61 0 92 21.5t41 66.5q4 20 4 29 q0 74 -109 74q-70 0 -109.5 -19.5t-66.5 -60.5q-14 -16 -27.5 -23.5t-35.5 -7.5h-242q-16 0 -24.5 11.5t-4.5 25.5q41 127 176.5 225t380.5 98q219 0 320.5 -67.5t101.5 -177.5q0 -27 -6 -58q-16 -73 -63 -131.5t-125 -93.5q63 -23 93 -72t30 -114q0 -41 -9 -76 q-23 -106 -121 -185t-253 -112l-39 -184q-4 -23 -22.5 -38.5t-41.5 -15.5h-256q-20 0 -31.5 15.5t-7.5 38.5l39 180q-150 29 -213 106.5t-63 165.5z" />
<glyph unicode="&#x49a;" horiz-adv-x="1519" d="M20 51l283 1329q4 23 21.5 38.5t40.5 15.5h280q23 0 35 -15.5t8 -38.5l-104 -485h112l402 498q31 41 84 41h317q19 0 29 -12.5t6 -30.5q-4 -14 -14 -25l-510 -623l161 -401h197q23 0 35 -15.5t8 -37.5l-113 -525q-4 -23 -22.5 -37t-40.5 -14h-279q-23 0 -35 14.5t-8 36.5 l50 236h-60v2q-20 4 -28.5 13.5t-16.5 25.5l-203 512h-143l-109 -502q-4 -23 -21 -37t-40 -14h-281q-23 0 -34 14.5t-7 36.5z" />
<glyph unicode="&#x49b;" horiz-adv-x="1271" d="M14 51l205 963q4 23 22.5 37t39.5 14h251q23 0 34.5 -15.5t6.5 -35.5l-71 -334h96l287 352q14 14 28.5 23.5t34.5 9.5h283q20 0 30.5 -12.5t6.5 -30.5q0 -10 -15 -29l-391 -467l115 -247h158q23 0 34 -14.5t7 -37.5l-89 -413q-4 -23 -22 -38.5t-41 -15.5h-227 q-23 0 -34 15.5t-7 38.5l39 186h-41q-37 0 -56 33l-155 366h-101l-73 -348q-4 -23 -22.5 -37t-39.5 -14h-252q-23 0 -34 15.5t-7 35.5z" />
<glyph unicode="&#x49c;" horiz-adv-x="1536" d="M0 51l283 1329q4 23 21.5 38.5t39.5 15.5h281q23 0 35 -15.5t8 -38.5l-115 -526h82l35 160q4 23 22.5 37t38.5 14h21q23 0 34 -15.5t7 -35.5l-33 -152l426 531q31 41 84 41h317q19 0 29 -11.5t8 -27.5q-4 -16 -14 -29l-529 -645l262 -651q2 -6 3 -21q-4 -20 -20.5 -34.5 t-35.5 -14.5h-293q-29 0 -42 11.5t-23 29.5l-215 553h-15l-34 -164q-4 -23 -21.5 -38t-40.5 -15h-20q-23 0 -34 15.5t-7 37.5l35 164h-80l-117 -543q-4 -23 -21.5 -37t-39.5 -14h-281q-23 0 -34 14.5t-7 36.5z" />
<glyph unicode="&#x49d;" horiz-adv-x="1378" d="M14 51l205 963q4 23 22.5 37t39.5 14h251q23 0 34.5 -15.5t6.5 -35.5l-77 -363h73l33 150q4 23 21.5 38t40.5 15h20q23 0 34 -15.5t7 -37.5l-33 -150h13l311 381q27 33 63 33h281q20 0 30.5 -12.5t8.5 -30.5q-2 -10 -17 -29l-391 -467l215 -456q2 -6 2 -19 q0 -20 -16 -35.5t-37 -15.5h-272q-39 0 -54 33l-170 393h-14l-33 -154q-6 -23 -24.5 -37t-38.5 -14h-19q-23 0 -35 15.5t-6 35.5l33 154h-73l-80 -375q-4 -23 -22.5 -37t-39.5 -14h-252q-23 0 -34 15.5t-7 35.5z" />
<glyph unicode="&#x4a0;" horiz-adv-x="1783" d="M154 1151l49 229q4 23 21.5 38.5t39.5 15.5h694q23 0 35.5 -15.5t7.5 -38.5l-104 -485h113l401 498q31 41 84 41h317q19 0 29 -12.5t6 -30.5q-4 -14 -14 -25l-510 -623l272 -673q4 -10 0 -23q-2 -20 -18 -33.5t-35 -13.5h-307q-45 0 -64 41l-202 512h-144l-108 -502 q-4 -23 -21.5 -37t-40.5 -14h-280q-23 0 -34 14.5t-7 36.5l223 1049h-362q-23 0 -34 15t-7 36z" />
<glyph unicode="&#x4a1;" horiz-adv-x="1505" d="M94 838l39 176q4 23 21.5 37t40.5 14h596q20 0 32.5 -14.5t7.5 -34.5v-2l-71 -334h96l287 352q14 14 28.5 23.5t34.5 9.5h283q20 0 30.5 -12.5t6.5 -30.5q0 -10 -15 -29l-391 -467l213 -456q4 -12 4 -19q0 -20 -16 -35.5t-39 -15.5h-270q-37 0 -56 33l-155 366h-101 l-73 -348q-4 -23 -22.5 -37t-39.5 -14h-252q-23 0 -34 15.5t-7 35.5l156 735h-293q-23 0 -34 15.5t-7 36.5z" />
<glyph unicode="&#x4a2;" horiz-adv-x="1601" d="M20 51l283 1329q4 23 22.5 38.5t41.5 15.5h278q23 0 35 -15.5t8 -38.5l-104 -485h485l105 485q4 23 21 38.5t40 15.5h281q22 0 33.5 -15.5t6.5 -38.5l-221 -1038h97q23 0 34 -15.5t9 -37.5l-115 -525q-4 -23 -21.5 -37t-40.5 -14h-280q-23 0 -34 15.5t-7 35.5l49 236h-96 q-23 0 -34 15.5t-7 35.5l61 285v6h2l45 211h-485l-106 -502q-4 -23 -24 -37t-42 -14h-279q-23 0 -34 14.5t-7 36.5z" />
<glyph unicode="&#x4a3;" horiz-adv-x="1390" d="M16 51l203 963q4 20 22.5 35.5t41.5 15.5h256q23 0 34 -14.5t7 -36.5l-70 -334h348l72 334q4 23 22.5 37t40.5 14h256q21 0 32 -14.5t7 -36.5l-155 -735h88q23 0 34 -15.5t7 -36.5l-88 -413q-4 -23 -22.5 -38.5t-41.5 -15.5h-256q-23 0 -34 15.5t-7 38.5l39 186h-86 q-23 0 -34 15.5t-7 35.5l49 228l27 122h-350l-76 -350q-4 -23 -22.5 -37t-39.5 -14h-256q-23 0 -34 14.5t-7 36.5z" />
<glyph unicode="&#x4a4;" horiz-adv-x="1957" d="M20 51l283 1329q4 23 21.5 38.5t40.5 15.5h280q23 0 35 -15.5t8 -38.5l-104 -485h485l105 485q2 23 20 38.5t41 15.5h795q22 0 34.5 -15.5t8.5 -38.5l-45 -215q-6 -23 -24.5 -38t-39.5 -15h-465l-225 -1061q-4 -23 -22.5 -37t-41.5 -14h-278q-23 0 -35 14.5t-8 36.5 l106 502h-483l-109 -502q-4 -23 -21 -37t-40 -14h-281q-23 0 -34 14.5t-7 36.5z" />
<glyph unicode="&#x4a5;" horiz-adv-x="1593" d="M14 51l205 963q4 23 22.5 37t39.5 14h256q23 0 35 -14.5t8 -36.5l-72 -334h348l74 334q4 23 21.5 37t39.5 14h629q22 0 34.5 -14.5t8.5 -36.5l-37 -176q-4 -20 -22.5 -36t-40.5 -16h-324l-156 -735q-4 -23 -22.5 -37t-38.5 -14h-256q-23 0 -35 14.5t-8 36.5l76 350h-350 l-76 -350q-4 -23 -21.5 -37t-40.5 -14h-256q-23 0 -34 15.5t-7 35.5z" />
<glyph unicode="&#x4aa;" horiz-adv-x="1441" d="M70 406q0 61 12 129q25 147 78 364q68 266 266.5 410.5t486.5 144.5q248 0 397.5 -107.5t149.5 -295.5q0 -51 -8 -95q-4 -18 -20.5 -30.5t-34.5 -12.5h-291q-29 0 -40 11.5t-15 42.5q-4 100 -55.5 140t-147.5 40q-231 0 -293 -258q-43 -170 -74 -344q-8 -39 -8 -80 q0 -178 193 -178q94 0 163.5 41t114.5 139q14 31 31.5 42t46.5 11h291q18 0 29.5 -12t7.5 -31q-43 -186 -191.5 -311t-359.5 -168l-49 -234q-4 -23 -22.5 -37t-39.5 -14h-280q-20 0 -34 14.5t-9 36.5l49 234q-168 35 -256 137.5t-88 270.5z" />
<glyph unicode="&#x4ab;" horiz-adv-x="1212" d="M35 365q0 27 8 84l35 165q59 225 219 348t397 123q164 0 272.5 -58t159 -141t50.5 -155l-2 -22q-2 -20 -19.5 -36t-40.5 -16h-278q-41 0 -48 41q-4 59 -34.5 87t-87.5 28q-160 0 -213 -209q-25 -111 -31 -145q-8 -57 -8 -76q0 -68 30.5 -99.5t94.5 -31.5q59 0 102 26.5 t76 83.5q12 23 26.5 33.5t36.5 10.5h279q23 0 34 -15.5t5 -38.5q-16 -55 -65.5 -124.5t-138.5 -134t-216 -93.5l-39 -186q-4 -23 -22.5 -38.5t-41.5 -15.5h-256q-23 0 -34 15.5t-6 38.5l40 190q-131 39 -207.5 132t-76.5 229z" />
<glyph unicode="&#x4ae;" horiz-adv-x="1366" d="M193 1384q0 20 15 35t38 15h254q29 0 44 -14.5t19 -30.5l174 -512l391 512q10 16 32 30.5t50 14.5h291q18 0 27.5 -9.5t9.5 -23.5q0 -16 -12 -33l-662 -881l-92 -436q-4 -23 -22.5 -37t-40.5 -14h-279q-22 0 -34.5 15.5t-8.5 35.5l92 436l-284 881q-2 6 -2 16z" />
<glyph unicode="&#x4af;" horiz-adv-x="1179" d="M115 1020q0 45 59 45h242q45 0 51 -43l96 -612l352 612q25 43 70 43h246q18 0 28.5 -10.5t10.5 -26.5q0 -12 -8 -27l-596 -958l-80 -381q-4 -23 -22.5 -37t-39.5 -14h-264q-22 0 -34.5 14.5t-8.5 36.5l86 399l-186 940q-2 8 -2 19z" />
<glyph unicode="&#x4b0;" horiz-adv-x="1366" d="M193 1384q0 20 15 35t38 15h254q29 0 44 -14.5t19 -30.5l174 -512l391 512q10 16 32 30.5t50 14.5h291q19 0 28 -9.5t9 -23.5q0 -16 -12 -33l-580 -772h137q23 0 34 -14.5t7 -36.5l-22 -107q-4 -23 -22.5 -38t-41.5 -15h-196l-70 -334q-4 -23 -22.5 -37t-40.5 -14h-279 q-23 0 -35 15.5t-8 35.5l70 334h-217q-23 0 -34 15.5t-7 37.5l22 107q4 20 22.5 35.5t41.5 15.5h159l-249 772q-2 6 -2 16z" />
<glyph unicode="&#x4b1;" horiz-adv-x="1185" d="M109 -76l20 103q4 20 22.5 35.5t41.5 15.5h106l-182 923q-2 8 -2 19q0 45 59 45h242q45 0 51 -43l96 -612l352 612q25 43 70 43h246q18 0 28.5 -10.5t10.5 -26.5q0 -13 -8 -27l-574 -923h129q23 0 34 -15.5t7 -35.5l-20 -103q-4 -23 -22.5 -38t-41.5 -15h-145l-43 -209 q-4 -23 -22.5 -37t-39.5 -14h-264q-23 0 -35 14.5t-8 36.5l45 209h-112q-23 0 -34.5 15.5t-6.5 37.5z" />
<glyph unicode="&#x4b6;" horiz-adv-x="1527" d="M170 756q0 86 20 176l99 450q4 23 21.5 37.5t39.5 14.5h279q23 0 35 -14.5t8 -37.5l-92 -432q-8 -49 -9 -63q0 -66 43 -97.5t136 -31.5q82 0 155.5 28.5t85.5 87.5l109 508q4 23 21.5 37.5t39.5 14.5h279q22 0 34.5 -14.5t8.5 -37.5l-221 -1040h96q23 0 34 -15.5t9 -37.5 l-115 -525q-4 -23 -21.5 -37t-39.5 -14h-281q-23 0 -34 15.5t-7 35.5l49 236h-96q-23 0 -34 14.5t-7 36.5l62 289v2l30 141q-55 -39 -139 -58t-172 -19q-426 0 -426 350z" />
<glyph unicode="&#x4b7;" horiz-adv-x="1325" d="M92 565q0 55 17 137l65 312q4 23 22.5 37t39.5 14h266q20 0 33.5 -14.5t9.5 -36.5l-62 -287q-6 -31 -6 -53q0 -43 27.5 -61.5t87.5 -18.5q78 0 129 23.5t59 68.5l72 328q4 23 22.5 37t38.5 14h279q22 0 33.5 -15.5t7.5 -35.5l-156 -735h78q20 0 31.5 -14.5t7.5 -37.5 l-86 -413q-4 -23 -22.5 -38.5t-41.5 -15.5h-256q-23 0 -34 15.5t-6 38.5l38 186h-98q-20 0 -33.5 14.5t-9.5 36.5l66 305q-106 -74 -291 -73q-158 0 -243 70.5t-85 211.5z" />
<glyph unicode="&#x4b8;" horiz-adv-x="1531" d="M170 764q0 66 20 168l97 450q4 23 22.5 37.5t38.5 14.5h281q20 0 33.5 -14.5t9.5 -37.5l-105 -487q-8 -45 -8 -61q0 -59 39 -91t121 -38l37 169q4 20 22.5 36t40.5 16h19q23 0 34 -14.5t7 -37.5l-35 -165q70 12 118 39.5t58 72.5l119 561q4 23 22.5 37.5t38.5 14.5h281 q20 0 33.5 -14.5t9.5 -37.5l-285 -1331q-4 -23 -22.5 -37t-38.5 -14h-281q-20 0 -33.5 14.5t-9.5 36.5l92 432q-61 -41 -164 -61l-30 -146q-4 -20 -22.5 -35.5t-41.5 -15.5h-18q-23 0 -34 14.5t-7 36.5l26 130h-32q-229 0 -341 89t-112 269z" />
<glyph unicode="&#x4b9;" horiz-adv-x="1339" d="M96 600q0 47 13 102l65 312q4 23 22.5 37t39.5 14h266q20 0 33.5 -14.5t9.5 -36.5l-66 -301q-4 -33 -4 -43q0 -98 121 -105l27 129q6 23 24.5 37t38.5 14h21q23 0 34 -15t4 -36l-24 -121q121 23 139 99l74 342q4 23 22.5 37t38.5 14h279q22 0 33.5 -15.5t7.5 -35.5 l-205 -963q-4 -23 -22.5 -37t-38.5 -14h-279q-20 0 -33.5 14.5t-9.5 36.5l72 332q-55 -31 -127 -49l-25 -115q-6 -23 -24.5 -37t-38.5 -14h-19q-23 0 -35 15.5t-6 35.5l19 94q-57 -4 -90 -4q-168 0 -262.5 75t-94.5 216z" />
<glyph unicode="&#x4ba;" horiz-adv-x="1423" d="M18 51l285 1331q4 23 22.5 37.5t39.5 14.5h280q21 0 34 -14.5t9 -37.5l-92 -432q55 39 138 58.5t173 19.5q211 0 317.5 -90t106.5 -266q0 -82 -20 -170l-97 -451q-4 -23 -22 -37t-39 -14h-281q-20 0 -33.5 14.5t-9.5 36.5l93 432q8 33 8 68q0 66 -42 95.5t-134 29.5 q-82 0 -156 -29t-86 -88l-109 -508q-4 -23 -22.5 -37t-38.5 -14h-281q-20 0 -33.5 14.5t-9.5 36.5z" />
<glyph unicode="&#x4bb;" horiz-adv-x="1339" d="M0 51l287 1352q4 23 22.5 37t38.5 14h279q23 0 35 -15.5t8 -35.5l-99 -457q70 68 150 103.5t180 35.5q160 0 255 -86t95 -247q0 -63 -14 -129l-123 -572q-4 -23 -22.5 -37t-38.5 -14h-279q-23 0 -35 14.5t-8 36.5l119 559q8 33 8 66q0 125 -133 125q-82 0 -143.5 -50.5 t-81.5 -140.5l-119 -559q-4 -23 -22.5 -37t-39.5 -14h-278q-23 0 -34 15.5t-7 35.5z" />
<glyph unicode="&#x4c0;" horiz-adv-x="673" d="M20 51l285 1331q4 23 21.5 37.5t40.5 14.5h290q20 0 34 -14.5t9 -37.5l-284 -1331q-4 -23 -22.5 -37t-39.5 -14h-293q-22 0 -33.5 15.5t-7.5 35.5z" />
<glyph unicode="&#x4c1;" horiz-adv-x="2295" d="M-20 47q6 18 10 23l559 673l-248 623q-2 12 0 25q4 18 18.5 30.5t32.5 12.5h295q55 0 70 -41l190 -498h125l105 487q4 23 22.5 37.5t38.5 14.5h266q23 0 35 -14.5t8 -37.5l-104 -487h113l401 498q31 41 84 41h317q19 0 29 -12.5t6 -30.5q-4 -14 -14 -25l-510 -623 l280 -673q4 -10 0 -23q-4 -20 -20 -33.5t-35 -13.5h-305q-47 0 -66 41l-206 512h-146l-108 -502q-2 -23 -20.5 -37t-41.5 -14h-266q-23 0 -34 14.5t-9 36.5l109 502h-105l-420 -512q-29 -41 -78 -41h-342q-18 0 -28.5 13.5t-7.5 33.5zM1036 1745q0 37 9 70q4 16 16 27t31 11 h174q18 0 26.5 -11t3.5 -27q-4 -25 -4 -35q0 -72 99 -72q119 0 139 107q4 16 16.5 27t30.5 11h174q18 0 26.5 -11t4.5 -27q-31 -133 -138.5 -215t-293.5 -82q-160 0 -237 61t-77 166z" />
<glyph unicode="&#x4c2;" horiz-adv-x="1935" d="M-66 43q2 16 15 27l440 497l-174 426q-4 12 -4 21q0 20 16.5 35.5t38.5 15.5h252q35 0 51 -33l138 -352h94l73 334q4 23 21.5 37t40.5 14h250q20 0 33.5 -14.5t9.5 -36.5l-74 -334h90l287 352q14 14 28.5 23.5t34.5 9.5h283q18 0 29.5 -12.5t7.5 -30.5q-2 -14 -17 -29 l-391 -465l215 -458q4 -12 4 -21q0 -20 -16 -34.5t-39 -14.5h-272q-33 0 -53 33l-158 368h-90l-76 -350q-4 -23 -22.5 -37t-38.5 -14h-250q-23 0 -35 14.5t-8 36.5l75 350h-86l-313 -368q-27 -33 -65 -33h-308q-20 0 -30.5 12.5t-6.5 30.5zM815 1434q0 18 8 67 q4 16 16.5 27.5t30.5 11.5h172q18 0 26.5 -11t4.5 -28q-4 -29 -4 -39q0 -33 19.5 -50t68.5 -17q66 0 100.5 29.5t42.5 76.5q4 16 16.5 27.5t31.5 11.5h174q18 0 26 -11t4 -28q-31 -133 -137 -216t-291 -83q-155 0 -232 63.5t-77 168.5z" />
<glyph unicode="&#x4cb;" horiz-adv-x="1456" d="M170 756q0 86 20 176l99 450q4 23 21.5 37.5t39.5 14.5h279q23 0 35 -14.5t8 -37.5l-92 -432q-8 -49 -9 -63q0 -66 43 -97.5t136 -31.5q82 0 155.5 28.5t85.5 87.5l109 508q4 23 21.5 37.5t39.5 14.5h279q22 0 34.5 -14.5t8.5 -37.5l-250 -1177l-33 -154 q-4 -23 -23.5 -37t-41.5 -14h-95l-51 -236q-4 -23 -21.5 -37t-39.5 -14h-279q-23 0 -35 14.5t-8 36.5l82 390q4 20 22.5 35.5t41.5 15.5h96l59 278q-55 -39 -139 -58t-172 -19q-426 0 -426 350z" />
<glyph unicode="&#x4cc;" horiz-adv-x="1239" d="M111 567q0 57 16 135l66 312q4 20 22 35.5t41 15.5h266q23 0 34 -15.5t7 -35.5l-61 -287q-6 -31 -6 -51q0 -45 26.5 -63.5t87.5 -18.5q78 0 130.5 23.5t60.5 68.5l69 328q4 23 22.5 37t41.5 14h276q23 0 34 -14.5t7 -36.5l-204 -963q-4 -23 -22.5 -37t-39.5 -14h-100 l-39 -186q-4 -23 -22.5 -38.5t-41.5 -15.5h-256q-20 0 -31.5 15.5t-7.5 38.5l66 317q4 20 22.5 35.5t40.5 15.5h78l37 174q-111 -74 -291 -73q-160 0 -244.5 70.5t-84.5 213.5z" />
<glyph unicode="&#x4cf;" horiz-adv-x="593" d="M-2 51l287 1352q4 23 22.5 37t38.5 14h256q23 0 35 -14.5t8 -36.5l-289 -1352q-4 -23 -21.5 -37t-39.5 -14h-256q-23 0 -34 15.5t-7 35.5z" />
<glyph unicode="&#x4d0;" horiz-adv-x="1484" d="M-104 39q0 10 6 22l755 1313q35 59 95 60h331q61 0 70 -60l199 -1313q2 -29 -12.5 -45t-36.5 -16h-261q-55 0 -63 49l-33 195h-534l-119 -199q-29 -45 -78 -45h-281q-18 0 -28 11.5t-10 27.5zM561 551h365l-72 522zM594 1745q0 37 9 70q4 16 16 27t31 11h174 q18 0 26.5 -11t3.5 -27q-4 -25 -4 -35q0 -72 99 -72q119 0 139 107q4 16 16.5 27t30.5 11h174q18 0 26.5 -11t4.5 -27q-31 -133 -138.5 -215t-293.5 -82q-160 0 -237 61t-77 166z" />
<glyph unicode="&#x4d1;" horiz-adv-x="1290" d="M39 338q0 70 10 123l31 145q59 227 192.5 353t339.5 126q115 0 180.5 -31.5t108.5 -90.5l12 51q4 23 21.5 37t40.5 14h242q23 0 35 -15.5t8 -35.5l-205 -963q-4 -23 -22.5 -37t-39.5 -14h-243q-23 0 -35.5 15.5t-7.5 35.5l14 64q-72 -68 -143.5 -101.5t-180.5 -33.5 q-172 0 -265 93t-93 265zM422 399q0 -66 28.5 -100.5t98.5 -34.5q90 0 146.5 56.5t78.5 142.5q23 86 33 153q4 33 4 48q0 63 -33 100t-104 37q-88 0 -139.5 -54.5t-79.5 -150.5q-20 -70 -27 -127q-6 -37 -6 -70zM459 1434q0 18 8 67q4 16 16.5 27.5t30.5 11.5h172 q18 0 26.5 -11t4.5 -28q-4 -29 -4 -39q0 -33 19.5 -50t68.5 -17q66 0 100.5 29.5t42.5 76.5q4 16 16.5 27.5t31.5 11.5h174q18 0 26 -11t4 -28q-31 -133 -137 -216t-291 -83q-155 0 -232 63.5t-77 168.5z" />
<glyph unicode="&#x4d2;" horiz-adv-x="1484" d="M-104 39q0 10 6 22l755 1313q35 59 95 60h331q61 0 70 -60l199 -1313q2 -29 -12.5 -45t-36.5 -16h-261q-55 0 -63 49l-33 195h-534l-119 -199q-29 -45 -78 -45h-281q-18 0 -28 11.5t-10 27.5zM561 551h365l-72 522zM577 1655l41 197q4 20 20.5 33.5t36.5 13.5h195 q20 0 30.5 -13.5t6.5 -33.5l-41 -197q-4 -20 -20.5 -32.5t-36.5 -12.5h-195q-21 0 -31 12.5t-6 32.5zM1007 1655l43 197q2 20 18.5 33.5t36.5 13.5h195q20 0 31.5 -13.5t7.5 -33.5l-43 -197q-4 -20 -19.5 -32.5t-35.5 -12.5h-197q-20 0 -30.5 12.5t-6.5 32.5z" />
<glyph unicode="&#x4d3;" horiz-adv-x="1290" d="M39 338q0 70 10 123l31 145q59 227 192.5 353t339.5 126q115 0 180.5 -31.5t108.5 -90.5l12 51q4 23 21.5 37t40.5 14h242q23 0 35 -15.5t8 -35.5l-205 -963q-4 -23 -22.5 -37t-39.5 -14h-243q-23 0 -35.5 15.5t-7.5 35.5l14 64q-72 -68 -143.5 -101.5t-180.5 -33.5 q-172 0 -265 93t-93 265zM422 399q0 -66 28.5 -100.5t98.5 -34.5q90 0 146.5 56.5t78.5 142.5q23 86 33 153q4 33 4 48q0 63 -33 100t-104 37q-88 0 -139.5 -54.5t-79.5 -150.5q-20 -70 -27 -127q-6 -37 -6 -70zM428 1286l41 197q4 20 20.5 33.5t36.5 13.5h195 q20 0 30.5 -13.5t6.5 -33.5l-41 -197q-4 -20 -20.5 -32.5t-36.5 -12.5h-195q-21 0 -31 12.5t-6 32.5zM858 1286l43 197q2 20 18.5 33.5t36.5 13.5h195q20 0 31.5 -13.5t7.5 -33.5l-43 -197q-4 -20 -19.5 -32.5t-35.5 -12.5h-197q-20 0 -30.5 12.5t-6.5 32.5z" />
<glyph unicode="&#x4d4;" horiz-adv-x="2015" d="M-94 43q4 12 10 20q152 272 324 548t508 765q35 57 92 58h1196q23 0 35 -15.5t8 -38.5l-43 -202q-6 -23 -24.5 -37.5t-39.5 -14.5h-608l-55 -260h563q23 0 34 -15t7 -38l-41 -186q-4 -23 -22.5 -38.5t-41.5 -15.5h-561l-57 -266h622q23 0 35.5 -15.5t5.5 -37.5l-43 -203 q-4 -23 -21 -37t-40 -14h-942q-20 0 -33.5 14.5t-9.5 36.5l43 193h-383q-84 -113 -108.5 -152t-28.5 -47q-25 -45 -76 -45h-268q-19 0 -30 13.5t-7 29.5zM582 551h288l123 571h-45z" />
<glyph unicode="&#x4d5;" horiz-adv-x="1878" d="M10 238q0 31 6 61q31 139 164 227t344 121l262 39l5 25q8 31 8 59q0 43 -25.5 63.5t-85.5 20.5q-43 0 -73.5 -15.5t-69.5 -41.5q-10 -6 -26.5 -16.5t-29.5 -16.5q-12 -14 -24 -14h-238q-18 0 -28.5 13t-5.5 32q12 55 79.5 123.5t187.5 117.5t279 49q233 0 314 -110 q158 111 350 110q227 0 332.5 -111.5t105.5 -289.5q0 -68 -16 -145l-13 -52q-4 -23 -22 -38t-41 -15h-643l-4 -12q-6 -37 -6 -68q0 -68 32.5 -102.5t88.5 -34.5q80 0 149 70q23 20 36 25t36 5h266q20 0 30.5 -12t6.5 -31q-12 -51 -86 -121.5t-200 -121.5t-286 -51 q-129 0 -220 40.5t-142 116.5q-176 -158 -442 -157q-166 0 -260.5 71.5t-94.5 186.5zM369 307q0 -39 33.5 -62.5t86.5 -23.5q91 0 158.5 58.5t91.5 173.5l9 24l-177 -28q-102 -18 -152 -55.5t-50 -86.5zM1151 643h319v8q8 35 9 74q0 61 -32 95t-91 34q-70 0 -126 -51 t-79 -152v-8z" />
<glyph unicode="&#x4d6;" horiz-adv-x="1312" d="M20 51l283 1329q4 23 22.5 38.5t41.5 15.5h966q23 0 34 -15.5t7 -38.5l-43 -202q-4 -23 -22.5 -37.5t-40.5 -14.5h-647l-58 -260h604q23 0 34 -15t7 -38l-39 -186q-4 -23 -22.5 -38.5t-40.5 -15.5h-604l-56 -266h664q23 0 34 -15.5t7 -37.5l-43 -203q-4 -23 -22.5 -37 t-38.5 -14h-984q-22 0 -34.5 14.5t-8.5 36.5zM555 1745q0 37 9 70q4 16 16 27t31 11h174q18 0 26.5 -11t3.5 -27q-4 -25 -4 -35q0 -72 99 -72q119 0 139 107q4 16 16.5 27t30.5 11h174q18 0 26.5 -11t4.5 -27q-31 -133 -138.5 -215t-293.5 -82q-160 0 -237 61t-77 166z" />
<glyph unicode="&#x4d7;" d="M68 365q0 70 14 139l14 63q59 244 232.5 381t416.5 137q219 0 330 -107.5t111 -291.5q0 -66 -17 -147l-10 -52q-6 -23 -24.5 -38t-40.5 -15h-650l-2 -12q-6 -33 -6 -66q0 -63 31 -101t92 -38q49 0 83 19.5t67 50.5q23 20 36 25t35 5h271q18 0 28.5 -12t5.5 -31 q-14 -55 -89.5 -124.5t-201.5 -119.5t-282 -50q-213 0 -328.5 97t-115.5 288zM448 1434q0 18 8 67q4 16 16.5 27.5t30.5 11.5h172q18 0 26.5 -11t4.5 -28q-4 -29 -4 -39q0 -33 19.5 -50t68.5 -17q66 0 100.5 29.5t42.5 76.5q4 16 16.5 27.5t31.5 11.5h174q18 0 26 -11t4 -28 q-31 -133 -137 -216t-291 -83q-155 0 -232 63.5t-77 168.5zM489 643h326l2 4q8 33 8 70q0 66 -33.5 101.5t-95.5 35.5q-78 0 -132 -55.5t-75 -151.5v-4z" />
<glyph unicode="&#x4d8;" horiz-adv-x="1460" d="M88 483q0 102 25 222l10 45q8 31 31.5 50t54.5 19h803q6 23 8 40.5t4 29.5q8 41 8 82q0 176 -192 176q-86 0 -147.5 -31t-98.5 -106q-16 -31 -32.5 -42.5t-45.5 -11.5h-280q-18 0 -28.5 12.5t-6.5 30.5q29 123 130 227.5t251.5 166t324.5 61.5q252 0 390.5 -111.5 t138.5 -322.5q0 -68 -11 -121q-34 -198 -77 -364q-70 -272 -266.5 -413.5t-487.5 -141.5q-248 0 -377 133t-129 370zM473 475q0 -92 48 -140t141 -48q227 0 288 258l19 69h-475l-9 -41q-12 -55 -12 -98z" />
<glyph unicode="&#x4d9;" d="M33 379q0 66 16 147l10 52q6 23 24.5 38t41.5 15h649l2 12q6 35 6 66q0 63 -30.5 101t-92.5 38q-49 0 -82.5 -19.5t-66.5 -50.5q-23 -20 -36 -25t-36 -5h-270q-18 0 -28.5 12t-6.5 31q14 55 90 124.5t202 119.5t282 50q213 0 328.5 -97t115.5 -288q0 -70 -14 -139 l-15 -63q-59 -244 -232 -381t-417 -137q-219 0 -329.5 107.5t-110.5 291.5zM393 348q0 -66 34 -101.5t95 -35.5q78 0 132.5 55.5t74.5 151.5v4h-326l-2 -4q-8 -33 -8 -70z" />
<glyph unicode="&#x4dc;" horiz-adv-x="2295" d="M-20 47q6 18 10 23l559 673l-248 623q-2 12 0 25q4 18 18.5 30.5t32.5 12.5h295q55 0 70 -41l190 -498h125l105 487q4 23 22.5 37.5t38.5 14.5h266q23 0 35 -14.5t8 -37.5l-104 -487h113l401 498q31 41 84 41h317q19 0 29 -12.5t6 -30.5q-4 -14 -14 -25l-510 -623 l280 -673q4 -10 0 -23q-4 -20 -20 -33.5t-35 -13.5h-305q-47 0 -66 41l-206 512h-146l-108 -502q-2 -23 -20.5 -37t-41.5 -14h-266q-23 0 -34 14.5t-9 36.5l109 502h-105l-420 -512q-29 -41 -78 -41h-342q-18 0 -28.5 13.5t-7.5 33.5zM1020 1655l41 197q4 20 20.5 33.5 t36.5 13.5h195q20 0 30.5 -13.5t6.5 -33.5l-41 -197q-4 -20 -20.5 -32.5t-36.5 -12.5h-195q-21 0 -31 12.5t-6 32.5zM1450 1655l43 197q2 20 18.5 33.5t36.5 13.5h195q20 0 31.5 -13.5t7.5 -33.5l-43 -197q-4 -20 -19.5 -32.5t-35.5 -12.5h-197q-20 0 -30.5 12.5t-6.5 32.5z " />
<glyph unicode="&#x4dd;" horiz-adv-x="1935" d="M-66 43q2 16 15 27l440 497l-174 426q-4 12 -4 21q0 20 16.5 35.5t38.5 15.5h252q35 0 51 -33l138 -352h94l73 334q4 23 21.5 37t40.5 14h250q20 0 33.5 -14.5t9.5 -36.5l-74 -334h90l287 352q14 14 28.5 23.5t34.5 9.5h283q18 0 29.5 -12.5t7.5 -30.5q-2 -14 -17 -29 l-391 -465l215 -458q4 -12 4 -21q0 -20 -16 -34.5t-39 -14.5h-272q-33 0 -53 33l-158 368h-90l-76 -350q-4 -23 -22.5 -37t-38.5 -14h-250q-23 0 -35 14.5t-8 36.5l75 350h-86l-313 -368q-27 -33 -65 -33h-308q-20 0 -30.5 12.5t-6.5 30.5zM782 1286l41 197q4 20 20.5 33.5 t36.5 13.5h195q20 0 30.5 -13.5t6.5 -33.5l-41 -197q-4 -20 -20.5 -32.5t-36.5 -12.5h-195q-21 0 -31 12.5t-6 32.5zM1212 1286l43 197q2 20 18.5 33.5t36.5 13.5h195q20 0 31.5 -13.5t7.5 -33.5l-43 -197q-4 -20 -19.5 -32.5t-35.5 -12.5h-197q-20 0 -30.5 12.5t-6.5 32.5z " />
<glyph unicode="&#x4de;" horiz-adv-x="1386" d="M14 342q0 25 2 37q2 18 18.5 30.5t35.5 12.5h278q25 0 37 -9.5t21 -27.5q27 -100 194 -100q106 0 176 38.5t86 110.5q4 25 4 33q0 57 -49 87t-141 30h-152q-20 0 -31.5 16t-7.5 39l37 174q4 23 22.5 39t41.5 16h147q86 0 141.5 34t69.5 106q4 20 4 28q0 51 -43 81 t-121 30q-86 0 -144 -26.5t-81 -76.5q-14 -18 -28.5 -26t-38.5 -8h-283q-18 0 -28.5 12t-6.5 31q53 168 219 284.5t459 116.5q154 0 267.5 -45t174 -123t60.5 -174q0 -23 -8 -68q-45 -203 -224 -290q76 -41 110 -104.5t34 -141.5q0 -43 -11 -90q-27 -131 -122 -230.5 t-245.5 -153.5t-338.5 -54q-191 0 -310.5 51t-172 133t-52.5 178zM528 1655l41 197q4 20 20.5 33.5t36.5 13.5h195q20 0 30.5 -13.5t6.5 -33.5l-41 -197q-4 -20 -20.5 -32.5t-36.5 -12.5h-195q-21 0 -31 12.5t-6 32.5zM958 1655l43 197q2 20 18.5 33.5t36.5 13.5h195 q20 0 31.5 -13.5t7.5 -33.5l-43 -197q-4 -20 -19.5 -32.5t-35.5 -12.5h-197q-20 0 -30.5 12.5t-6.5 32.5z" />
<glyph unicode="&#x4df;" horiz-adv-x="1153" d="M35 266l2 27q0 14 14.5 25.5t28.5 11.5h252q20 0 30.5 -7.5t16.5 -23.5q8 -39 43 -55.5t102 -16.5q70 0 114 26t56 79q2 10 2 26q0 37 -25.5 55.5t-84.5 18.5h-115q-18 0 -28.5 13.5t-6.5 31.5l27 123q2 18 18.5 31.5t34.5 13.5h111q61 0 92 21.5t41 66.5q4 20 4 29 q0 74 -109 74q-70 0 -109.5 -19.5t-66.5 -60.5q-14 -16 -27.5 -23.5t-35.5 -7.5h-242q-16 0 -24.5 11.5t-4.5 25.5q41 127 176.5 225t380.5 98q219 0 320.5 -67.5t101.5 -177.5q0 -27 -6 -58q-16 -74 -63 -132t-125 -93q63 -23 93 -72t30 -114q0 -41 -9 -76 q-18 -92 -92.5 -164t-197.5 -111.5t-279 -39.5q-242 0 -341 87t-99 199zM389 1286l41 197q4 20 20.5 33.5t36.5 13.5h195q20 0 30.5 -13.5t6.5 -33.5l-41 -197q-4 -20 -20.5 -32.5t-36.5 -12.5h-195q-21 0 -31 12.5t-6 32.5zM819 1286l43 197q2 20 18.5 33.5t36.5 13.5h195 q20 0 31.5 -13.5t7.5 -33.5l-43 -197q-4 -20 -19.5 -32.5t-35.5 -12.5h-197q-20 0 -30.5 12.5t-6.5 32.5z" />
<glyph unicode="&#x4e2;" horiz-adv-x="1601" d="M20 53l285 1327q2 23 20.5 38.5t41.5 15.5h280q23 0 34 -15.5t7 -38.5l-172 -809l741 824q33 39 78 39h250q23 0 34 -15.5t9 -38.5l-285 -1329q-4 -23 -22 -37t-39 -14h-281q-23 0 -35 15.5t-8 35.5l166 778l-733 -790q-31 -39 -78 -39h-250q-22 0 -34.5 15.5t-8.5 37.5z M694 1653l33 152q4 20 19.5 32.5t35.5 12.5h584q20 0 29.5 -12.5t5.5 -32.5l-31 -152q-4 -20 -20.5 -33.5t-36.5 -13.5h-582q-20 0 -30.5 13.5t-6.5 33.5z" />
<glyph unicode="&#x4e3;" horiz-adv-x="1318" d="M55 305q0 59 17 137l121 572q4 23 22 37t41 14h272q20 0 31.5 -14.5t7.5 -36.5l-116 -559q-10 -47 -11 -76q0 -57 32 -86t99 -29q84 0 143.5 50.5t80.5 140.5l118 559q4 20 22.5 35.5t41.5 15.5h270q23 0 34 -14.5t7 -36.5l-205 -963q-4 -23 -21.5 -37t-39.5 -14h-250 q-23 0 -35 15.5t-8 35.5l16 78q-72 -78 -149.5 -113.5t-200.5 -35.5q-157 0 -248.5 83.5t-91.5 241.5zM450 1284l33 152q4 20 19.5 32.5t35.5 12.5h584q20 0 29.5 -12.5t5.5 -32.5l-31 -152q-4 -20 -20.5 -33.5t-36.5 -13.5h-582q-20 0 -30.5 13.5t-6.5 33.5z" />
<glyph unicode="&#x4e4;" horiz-adv-x="1601" d="M20 53l285 1327q2 23 20.5 38.5t41.5 15.5h280q23 0 34 -15.5t7 -38.5l-172 -809l741 824q33 39 78 39h250q23 0 34 -15.5t9 -38.5l-285 -1329q-4 -23 -22 -37t-39 -14h-281q-23 0 -35 15.5t-8 35.5l166 778l-733 -790q-31 -39 -78 -39h-250q-22 0 -34.5 15.5t-8.5 37.5z M674 1655l41 197q4 20 20.5 33.5t36.5 13.5h195q20 0 30.5 -13.5t6.5 -33.5l-41 -197q-4 -20 -20.5 -32.5t-36.5 -12.5h-195q-21 0 -31 12.5t-6 32.5zM1104 1655l43 197q2 20 18.5 33.5t36.5 13.5h195q20 0 31.5 -13.5t7.5 -33.5l-43 -197q-4 -20 -19.5 -32.5t-35.5 -12.5 h-197q-20 0 -30.5 12.5t-6.5 32.5z" />
<glyph unicode="&#x4e5;" horiz-adv-x="1318" d="M55 305q0 59 17 137l121 572q4 23 22 37t41 14h272q20 0 31.5 -14.5t7.5 -36.5l-116 -559q-10 -47 -11 -76q0 -57 32 -86t99 -29q84 0 143.5 50.5t80.5 140.5l118 559q4 20 22.5 35.5t41.5 15.5h270q23 0 34 -14.5t7 -36.5l-205 -963q-4 -23 -21.5 -37t-39.5 -14h-250 q-23 0 -35 15.5t-8 35.5l16 78q-72 -78 -149.5 -113.5t-200.5 -35.5q-157 0 -248.5 83.5t-91.5 241.5zM430 1286l41 197q4 20 20.5 33.5t36.5 13.5h195q20 0 30.5 -13.5t6.5 -33.5l-41 -197q-4 -20 -20.5 -32.5t-36.5 -12.5h-195q-21 0 -31 12.5t-6 32.5zM860 1286l43 197 q2 20 18.5 33.5t36.5 13.5h195q20 0 31.5 -13.5t7.5 -33.5l-43 -197q-4 -20 -19.5 -32.5t-35.5 -12.5h-197q-20 0 -30.5 12.5t-6.5 32.5z" />
<glyph unicode="&#x4e6;" horiz-adv-x="1464" d="M72 428q0 43 10 109q35 199 76 354q70 279 247 421t476 142q158 0 284.5 -53t200.5 -156.5t74 -249.5q0 -43 -10 -104q-29 -166 -76 -354q-70 -281 -247 -419t-476 -138q-160 0 -286 51t-199.5 151.5t-73.5 245.5zM473 465q0 -178 189 -178q110 0 187 64.5t109 197.5 q45 186 72 336q8 41 8 84q0 178 -186 178q-111 0 -187.5 -64.5t-109.5 -197.5q-35 -129 -74 -336q-8 -41 -8 -84zM571 1655l41 197q4 20 20.5 33.5t36.5 13.5h195q20 0 30.5 -13.5t6.5 -33.5l-41 -197q-4 -20 -20.5 -32.5t-36.5 -12.5h-195q-21 0 -31 12.5t-6 32.5z M1001 1655l43 197q2 20 18.5 33.5t36.5 13.5h195q20 0 31.5 -13.5t7.5 -33.5l-43 -197q-4 -20 -19.5 -32.5t-35.5 -12.5h-197q-20 0 -30.5 12.5t-6.5 32.5z" />
<glyph unicode="&#x4e7;" horiz-adv-x="1255" d="M39 354q0 43 6 86q10 92 39 185q59 223 215 341.5t412 118.5q219 0 347 -101t128 -282q0 -37 -6 -77q-23 -113 -41 -185q-61 -225 -213 -342.5t-416 -117.5q-223 0 -347 99t-124 275zM414 371q0 -68 30.5 -100.5t98.5 -32.5q86 0 140 52t83 161q27 102 35 163q6 43 6 78 q0 68 -31 101.5t-98 33.5q-86 0 -139.5 -53t-79.5 -160q-10 -37 -20.5 -82t-16.5 -81q-8 -61 -8 -80zM430 1286l41 197q4 20 20.5 33.5t36.5 13.5h195q20 0 30.5 -13.5t6.5 -33.5l-41 -197q-4 -20 -20.5 -32.5t-36.5 -12.5h-195q-21 0 -31 12.5t-6 32.5zM860 1286l43 197 q2 20 18.5 33.5t36.5 13.5h195q20 0 31.5 -13.5t7.5 -33.5l-43 -197q-4 -20 -19.5 -32.5t-35.5 -12.5h-197q-20 0 -30.5 12.5t-6.5 32.5z" />
<glyph unicode="&#x4e8;" horiz-adv-x="1464" d="M45 408q0 61 12 129q29 156 76 354q66 270 268.5 416.5t489.5 146.5q248 0 387 -112.5t139 -323.5q0 -59 -12 -127q-25 -143 -74 -354q-70 -274 -267.5 -415.5t-488.5 -141.5q-254 0 -392 108.5t-138 319.5zM451 471q0 -94 50 -139t140 -45q107 0 183.5 64.5t109.5 197.5 l16 65h-479l-12 -65q-8 -57 -8 -78zM514 819h481l13 66q8 57 8 76q0 94 -50.5 140t-142.5 46q-106 0 -183 -64.5t-110 -197.5z" />
<glyph unicode="&#x4e9;" horiz-adv-x="1257" d="M53 344q0 49 8 96q14 92 39 185q59 217 227.5 338.5t417.5 121.5q222 0 340.5 -97t118.5 -273q0 -29 -8 -90q-14 -92 -39 -185q-59 -221 -223 -340.5t-422 -119.5q-229 0 -344 94t-115 270zM428 348q0 -70 32 -103.5t99 -33.5q86 0 137.5 51t79.5 160l8 35h-344l-6 -35 q-6 -39 -6 -74zM473 608h344l6 35q6 41 6 74q0 70 -31.5 103.5t-99.5 33.5q-86 0 -137 -52t-80 -159z" />
<glyph unicode="&#x4ee;" horiz-adv-x="1341" d="M100 51l50 230q4 23 22 38t41 15h78q57 0 102 23.5t90 74.5l-303 938q-2 4 -2 16q2 20 18.5 34t41.5 14h278q39 0 51 -43l172 -580l375 580q29 43 72 43h284q19 0 30 -13.5t7 -29.5q-8 -23 -18 -39l-604 -934q-109 -166 -192 -253t-184 -126t-255 -39h-111 q-23 0 -35 14.5t-8 36.5zM559 1653l33 152q4 20 19.5 32.5t35.5 12.5h584q20 0 29.5 -12.5t5.5 -32.5l-31 -152q-4 -20 -20.5 -33.5t-36.5 -13.5h-582q-20 0 -30.5 13.5t-6.5 33.5z" />
<glyph unicode="&#x4ef;" horiz-adv-x="1222" d="M-31 -338l37 174q4 20 22.5 35.5t41.5 15.5h73q53 0 87 30t87 114l13 18l-205 946q-2 6 -2 17q0 18 8 26q6 12 19.5 19.5t29.5 7.5h232q25 0 35 -11.5t14 -31.5l112 -582l361 582q27 43 72 43h237q19 0 28 -10.5t9 -28.5q-4 -20 -12 -31l-594 -940q-100 -156 -179 -249 t-171.5 -145t-208.5 -52h-105q-23 0 -34 15.5t-7 37.5zM487 1284l33 152q4 20 19.5 32.5t35.5 12.5h584q20 0 29.5 -12.5t5.5 -32.5l-31 -152q-4 -20 -20.5 -33.5t-36.5 -13.5h-582q-20 0 -30.5 13.5t-6.5 33.5z" />
<glyph unicode="&#x4f0;" horiz-adv-x="1341" d="M100 51l50 230q4 23 22 38t41 15h78q57 0 102 23.5t90 74.5l-303 938q-2 4 -2 16q2 20 18.5 34t41.5 14h278q39 0 51 -43l172 -580l375 580q29 43 72 43h284q19 0 30 -13.5t7 -29.5q-8 -23 -18 -39l-604 -934q-109 -166 -192 -253t-184 -126t-255 -39h-111 q-23 0 -35 14.5t-8 36.5zM539 1655l41 197q4 20 20.5 33.5t36.5 13.5h195q20 0 30.5 -13.5t6.5 -33.5l-41 -197q-4 -20 -20.5 -32.5t-36.5 -12.5h-195q-21 0 -31 12.5t-6 32.5zM969 1655l43 197q2 20 18.5 33.5t36.5 13.5h195q20 0 31.5 -13.5t7.5 -33.5l-43 -197 q-4 -20 -19.5 -32.5t-35.5 -12.5h-197q-20 0 -30.5 12.5t-6.5 32.5z" />
<glyph unicode="&#x4f1;" horiz-adv-x="1222" d="M-31 -338l37 174q4 20 22.5 35.5t41.5 15.5h73q53 0 87 30t87 114l13 18l-205 946q-2 6 -2 17q0 18 8 26q6 12 19.5 19.5t29.5 7.5h232q25 0 35 -11.5t14 -31.5l112 -582l361 582q27 43 72 43h237q19 0 28 -10.5t9 -28.5q-4 -20 -12 -31l-594 -940q-100 -156 -179 -249 t-171.5 -145t-208.5 -52h-105q-23 0 -34 15.5t-7 37.5zM467 1286l41 197q4 20 20.5 33.5t36.5 13.5h195q20 0 30.5 -13.5t6.5 -33.5l-41 -197q-4 -20 -20.5 -32.5t-36.5 -12.5h-195q-21 0 -31 12.5t-6 32.5zM897 1286l43 197q2 20 18.5 33.5t36.5 13.5h195q20 0 31.5 -13.5 t7.5 -33.5l-43 -197q-4 -20 -19.5 -32.5t-35.5 -12.5h-197q-20 0 -30.5 12.5t-6.5 32.5z" />
<glyph unicode="&#x4f2;" horiz-adv-x="1341" d="M100 51l50 230q4 23 22 38t41 15h78q57 0 102 23.5t90 74.5l-303 938q-2 4 -2 16q2 20 18.5 34t41.5 14h278q39 0 51 -43l172 -580l375 580q29 43 72 43h284q19 0 30 -13.5t7 -29.5q-8 -23 -18 -39l-604 -934q-109 -166 -192 -253t-184 -126t-255 -39h-111 q-23 0 -35 14.5t-8 36.5zM510 1565q0 12 14 30l147 224q14 20 34 29.5t50 9.5h242q18 0 27.5 -10.5t5.5 -26.5q0 -12 -17 -29l-254 -227q-33 -29 -71 -29h-152q-14 0 -22.5 8t-3.5 21zM944 1565q2 12 16 30l148 224q14 20 33.5 29.5t50.5 9.5h241q33 0 33 -29q0 -20 -16 -37 l-254 -227q-33 -29 -74 -29h-150q-14 0 -22 8t-6 21z" />
<glyph unicode="&#x4f3;" horiz-adv-x="1222" d="M-31 -338l37 174q4 20 22.5 35.5t41.5 15.5h73q53 0 87 30t87 114l13 18l-205 946q-2 6 -2 17q0 18 8 26q6 12 19.5 19.5t29.5 7.5h232q25 0 35 -11.5t14 -31.5l112 -582l361 582q27 43 72 43h237q19 0 28 -10.5t9 -28.5q-4 -20 -12 -31l-594 -940q-100 -156 -179 -249 t-171.5 -145t-208.5 -52h-105q-23 0 -34 15.5t-7 37.5zM406 1247q0 12 14 31l147 223q14 20 34 29.5t50 9.5h226q33 0 32 -29q0 -20 -16 -36l-254 -228q-33 -29 -74 -28h-133q-14 0 -22 8t-4 20zM852 1247q2 12 17 31l147 223q25 39 84 39h223q18 0 27.5 -10t5.5 -27 q0 -12 -16 -28l-254 -228q-33 -29 -72 -28h-135q-31 -1 -27 28z" />
<glyph unicode="&#x4f4;" horiz-adv-x="1456" d="M170 762q0 82 20 170l97 450q4 23 22.5 37.5t38.5 14.5h281q20 0 33.5 -14.5t9.5 -37.5l-92 -432q-8 -33 -9 -67q0 -66 42 -95.5t135 -29.5q82 0 155.5 28.5t85.5 87.5l109 508q4 23 22.5 37.5t38.5 14.5h281q20 0 33.5 -14.5t9.5 -37.5l-285 -1331q-4 -23 -22.5 -37 t-38.5 -14h-281q-20 0 -33.5 14.5t-9.5 36.5l92 432q-55 -39 -138 -58t-173 -19q-211 0 -317.5 90t-106.5 266zM549 1655l41 197q4 20 20.5 33.5t36.5 13.5h195q20 0 30.5 -13.5t6.5 -33.5l-41 -197q-4 -20 -20.5 -32.5t-36.5 -12.5h-195q-21 0 -31 12.5t-6 32.5zM979 1655 l43 197q2 20 18.5 33.5t36.5 13.5h195q20 0 31.5 -13.5t7.5 -33.5l-43 -197q-4 -20 -19.5 -32.5t-35.5 -12.5h-197q-20 0 -30.5 12.5t-6.5 32.5z" />
<glyph unicode="&#x4f5;" horiz-adv-x="1257" d="M92 565q0 55 17 137l65 312q4 23 22.5 37t39.5 14h266q20 0 33.5 -14.5t9.5 -36.5l-62 -287q-6 -31 -6 -53q0 -43 27.5 -61.5t87.5 -18.5q78 0 129 23.5t59 68.5l72 328q4 23 22.5 37t38.5 14h279q23 0 34 -15.5t7 -35.5l-205 -963q-4 -23 -22.5 -37t-38.5 -14h-279 q-20 0 -33.5 14.5t-9.5 36.5l66 305q-106 -74 -291 -73q-158 0 -243 70.5t-85 211.5zM387 1286l41 197q4 20 20.5 33.5t36.5 13.5h195q20 0 30.5 -13.5t6.5 -33.5l-41 -197q-4 -20 -20.5 -32.5t-36.5 -12.5h-195q-21 0 -31 12.5t-6 32.5zM817 1286l43 197q2 20 18.5 33.5 t36.5 13.5h195q20 0 31.5 -13.5t7.5 -33.5l-43 -197q-4 -20 -19.5 -32.5t-35.5 -12.5h-197q-20 0 -30.5 12.5t-6.5 32.5z" />
<glyph unicode="&#x4f6;" horiz-adv-x="1163" d="M29 51l61 289v2l221 1038q4 23 21.5 38.5t40.5 15.5h893q22 0 33.5 -15.5t7.5 -38.5l-47 -215q-4 -23 -21.5 -38t-40.5 -15h-559l-166 -770h96q23 0 35 -15.5t8 -37.5l-112 -525q-4 -23 -22.5 -37t-41.5 -14h-278q-23 0 -35 14.5t-8 36.5l49 236h-96q-20 0 -31.5 14.5 t-7.5 36.5z" />
<glyph unicode="&#x4f7;" horiz-adv-x="946" d="M16 51l203 963q4 20 22.5 35.5t41.5 15.5h692q22 0 33.5 -15.5t7.5 -35.5l-39 -176q-4 -23 -21.5 -37.5t-40.5 -14.5h-383l-108 -507h88q20 0 31.5 -14.5t7.5 -37.5l-86 -413q-4 -23 -22.5 -38.5t-41.5 -15.5h-256q-23 0 -34 15.5t-7 38.5l39 186h-86q-23 0 -34 14.5 t-7 36.5z" />
<glyph unicode="&#x4f8;" horiz-adv-x="1955" d="M20 51l283 1331q4 23 22.5 37.5t39.5 14.5h280q23 0 35 -14.5t8 -37.5l-94 -438h186q233 0 355 -88t122 -256q0 -43 -14 -119q-47 -221 -221 -351t-440 -130h-521q-22 0 -33.5 15.5t-7.5 35.5zM457 295h178q82 0 137 51t74 133q6 29 6 53q0 61 -36 91t-103 30h-181z M833 1655l41 197q4 20 20.5 33.5t36.5 13.5h195q20 0 30.5 -13.5t6.5 -33.5l-41 -197q-4 -20 -20.5 -32.5t-36.5 -12.5h-195q-21 0 -31 12.5t-6 32.5zM1263 1655l43 197q2 20 18.5 33.5t36.5 13.5h195q20 0 31.5 -13.5t7.5 -33.5l-43 -197q-4 -20 -19.5 -32.5t-35.5 -12.5 h-197q-20 0 -30.5 12.5t-6.5 32.5zM1303 51l284 1331q4 23 22.5 37.5t39.5 14.5h290q23 0 35.5 -14.5t7.5 -37.5l-284 -1331q-4 -23 -21.5 -37t-40.5 -14h-290q-21 0 -34.5 14.5t-8.5 36.5z" />
<glyph unicode="&#x4f9;" horiz-adv-x="1708" d="M14 51l205 963q4 23 22.5 37t39.5 14h258q20 0 33.5 -14.5t9.5 -36.5l-62 -277h187q172 0 268 -76.5t96 -209.5q0 -45 -8 -84q-39 -178 -176 -272.5t-348 -94.5h-484q-22 0 -33.5 15.5t-7.5 35.5zM410 244h159q76 0 117 28.5t55 94.5q4 14 4 41q0 90 -122 90h-160z M661 1286l41 197q4 20 20.5 33.5t36.5 13.5h195q20 0 30.5 -13.5t6.5 -33.5l-41 -197q-4 -20 -20.5 -32.5t-36.5 -12.5h-195q-21 0 -31 12.5t-6 32.5zM1091 1286l43 197q2 20 18.5 33.5t36.5 13.5h195q20 0 31.5 -13.5t7.5 -33.5l-43 -197q-4 -20 -19.5 -32.5t-35.5 -12.5 h-197q-20 0 -30.5 12.5t-6.5 32.5zM1118 51l207 963q4 23 21.5 37t39.5 14h256q23 0 34.5 -15.5t6.5 -35.5l-204 -963q-4 -23 -22.5 -37t-39.5 -14h-256q-22 0 -34.5 14.5t-8.5 36.5z" />
<glyph unicode="&#x2000;" horiz-adv-x="949" />
<glyph unicode="&#x2001;" horiz-adv-x="1899" />
<glyph unicode="&#x2002;" horiz-adv-x="949" />
<glyph unicode="&#x2003;" horiz-adv-x="1899" />
<glyph unicode="&#x2004;" horiz-adv-x="633" />
<glyph unicode="&#x2005;" horiz-adv-x="474" />
<glyph unicode="&#x2006;" horiz-adv-x="316" />
<glyph unicode="&#x2007;" horiz-adv-x="316" />
<glyph unicode="&#x2008;" horiz-adv-x="237" />
<glyph unicode="&#x2009;" horiz-adv-x="379" />
<glyph unicode="&#x200a;" horiz-adv-x="105" />
<glyph unicode="&#x2010;" horiz-adv-x="972" d="M90 512l43 205q6 23 24.5 37t39.5 14h645q23 0 35 -15.5t6 -35.5l-43 -205q-4 -20 -22.5 -35.5t-41.5 -15.5h-645q-22 0 -33.5 15.5t-7.5 35.5z" />
<glyph unicode="&#x2011;" horiz-adv-x="972" d="M90 512l43 205q6 23 24.5 37t39.5 14h645q23 0 35 -15.5t6 -35.5l-43 -205q-4 -20 -22.5 -35.5t-41.5 -15.5h-645q-22 0 -33.5 15.5t-7.5 35.5z" />
<glyph unicode="&#x2012;" horiz-adv-x="972" d="M90 512l43 205q6 23 24.5 37t39.5 14h645q23 0 35 -15.5t6 -35.5l-43 -205q-4 -20 -22.5 -35.5t-41.5 -15.5h-645q-22 0 -33.5 15.5t-7.5 35.5z" />
<glyph unicode="&#x2013;" horiz-adv-x="1157" d="M90 512l43 205q6 23 24.5 37t39.5 14h829q23 0 35 -15.5t6 -35.5l-43 -205q-4 -20 -22.5 -35.5t-40.5 -15.5h-830q-22 0 -33.5 15.5t-7.5 35.5z" />
<glyph unicode="&#x2014;" horiz-adv-x="1546" d="M90 512l43 205q6 23 24.5 37t39.5 14h1218q23 0 35 -15.5t6 -35.5l-43 -205q-4 -20 -22.5 -35.5t-40.5 -15.5h-1219q-22 0 -33.5 15.5t-7.5 35.5z" />
<glyph unicode="&#x2018;" horiz-adv-x="577" d="M135 958q0 12 6 25l250 414q35 57 88 57h164q16 0 26.5 -14.5t2.5 -32.5l-150 -410q-12 -30 -34.5 -50.5t-55.5 -20.5h-264q-33 0 -33 32z" />
<glyph unicode="&#x2019;" horiz-adv-x="565" d="M158 973l149 409q12 31 35 51.5t55 20.5h265q33 0 32 -33q0 -12 -6 -24l-250 -414q-35 -57 -88 -57h-164q-16 0 -26 14t-2 33z" />
<glyph unicode="&#x201a;" horiz-adv-x="591" d="M-82 -106l152 409q12 31 34.5 51.5t55.5 20.5h262q18 0 26.5 -8.5t8.5 -22.5q0 -10 -8 -27l-250 -413q-35 -57 -86 -58h-164q-16 0 -26.5 14.5t-4.5 33.5z" />
<glyph unicode="&#x201c;" horiz-adv-x="1056" d="M135 958q0 12 6 25l250 414q35 57 88 57h164q16 0 26.5 -14.5t2.5 -32.5l-150 -410q-12 -31 -34.5 -51t-55.5 -20h-264q-33 -1 -33 32zM614 958q0 12 7 25l249 414q35 57 88 57h164q16 0 26.5 -14.5t2.5 -32.5l-150 -410q-12 -31 -34.5 -51t-55.5 -20h-264q-33 -1 -33 32 z" />
<glyph unicode="&#x201d;" horiz-adv-x="1042" d="M158 973l149 409q12 31 35 51.5t55 20.5h265q33 0 32 -33q0 -12 -6 -24l-250 -414q-35 -57 -88 -57h-164q-16 0 -26 14t-2 33zM633 973l151 409q13 31 35.5 51.5t54.5 20.5h263q18 0 26 -8t8 -23q0 -10 -8 -26l-250 -414q-35 -57 -86 -57h-163q-16 0 -26.5 14t-4.5 33z " />
<glyph unicode="&#x201e;" horiz-adv-x="1067" d="M-82 -106l152 409q12 31 34.5 51.5t55.5 20.5h262q18 0 26.5 -8.5t8.5 -22.5q0 -10 -8 -27l-250 -413q-35 -57 -86 -58h-164q-16 0 -26.5 14.5t-4.5 33.5zM395 -106l152 409q10 31 32.5 51.5t57.5 20.5h262q16 0 25.5 -9.5t9.5 -23.5q0 -8 -8 -25l-250 -413 q-35 -57 -88 -58h-162q-16 0 -26.5 14.5t-4.5 33.5z" />
<glyph unicode="&#x2022;" horiz-adv-x="784" d="M143 629q0 80 46.5 152.5t121 116.5t154.5 44q92 0 150.5 -58.5t58.5 -146.5q0 -80 -46 -152.5t-121 -116.5t-155 -44q-92 0 -150.5 58.5t-58.5 146.5z" />
<glyph unicode="&#x2026;" horiz-adv-x="1540" d="M16 51l54 244q4 23 22.5 38t38.5 15h244q20 0 32.5 -15.5t8.5 -37.5l-51 -244q-4 -20 -22.5 -35.5t-41.5 -15.5h-244q-22 0 -33.5 15.5t-7.5 35.5zM508 51l51 244q4 23 22.5 38t41.5 15h241q23 0 35 -15.5t8 -37.5l-51 -244q-4 -23 -23.5 -37t-41.5 -14h-242 q-23 0 -34 14.5t-7 36.5zM999 51l52 244q4 23 22.5 38t38.5 15h244q23 0 35 -16.5t8 -36.5l-53 -244q-4 -20 -22.5 -35.5t-41.5 -15.5h-244q-20 0 -31.5 14.5t-7.5 36.5z" />
<glyph unicode="&#x202f;" horiz-adv-x="379" />
<glyph unicode="&#x2039;" horiz-adv-x="708" d="M92 623l23 102q10 35 43 61l514 412q18 16 39 16q18 0 27.5 -13t4.5 -32l-43 -202q-8 -31 -19 -48.5t-36 -37.5l-254 -207l166 -207q25 -27 25 -55q0 -6 -4 -31l-46 -203q-4 -18 -19 -31.5t-34 -13.5q-17 1 -33 17l-335 411q-20 29 -19 62z" />
<glyph unicode="&#x203a;" horiz-adv-x="708" d="M51 178l43 203q8 31 19.5 47t36.5 39l253 207l-165 207q-23 29 -23 53q0 8 4 33l43 202q4 18 19.5 31.5t33.5 13.5q16 0 33 -16l336 -412q25 -27 18 -61l-22 -102q-6 -33 -43 -62l-514 -411q-18 -16 -37 -17q-18 0 -28.5 13.5t-6.5 31.5z" />
<glyph unicode="&#x205f;" horiz-adv-x="474" />
<glyph unicode="&#x20ac;" horiz-adv-x="1615" d="M74 633l35 170q6 23 24.5 37t38.5 14h125l4 23q66 291 245 434t484 143q164 0 297 -50t209 -141.5t76 -209.5q0 -33 -6 -68q-2 -18 -17.5 -31.5t-34.5 -13.5h-294q-27 0 -40.5 12.5t-17.5 42.5q-10 80 -59 116t-142 36q-250 0 -305 -291v-2h279q23 0 34 -15.5t7 -35.5 l-35 -170q-4 -20 -22.5 -35.5t-40.5 -15.5h-279q-18 -70 -18 -123q0 -172 188 -172q193 0 274 151q16 31 35 43.5t47 12.5h291q18 0 29.5 -13.5t7.5 -31.5q-51 -215 -235.5 -342t-477.5 -127q-254 0 -408.5 112.5t-154.5 323.5q0 68 23 162v4h-125q-23 0 -34 14t-7 37z" />
<glyph unicode="&#x2122;" horiz-adv-x="1323" d="M225 1309l17 80q2 20 17 32.5t36 12.5h387q20 0 30.5 -12.5t6.5 -32.5l-19 -80q-4 -20 -19 -32.5t-36 -12.5h-106l-70 -330q-2 -20 -17.5 -32.5t-35.5 -12.5h-84q-21 0 -31 12t-6 33l72 330h-107q-20 0 -29.5 12t-5.5 33zM680 934l98 455q2 20 17.5 32.5t35.5 12.5h80 q33 0 52 -45l69 -172l144 172q37 45 69 45h80q20 0 30.5 -12.5t6.5 -32.5l-98 -455q-2 -20 -17.5 -32.5t-36.5 -12.5h-84q-20 0 -30.5 12t-5.5 33l43 196l-58 -69q-20 -23 -32.5 -32t-30.5 -9h-43q-18 0 -26.5 9t-16.5 32l-31 69l-41 -196q-2 -20 -17.5 -32.5t-35.5 -12.5 h-84q-21 0 -31 12t-6 33z" />
<glyph unicode="&#x25fc;" horiz-adv-x="1064" d="M0 0v1065h1065v-1065h-1065z" />
</font>
</defs>
</svg>
