<svg xmlns="http://www.w3.org/2000/svg" xmlns:xlink="http://www.w3.org/1999/xlink" width="174" height="108" viewBox="0 0 174 108"><defs><path id="kcz7a" d="M873.6 113.42h11.89v3.11h-4.02v9.53h-3.9v-9.53h-3.97zm12.9 0h3.9v4.41h4.26v-4.4h3.94v12.63h-3.94v-5.12h-4.25v5.12h-3.9zm13.63 0h10.43v2.72h-6.53v2h6.06v2.57h-6.06v2.48h6.73v2.87h-10.63zm18.58 0h5.16l1.97 7.68 1.97-7.68h5.11v12.64h-3.18v-9.64l-2.48 9.64h-2.92l-2.44-9.64v9.64h-3.19zm15.12 6.3c0-2.04.59-3.66 1.73-4.8 1.14-1.14 2.76-1.73 4.8-1.73 2.1 0 3.74.55 4.85 1.7 1.14 1.13 1.69 2.7 1.69 4.72a7.5 7.5 0 0 1-.75 3.62 5.31 5.31 0 0 1-2.16 2.2c-.95.51-2.13.79-3.5.79-1.42 0-2.6-.24-3.55-.67a5.48 5.48 0 0 1-2.28-2.17 7.2 7.2 0 0 1-.83-3.66zm3.9 0c0 1.26.23 2.2.7 2.76.48.55 1.15.83 1.93.83.83 0 1.5-.28 1.97-.83.48-.55.71-1.54.71-2.95 0-1.18-.23-2.05-.7-2.6a2.47 2.47 0 0 0-1.98-.83c-.78 0-1.41.28-1.88.83-.52.59-.75 1.53-.75 2.8zm10.27-6.3h3.66l4.73 6.97v-6.97h3.7v12.64h-3.7l-4.73-6.93v6.93H948zm13.94 0h10.43v2.72h-6.53v2h6.06v2.57h-6.06v2.48h6.73v2.87h-10.63zm11.1 0h4.33l2.56 4.26 2.56-4.26h4.33l-4.92 7.37v5.27h-3.94v-5.27zm31.89 0v3.11h-3.98v9.53h-3.9v-9.53h-3.97v-3.1zm1.02 0h10.44v2.72h-6.54v2h6.06v2.57h-6.06v2.48h6.73v2.87h-10.63zm20.51 10.55h-4.4l-.64 2.1h-3.97l4.76-12.65h4.3l4.72 12.64h-4.1zm-.82-2.75l-1.38-4.53-1.38 4.53zm6.37-7.8h5.16l1.97 7.68 1.97-7.68h5.12v12.64h-3.2v-9.64l-2.47 9.64h-2.92l-2.44-9.64v9.64h-3.19z"/><path id="kcz7b" d="M1040.36 35.99v18.18h-51.41l-21.3 44.77h-15.08l-21.3-44.77h-51.45V36h61.65l18.62 40.35 18.62-40.35z"/><path id="kcz7c" d="M942.5 107.6h-16.66V57.9h2.2l14.45 29.65z"/><path id="kcz7d" d="M977.73 107.6h16.6V57.9h-2.2l-14.4 29.65z"/><path id="kcz7e" d="M897.57 108.38V57.91h16.61v50.47z"/><path id="kcz7f" d="M1006 108.38V57.91h16.6v50.47z"/><path id="kcz7g" d="M931.23 137.24h2.28c.6 0 1.07-.12 1.38-.4.32-.27.48-.62.48-1.1 0-.47-.16-.82-.52-1.1a2.3 2.3 0 0 0-1.37-.39h-2.29v3zm-3.46 6.54v-12.56h5.9c1.81 0 3.2.43 4.1 1.34.74.75 1.1 1.73 1.1 2.99 0 .9-.24 1.7-.67 2.32a3.96 3.96 0 0 1-1.89 1.46l3 4.37h-4.02l-2.52-3.82h-1.54v3.82h-3.46z"/><path id="kcz7h" d="M939.77 138.27v-7.05h3.55v6.97c0 .86.2 1.53.63 2 .4.44.98.67 1.69.67.7 0 1.3-.2 1.7-.63.39-.43.62-1.06.62-1.92v-7.1h3.55v6.98c0 .98-.12 1.85-.4 2.6a4.53 4.53 0 0 1-3.03 2.87c-.7.24-1.53.35-2.44.35-1.85 0-3.27-.47-4.3-1.41-1.05-.99-1.57-2.4-1.57-4.33z"/><path id="kcz7i" d="M952.21 141.93l1.93-2.33c1.26.99 2.6 1.5 4.06 1.5.47 0 .83-.08 1.06-.24.24-.15.36-.39.36-.67 0-.27-.16-.47-.44-.66a7.03 7.03 0 0 0-1.65-.56l-1.1-.27c-.32-.08-.63-.2-.99-.32a6.86 6.86 0 0 1-.9-.39c-.24-.16-.47-.31-.71-.51s-.43-.4-.55-.63c-.16-.24-.24-.51-.36-.83a4.06 4.06 0 0 1-.11-1.02 3.6 3.6 0 0 1 1.33-2.92 5.23 5.23 0 0 1 3.55-1.1c2.04 0 3.78.55 5.15 1.66l-1.73 2.44a6 6 0 0 0-3.5-1.22c-.4 0-.71.08-.95.23a.75.75 0 0 0-.31.6c0 .27.16.5.43.66.28.16.87.36 1.73.55.8.16 1.42.36 1.97.55.55.2 1.03.48 1.46.75.43.32.75.67.94 1.1.2.44.32.95.32 1.54 0 1.26-.47 2.24-1.38 3-.9.74-2.16 1.1-3.7 1.1-1.14 0-2.2-.16-3.23-.52a7.14 7.14 0 0 1-2.68-1.5z"/><path id="kcz7j" d="M963.55 141.93l1.93-2.33c1.26.99 2.6 1.5 4.06 1.5.47 0 .82-.08 1.06-.24.24-.15.35-.39.35-.67 0-.27-.15-.47-.43-.66a7.03 7.03 0 0 0-1.65-.56l-1.1-.27c-.32-.08-.63-.2-.99-.32a6.86 6.86 0 0 1-.9-.39 7.98 7.98 0 0 1-.71-.51c-.24-.2-.44-.4-.55-.63-.16-.24-.24-.51-.36-.83a4.06 4.06 0 0 1-.12-1.02 3.6 3.6 0 0 1 1.34-2.92 5.23 5.23 0 0 1 3.55-1.1c2.04 0 3.77.55 5.15 1.66l-1.73 2.44a6 6 0 0 0-3.5-1.22c-.4 0-.71.08-.95.23a.75.75 0 0 0-.31.6c0 .27.15.5.43.66.28.16.87.36 1.73.55.79.16 1.42.36 1.97.55.55.2 1.02.48 1.46.75.43.32.74.67.94 1.1.2.44.32.95.32 1.54 0 1.26-.48 2.24-1.38 3-.9.74-2.17 1.1-3.7 1.1-1.14 0-2.2-.16-3.23-.52a7.15 7.15 0 0 1-2.68-1.5z"/><path id="kcz7k" d="M975.88 143.78v-12.56h3.46v12.56z"/><path id="kcz7l" d="M985.87 138.82h2.84l-1.42-3.59zm-5.55 4.96l5.36-12.64h3.34l5.36 12.64h-3.74l-.9-2.25h-4.85l-.9 2.25z"/></defs><g><g transform="translate(-873 -36)"><g><use fill="#fff" xlink:href="#kcz7a"/></g><g><use fill="#fff" xlink:href="#kcz7b"/></g><g><use fill="#fff" xlink:href="#kcz7c"/></g><g><use fill="#fff" xlink:href="#kcz7d"/></g><g><use fill="#fff" xlink:href="#kcz7e"/></g><g><use fill="#fff" xlink:href="#kcz7f"/></g><g><g><use fill="#fff" xlink:href="#kcz7g"/></g><g><use fill="#fff" xlink:href="#kcz7h"/></g><g><use fill="#fff" xlink:href="#kcz7i"/></g><g><use fill="#fff" xlink:href="#kcz7j"/></g><g><use fill="#fff" xlink:href="#kcz7k"/></g><g><use fill="#fff" xlink:href="#kcz7l"/></g></g></g></g></svg>