<svg xmlns="http://www.w3.org/2000/svg" xmlns:xlink="http://www.w3.org/1999/xlink" width="237" height="13" viewBox="0 0 237 13"><defs><path id="ivkma" d="M101.3 845.45h11.2v2.93h-3.79v8.97h-3.66v-8.97h-3.75zm12.16 0h3.67v4.15h4v-4.15h3.7v11.9h-3.7v-4.82h-4v4.82h-3.67zm12.82 0h9.82v2.56h-6.15v1.89h5.7v2.4h-5.7v2.34h6.34v2.7h-10zm17.5 0h4.85l1.85 7.23 1.85-7.23h4.82v11.9h-3v-9.08l-2.34 9.08h-2.74l-2.3-9.08v9.08h-3zm14.22 5.93c0-1.93.56-3.44 1.63-4.52 1.08-1.07 2.6-1.63 4.53-1.63 1.96 0 3.52.52 4.55 1.6 1.08 1.07 1.6 2.55 1.6 4.44 0 1.4-.23 2.52-.7 3.41a5 5 0 0 1-2.05 2.08c-.88.48-2 .74-3.3.74a7.99 7.99 0 0 1-3.33-.63 5.16 5.16 0 0 1-2.15-2.04 6.78 6.78 0 0 1-.78-3.45zm3.67.04c0 1.18.22 2.07.67 2.6a2.3 2.3 0 0 0 1.81.77c.78 0 1.41-.26 1.86-.78.44-.52.67-1.44.67-2.78 0-1.1-.23-1.92-.67-2.44a2.33 2.33 0 0 0-1.85-.78c-.75 0-1.34.26-1.78.78-.49.55-.7 1.4-.7 2.63zm9.67-5.97h3.45l4.45 6.56v-6.56h3.48v11.9h-3.48l-4.45-6.52v6.52h-3.45zm13.12 0h9.82v2.56h-6.15v1.89h5.7v2.4h-5.7v2.34h6.34v2.7h-10zm10.45 0H199l2.4 4 2.42-4h4.07l-4.63 6.93v4.97h-3.7v-4.97zm30.02 0v2.93h-3.74v8.97h-3.67v-8.97h-3.74v-2.93zm.97 0h9.82v2.56h-6.16v1.89h5.71v2.4h-5.7v2.34h6.33v2.7h-10zm19.3 9.93h-4.15l-.6 1.97h-3.73l4.48-11.9h4.04l4.45 11.9h-3.86zm-.78-2.59l-1.3-4.26-1.29 4.26zm6-7.34h4.86l1.86 7.23 1.85-7.23h4.82v11.9h-3v-9.08l-2.34 9.08h-2.74l-2.3-9.08v9.08h-3z"/><path id="ivkmb" d="M278.56 850.87h2.15c.55 0 1-.1 1.3-.37.29-.26.44-.6.44-1.04 0-.44-.15-.77-.48-1.03-.3-.23-.74-.37-1.3-.37h-2.15v2.81zm-3.26 6.15V845.2h5.56c1.7 0 3 .41 3.85 1.26.7.7 1.04 1.63 1.04 2.82 0 .85-.23 1.6-.63 2.19-.41.59-1 1.07-1.78 1.37l2.81 4.11h-3.78l-2.37-3.6h-1.44v3.6h-3.26z"/><path id="ivkmc" d="M286.6 851.84v-6.64h3.33v6.56c0 .82.19 1.45.6 1.9.37.4.92.62 1.6.62.66 0 1.21-.18 1.58-.6.38-.4.6-1 .6-1.8v-6.68h3.33v6.56c0 .93-.1 1.74-.37 2.45a4.27 4.27 0 0 1-2.85 2.7c-.67.23-1.45.34-2.3.34-1.74 0-3.07-.45-4.04-1.34-1-.92-1.48-2.26-1.48-4.07z"/><path id="ivkmd" d="M298.31 855.28l1.82-2.18a6.08 6.08 0 0 0 3.81 1.4c.45 0 .78-.07 1-.22a.73.73 0 0 0 .34-.63c0-.26-.15-.44-.41-.63a6.6 6.6 0 0 0-1.56-.52l-1.04-.26c-.3-.07-.59-.18-.92-.3-.34-.1-.63-.25-.85-.36-.23-.15-.45-.3-.67-.48-.22-.19-.4-.38-.52-.6-.15-.22-.22-.48-.33-.78-.08-.3-.11-.59-.11-.96 0-1.11.4-2.04 1.26-2.74a4.93 4.93 0 0 1 3.33-1.04c1.93 0 3.56.52 4.86 1.56l-1.63 2.3a5.65 5.65 0 0 0-3.3-1.15c-.37 0-.67.07-.9.22a.7.7 0 0 0-.29.55c0 .26.15.49.4.63.27.15.82.34 1.64.52.74.15 1.33.34 1.85.52.52.19.97.45 1.37.7.41.3.7.64.9 1.04.18.41.29.9.29 1.45 0 1.18-.45 2.11-1.3 2.82a5.35 5.35 0 0 1-3.48 1.03 9.16 9.16 0 0 1-3.04-.48 6.72 6.72 0 0 1-2.52-1.4z"/><path id="ivkme" d="M308.98 855.28l1.82-2.18a6.08 6.08 0 0 0 3.82 1.4c.44 0 .77-.07 1-.22a.73.73 0 0 0 .33-.63c0-.26-.15-.44-.4-.63a6.61 6.61 0 0 0-1.56-.52l-1.04-.26c-.3-.07-.6-.18-.93-.3-.33-.1-.63-.25-.85-.36-.22-.15-.45-.3-.67-.48-.22-.19-.4-.38-.52-.6-.14-.22-.22-.48-.33-.78-.07-.3-.11-.59-.11-.96 0-1.11.4-2.04 1.26-2.74a4.93 4.93 0 0 1 3.33-1.04c1.93 0 3.56.52 4.86 1.56l-1.63 2.3a5.65 5.65 0 0 0-3.3-1.15c-.37 0-.67.07-.89.22a.7.7 0 0 0-.3.55c0 .26.15.49.41.63.26.15.82.34 1.63.52.74.15 1.34.34 1.86.52.51.19.96.45 1.37.7.4.3.7.64.89 1.04.18.41.3.9.3 1.45 0 1.18-.45 2.11-1.3 2.82a5.35 5.35 0 0 1-3.49 1.03 9.16 9.16 0 0 1-3.04-.48 6.73 6.73 0 0 1-2.52-1.4z"/><path id="ivkmf" d="M320.58 857.02V845.2h3.26v11.82z"/><path id="ivkmg" d="M330 852.36h2.66l-1.33-3.38zm-5.23 4.66l5.04-11.9h3.15l5.04 11.9h-3.52l-.85-2.1h-4.56l-.85 2.1z"/></defs><g><g transform="translate(-101 -845)"><g><g><use fill="#fff" xlink:href="#ivkma"/></g><g><g><use fill="#fff" xlink:href="#ivkmb"/></g><g><use fill="#fff" xlink:href="#ivkmc"/></g><g><use fill="#fff" xlink:href="#ivkmd"/></g><g><use fill="#fff" xlink:href="#ivkme"/></g><g><use fill="#fff" xlink:href="#ivkmf"/></g><g><use fill="#fff" xlink:href="#ivkmg"/></g></g></g></g></g></svg>