<svg xmlns="http://www.w3.org/2000/svg" xmlns:xlink="http://www.w3.org/1999/xlink" width="214" height="129"><defs><path id="a" d="M1602.85 1952.69c-1.14.2-2.86.45-4.5.77-1.85.4-2.63-.14-2.34-2 .37-2.41.86-4.82 1.49-7.17.8-3.12 1.6-6.27 2.75-9.28 1.23-3.27 2.6-6.5 4.41-9.48a143.2 143.2 0 0 1 9.2-13.73c3.15-4.1 7.36-7.19 12.34-8.68 3.38-1 7.02-1.06 9.77 1.67 2.12 2.09 3.38 4.87 4.16 7.79 1.23 4.7 1.08 9.48.77 14.24-.49 7.65-4.5 13.35-11 17.04-3.81 2.15-8.05 3.67-12.23 5.01-4.67 1.5-9.52 2.47-14.82 3.82zm-38.9 15.3a75.07 75.07 0 0 1-11.74 20.48 49.33 49.33 0 0 1-7.2 7.27 72.76 72.76 0 0 1-10.65 7.6 45.2 45.2 0 0 1-10.52 3.98 53.58 53.58 0 0 1-10.88 1.51c-2.9.12-5.82-.43-8.65-.94-3.78-.69-7.54-1.63-11.32-2.46-1.43-1.32-3.18-2.53-3-4.82.1-1.4.48-2.8.88-4.18 1.03-3.35 3.12-6.04 5.47-8.6 3.58-3.86 7.94-6.58 12.5-9.08 2.57-1.4 5.04-3.03 7.64-4.38a38.96 38.96 0 0 1 5.56-2.26c4.27-1.43 8.48-2.92 12.8-4.1a301.52 301.52 0 0 1 16-3.8c3.77-.81 7.58-1.38 11.4-1.99.9-.14 1.88-.05 3.49-.08-.69 2.2-1.12 4.07-1.78 5.84zm-51.3-15.5c.2-.78.6-1.47.5-2.04-.82-6.04.93-11.63 2.99-17.1 1.32-3.55 3.03-6.96 4.73-10.37 1.77-3.58 4.23-6.62 6.96-9.54 3.92-4.21 8.5-7.3 14.1-8.91 4.55-1.32 9.02-1.23 13 1.8 1.46 1.12 2.72 2.5 4.07 3.76 2.77 2.57 4.7 5.81 6.13 9.22a53.52 53.52 0 0 1 4.24 21.6 82.48 82.48 0 0 1-1.67 15.01c-.23 1.15-.74 1.86-1.92 1.86-2.54 0-5.12-.02-7.67-.14-1-.03-1.75 0-1.75 1.26l.97 1.4c-.71.35-1.26.75-1.89.92-.71.2-1.52.15-2.26.26-14.73 2.38-29.28 5.39-42.8 12.06-6.13 3.04-12.2 6.13-17.36 10.66-3.75 3.3-6.96 6.96-7.02 12.52-.06 3.5 2.4 8.7 6.02 9.9 4.27 1.44 8.62 2.7 13.03 3.56a45.06 45.06 0 0 0 15.93.23 51.43 51.43 0 0 0 14.7-4.5 48.7 48.7 0 0 0 13.83-10.17c1.72-1.83 3.73-3.5 5.07-5.58 2.67-4.16 5.85-7.97 7.71-12.72 1.83-4.7 4.3-9.11 5.47-14.07.12-.54.49-1.2.95-1.46 1.54-.83 3.1-1.66 4.75-2.18 1.38-.43 2.9-.37 4.36-.6 7.36-1.23 14.72-2.46 22.08-3.72 10.95-1.87 21.72-4.39 31.72-9.34 2.37-1.2 4.7-2.58 6.33-4.84.94-1.32 2.06-2.5 3.35-4.01.49-1.38 1.23-3.1 1.69-4.87.49-1.84.95-3.73 1-5.62.26-8.8-.77-17.25-7.22-24.06-2.66-2.81-5.75-4.39-9.77-3.93-7.56.83-12.71 5.39-17.24 10.94-2.4 2.96-4.64 6.02-6.16 9.57-1.58 3.73-3.52 7.28-4.93 11.03-1.17 3.21-1.77 6.62-2.66 9.91-1.06 3.87-1.95 7.74-1.72 11.8.09 1.3-.55 2.24-1.92 2.44-3.04.46-6.04.9-9.08 1.26-1.98.23-3.98.32-5.96.55-1.92.23-3.84.63-5.79.83-.63.06-1.29-.26-1.89-.4.55-3.33 1.15-6.33 1.46-9.4.29-3.06.58-6.19.32-9.25-.37-4.36-1-8.74-2-12.98-1.96-8.14-5.48-15.33-13.04-19.82-3.41-2.04-6.96-3.61-11.03-3.04-3.3.49-6.68.89-9.74 2.06-2.84 1.09-5.27 3.15-7.88 4.79-4.35 2.72-7.53 6.67-10.05 10.94-2.44 4.12-4.13 8.74-5.93 13.23-.8 2.01-1.12 4.22-1.55 6.36-.66 3.27-1.15 6.6-.17 9.89.34 1.17.71 2.52 2.6 3.03z"/><path id="b" d="M1664.82 1979.99zm0 0c-1.7 2.63-4.33 1.72-6.62 2.03-3.4-1.43-4.58-2.52-4.47-4.41a26.88 26.88 0 0 0 11.09 2.38zm22.49-21.29l-15.64 4.15-.09-.25c.95-.75 1.75-1.72 2.8-2.2 2.87-1.33 5.54-3.27 8.89-3.39 1.89-.09 3.06.32 4.04 1.7zm-29.62 8.34c.14 1.89.86 2.63 2.32 2.6 3.03-.08 5.87-.8 8.73-1.91 5.3-2.07 10.69-3.79 16.08-5.62.54-.2 1.2-.06 2.32-.06-.75 1.23-1.1 2.15-1.72 2.78-5.16 5.19-10.77 9.66-17.88 11.92-2.95.94-5.93 1.46-8.97.49-1.49-.46-3.23-.83-4.2-1.87-.72-.77-.75-2.6-.5-3.83 1.32-6.4 4.45-11.84 8.72-16.74 5.5-6.3 11.91-11.37 19.53-14.78a27.45 27.45 0 0 1 8.25-2.17c3.78-.4 6.42 3 6.08 6.84-.43 4.73-2.64 8.71-4.79 12.75-.2.37-.66.6-1.09.95-.71-.66-1.29-1.3-1.94-1.8-3.59-2.9-7.42-2.27-11.2-.67-5.65 2.4-10.86 5.62-16.02 8.94-1.2.8-2.52 1.49-3.72 2.18zm-87.95 16.01c-.75.06-.89.06-1.06.14-.2.1-.4.23-.6.38-6.08 4.72-11.6 10-15.99 16.38-3.52 5.16-7.13 10.26-8.85 16.39-.29 1.06-.57 1.86.26 2.75.86.92 1.92 1.09 2.86.54 1.66-.94 3.5-1.89 4.76-3.26 2.37-2.58 4.44-5.42 6.5-8.22 1.17-1.58 2.12-3.33 3.18-5.02.29-.57.72-1.06 1.12-1.57 1.23-1.52 2.32-3.18 3.64-4.59 4.12-4.4 8.25-8.82 12.54-13.06a51.04 51.04 0 0 1 14.61-10.14c1.58-.72 3.38-.97 5.1-1.17.63-.06 1.66.48 1.98 1.06.66 1.17 1.37 2.6 1.29 3.86-.2 3.3-.77 6.6-1.3 9.89-.42 2.89-1.22 5.75-1.4 8.68-.17 2.52 1.81 3.8 4.22 3.15a8.43 8.43 0 0 0 2.83-1.26c3.87-2.87 7.62-5.85 11.46-8.74 4.21-3.15 8.37-6.36 12.72-9.23 2.52-1.66 5.47-2.63 8.17-4.06 3.38-1.8 6.9-2.18 10.54-1.32.69.14 1.46.86 1.83 1.52.63 1.14 1 2.43 1.5 3.66a6.8 6.8 0 0 0 5.4 4.42c4.56.71 8.94-.15 13.13-1.95 2.37-1.03 4.67-2.35 6.5-3.27 1.69-1.52 2.95-2.72 4.3-3.84 2.78-2.29 5.44-4.7 7.3-7.85.63-1.08 1.46-2.09 2.3-3.06 1.31-1.55 2.89-2.92 4-4.58a30.91 30.91 0 0 0 2.75-5.62c1.84-4.58 3.18-9.25.46-13.98-2.63-4.58-6.18-7.13-11.51-6.42-4.99.66-9.11 3.18-12.95 6.05-3.9 2.9-7.48 6.19-10.95 9.57a39.71 39.71 0 0 0-10.54 17.7c-.57 2-1.17 3.98-1.77 6.07-.6-.05-1.06-.08-1.52-.14-1.75-.23-3.47-.63-5.22-.6-5.64.08-10.3 3.12-15.1 5.61-3.35 1.78-6.44 4.07-9.53 6.28-2.93 2.09-5.7 4.4-8.54 6.62-2.7 2.09-5.36 4.2-8.08 6.27-.37.29-1.03.2-1.63.31 0-.43-.03-.57 0-.71.74-3.07 1.6-6.1 2.18-9.2.48-2.75.63-5.56 1-8.33.69-5.28-4.5-9-9.03-7.97-4.12.92-7.7 2.9-11.05 5.16-4.24 2.86-8.05 6.36-11.92 9.71-2.1 1.83-3.98 3.95-5.87 5.99-1.4 1.52-2.7 3.1-3.99 4.67-1.97 2.4-3.86 4.92-5.93 7.27-1.06 1.2-1.83 2.78-4.04 3.24.92-1.66 1.7-3.07 2.64-4.73.34-.37.95-.94 1.49-1.6 1.69-2.1 3.3-4.3 5.04-6.33 2.58-3.01 5.33-5.93 7.9-8.97.5-.57.52-1.52.87-2.55z"/><path id="c" d="M1678.14 2023.67c2.2-1.43 8.22-12.34 7.62-14.18-.43.32-.89.55-1.23.9-.69.7-1.46 1.4-1.98 2.23a186.2 186.2 0 0 0-5.3 8.88c-.43.8-.23 1.77.9 2.17zm4.33-19.22c-.9-.08-1.9.03-2.67-.34-1.29-.6-1.66-1.78-1.46-3.24.57-4.3 2.7-7.88 5.22-11.29 1.2-1.6 2.29-3.3 3.7-4.72a10.85 10.85 0 0 1 3.8-2.64c3.58-1.26 5.62.34 5.7 4.01.06 2.24-.54 4.53-1.09 6.7-.46 1.9-1.43 3.64-1.86 5.53-.26 1.1.14 2.35.26 3.84-.29.26-.95.72-1.5 1.32-2.37 2.58-3 6.1-4.75 9.02-2 3.38-4.18 6.62-6.13 10.03-1.43 2.5-3.98 3.04-6.24 4.13-.49.23-1.63-.09-1.95-.52a5.31 5.31 0 0 1-.77-4.61c1.14-3.95 3.6-7.05 6.5-9.77 2.7-2.52 5.61-4.84 8.54-7.13 1.57-1.2 2.09-2.9 2.63-4.59.83-2.63 1.72-5.27 2.3-7.96.45-2.06.48-4.24.62-6.39.03-.46-.43-.97-.74-1.69-3.5 2.32-5.42 5.64-7.3 8.88-1.95 3.3-3.59 6.76-2.38 10.89l-.43.54z"/></defs><use fill="#fff" xlink:href="#a" transform="translate(-1486 -1898)"/><use fill="#fff" xlink:href="#b" transform="translate(-1486 -1898)"/><use fill="#fff" xlink:href="#c" transform="translate(-1486 -1898)"/></svg>