<?xml version="1.0" encoding="UTF-8"?>
<!DOCTYPE svg PUBLIC "-//W3C//DTD SVG 1.1//EN" "http://www.w3.org/Graphics/SVG/1.1/DTD/svg11.dtd">
<svg xmlns="http://www.w3.org/2000/svg" xmlns:xlink="http://www.w3.org/1999/xlink">
	<defs>
		<path id="arrow-bottom-a" d="M36 1558.13l4.73 4.74 4.73-4.74"/>

		<path id="arrow-left-3-a" d="M79.25 1004l-12-12 12-12"/>
		<path id="arrow-left-3-b" d="M98.94 1004l-12-12 12-12"/>
		<path id="arrow-left-3-c" d="M118.63 1004l-12-12 12-12"/>

		<path id="arrow-left-a" d="M79.13 980l-12 12 12 12"/>

		<path id="arrow-right-3-a" d="M1847.33 1004l12-12-12-12"/>
		<path id="arrow-right-3-b" d="M1831.33 1004l12-12-12-12"/>
		<path id="arrow-right-3-c" d="M1815.33 1004l12-12-12-12"/>

		<path id="arrow-right-a" d="M1831.33 1004l12-12-12-12"/>

		<path id="cart-a" d="M1646.67 1125.91c0 .5-.4.82-.81.82a.82.82 0 0 1 0-1.64c.4-.08.81.33.81.82zm8.27-.9a.82.82 0 0 1 0 1.64.82.82 0 0 1 0-1.64zm.65-2.45l2.38-7.04c.08-.33 0-.57-.09-.66-.24-.4-.81-.4-.9-.4h-13.33l-.33-1.64a.98.98 0 0 0-.98-.82h-3.77c-.32 0-.57.16-.57.57v.98c0 .33.25.41.65.41h3.2l2.45 10.31c-.4.41-.57.99-.57 1.56 0 1.23.98 2.37 2.2 2.37 1.15 0 2.05-1.06 2.22-1.72h4.58c.16.66.82 1.8 2.2 1.8 1.24 0 2.22-1.06 2.22-2.29 0-1.22-.74-2.29-2.21-2.29-.57 0-1.31.33-1.64.82h-5.8c-.42-.65-.99-.82-1.56-.9l-.08-.41h8.83c.66-.08.74-.33.9-.65z"/>

		<path id="close-a" d="M201.98 345l9.68 9.68"/>
		<path id="close-b" d="M201.98 354.68l9.68-9.68"/>

		<path id="instagram-a" d="M197.27 533.48c0 2.2-1.78 3.98-3.98 3.98h-4.95a3.98 3.98 0 0 1-3.98-3.98v-4.96c0-2.2 1.78-3.98 3.98-3.98h4.95c2.2 0 3.98 1.79 3.98 3.98zM193.88 523h-6.14a4.93 4.93 0 0 0-4.93 4.93v6.14c0 2.72 2.2 4.93 4.93 4.93h6.14c2.73 0 4.93-2.2 4.93-4.93v-6.14a4.94 4.94 0 0 0-4.93-4.93z"/>
		<path id="instagram-b" d="M191.02 533.56a2.53 2.53 0 1 1 0-5.06 2.53 2.53 0 0 1 0 5.06zm0-6.75a4.21 4.21 0 1 0 0 8.43 4.21 4.21 0 0 0 0-8.43z"/>
		<path id="instagram-c" d="M196.02 526.75a1.08 1.08 0 0 1-2.15 0 1.08 1.08 0 0 1 2.15 0z"/>

		<path id="user-a" d="M1578 1125.33a5.02 5.02 0 0 1 4.67-4.66h10.66a5.02 5.02 0 0 1 4.67 4.66 5.02 5.02 0 0 1-4.67 4.67h-10.66a5.02 5.02 0 0 1-4.67-4.67z"/>
		<path id="user-b" d="M1583.45 1114.67a4.67 4.67 0 1 1 9.34 0 4.67 4.67 0 0 1-9.34 0z"/>

		<path id="vk-a" d="M148.12 525.93c-.26-.22-1.23-.2-2.2-.2-1 0-2 .02-2.22.1-.21.08-.7 1.23-1.3 2.4-.7 1.34-1.58 2.63-2.12 2.61-.71-.02-.53-2.2-.5-3.81.03-1.08-.13-1.42-.3-1.52a6.03 6.03 0 0 0-1.4-.5s-3.09-.23-3.52 1.12c.57.08 1.59-.12 1.2 4.02-.01.2-.47 1.9-1.9-.4-.36-.58-1.73-4-2.2-4.02-1.6-.04-3.17-.1-3.73.2-.51.28.7 2.65 2.7 5.83 1.66 2.58 3.4 4.61 6.43 5.13.56.06 2.05.12 2.5-.1.33-.16-.05-2.4 1-2.6.48-.1 2.3 2.32 3.03 2.6.41.16 1.35.24 2.3.2 1.04-.04 2.19.1 2.31-.6.26-1.55-3.12-3.56-3.22-4.51-.08-.68 1.23-1.95 1.9-2.9.86-1.22 1.76-2.63 1.24-3.05z"/>

		<path id="youtube-a" d="M1011.68 783.65v4.9l4.07-2.13h.01l.61-.32-4.7-2.45zm7.4 8.35h-11.13a2.77 2.77 0 0 1-2.38-1.15 4.74 4.74 0 0 1-.76-2.78v-4.14c0-1.15.25-2.1.71-2.78a2.66 2.66 0 0 1 2.34-1.15h11.32c1 0 1.76.39 2.22 1.15.4.65.6 1.58.6 2.78v4.14c0 1.8-.5 3.93-2.91 3.93z"/>
	</defs>
<symbol id="arrow-bottom" viewBox="0 0 13 10">

	<use fill="#fff" fill-opacity="0" stroke="red" stroke-miterlimit="50" stroke-width="4" opacity=".5" transform="translate(-34 -1556)" xlink:href="#arrow-bottom-a"/>
</symbol>
<symbol id="arrow-left-3" viewBox="0 0 61 30">

	<use fill="#fff" fill-opacity="0" stroke="#c1c1c1" stroke-miterlimit="50" stroke-width="8" transform="translate(-61 -977)" xlink:href="#arrow-left-3-a"/>
	<use fill="#fff" fill-opacity="0" stroke="#c1c1c1" stroke-miterlimit="50" stroke-width="8" opacity=".5" transform="translate(-61 -977)" xlink:href="#arrow-left-3-b"/>
	<use fill="#fff" fill-opacity="0" stroke="#c1c1c1" stroke-miterlimit="50" stroke-width="8" opacity=".1" transform="translate(-61 -977)" xlink:href="#arrow-left-3-c"/>
</symbol>
<symbol id="arrow-left" viewBox="0 0 21 30">

	<use fill="#fff" fill-opacity="0" stroke-miterlimit="50" stroke-width="8" transform="translate(-61 -977)" xlink:href="#arrow-left-a"/>
</symbol>
<symbol id="arrow-right-3" viewBox="0 0 53 30">

	<use fill="#fff" fill-opacity="0" stroke="#c1c1c1" stroke-miterlimit="50" stroke-width="8" transform="translate(-1812 -977)" xlink:href="#arrow-right-3-a"/>
	<use fill="#fff" fill-opacity="0" stroke="#c1c1c1" stroke-miterlimit="50" stroke-width="8" opacity=".5" transform="translate(-1812 -977)" xlink:href="#arrow-right-3-b"/>
	<use fill="#fff" fill-opacity="0" stroke="#c1c1c1" stroke-miterlimit="50" stroke-width="8" opacity=".1" transform="translate(-1812 -977)" xlink:href="#arrow-right-3-c"/>
</symbol>
<symbol id="arrow-right" viewBox="0 0 21 30">

	<use fill="#fff" fill-opacity="0" stroke-miterlimit="50" stroke-width="8" transform="translate(-1828 -977)" xlink:href="#arrow-right-a"/>
</symbol>
<symbol id="cart" viewBox="0 0 20 17">

	<use fill="#ce0404" transform="translate(-1638 -1112)" xlink:href="#cart-a"/>
</symbol>
<symbol id="close" viewBox="0 0 13 13">

	<use fill="#fff" fill-opacity="0" stroke="#ed0000" stroke-miterlimit="50" stroke-width="4" transform="translate(-200 -343)" xlink:href="#close-a"/>
	<use fill="#fff" fill-opacity="0" stroke="#ed0000" stroke-miterlimit="50" stroke-width="4" transform="translate(-200 -343)" xlink:href="#close-b"/>
</symbol>
<symbol id="instagram" viewBox="0 0 17 16">

	<use fill="#fff" transform="translate(-182 -523)" xlink:href="#instagram-a"/>
	<use fill="#fff" transform="translate(-182 -523)" xlink:href="#instagram-b"/>
	<use fill="#fff" transform="translate(-182 -523)" xlink:href="#instagram-c"/>
</symbol>
<symbol id="user" viewBox="0 0 20 20">

	<use fill="#ce0404" transform="translate(-1578 -1110)" xlink:href="#user-a"/>
	<use fill="#ce0404" transform="translate(-1578 -1110)" xlink:href="#user-b"/>
</symbol>
<symbol id="vk" viewBox="0 0 22 12">

	<use fill="#fff" transform="translate(-127 -525)" xlink:href="#vk-a"/>
</symbol>
<symbol id="youtube" viewBox="0 0 18 12">

	<use fill="#fff" transform="translate(-1004 -780)" xlink:href="#youtube-a"/>
</symbol>
</svg>